<svg width="50" height="50" viewBox="0 0 50 50" fill="none" xmlns="http://www.w3.org/2000/svg">
<path d="M37.806 14.4848L39.3226 13.9784V16.1736C39.3226 20.5188 36.9298 24.4231 33.0645 26.3957C29.1992 24.4239 26.8065 20.5196 26.8065 16.1744V13.9791L28.3246 14.4858L28.3257 14.4862C29.887 15.0055 31.6513 14.5914 32.8178 13.4239L33.0645 13.1772L33.3115 13.4242L33.3118 13.4245C34.4774 14.589 36.2395 15.0088 37.8053 14.485C37.8054 14.485 37.8055 14.485 37.8055 14.4849C37.8057 14.4849 37.8059 14.4848 37.806 14.4848Z" stroke="url(#paint0_linear)" stroke-width="2"/>
<path d="M33.0645 22.9146L30.075 19.9251L31.2154 18.7847L33.0645 20.6339L42.9782 10.7202L44.1186 11.8606L33.0645 22.9146Z" fill="url(#paint1_linear)"/>
<path d="M27.4193 40.3225H36.2903V41.9354H27.4193V40.3225Z" fill="url(#paint2_linear)"/>
<path d="M32.2581 48.3871H1.6129V11.2903H11.2903V1.6129H32.2581V12.5693L33.0645 11.7629L33.871 12.5693V0H10.15L0 10.15V50H33.871V41.0282H32.2581V48.3871ZM2.75328 9.67742L9.67742 2.75328V9.67742H2.75328Z" fill="url(#paint3_linear)"/>
<path d="M47.9224 32.875L44.345 32.3635C44.1284 32.3328 43.9307 32.2119 43.8032 32.0347L41.1369 28.3017C40.3824 27.2436 39.1558 26.6128 37.8556 26.6128H27.5332C26.1813 26.6128 24.9276 27.2838 24.1782 28.4088L22.2322 31.3275C22.1282 31.483 21.9727 31.5992 21.7935 31.6523L15.4348 33.5594C14.4023 33.8693 13.7097 34.8006 13.7097 35.8771V39.516C13.7097 40.8497 14.7953 41.9354 16.129 41.9354H20.9678V40.3225H16.129C15.6849 40.3225 15.3226 39.961 15.3226 39.516V35.8771C15.3226 35.5184 15.5541 35.2081 15.8967 35.1046L22.2558 33.1975C22.7937 33.0361 23.2623 32.6895 23.5734 32.2217L25.5194 29.3031C25.9695 28.6281 26.7216 28.2257 27.5332 28.2257H37.8564C38.6364 28.2257 39.3716 28.6049 39.8249 29.2385L42.4919 32.9727C42.875 33.5078 43.4677 33.8677 44.1186 33.961L47.696 34.4725C48.0894 34.5273 48.3871 34.871 48.3871 35.2692V39.516C48.3871 39.961 48.0248 40.3225 47.5807 40.3225H42.7419V41.9354H47.5807C48.9144 41.9354 50 40.8497 50 39.516V35.2692C50 34.0733 49.1073 33.0443 47.9224 32.875Z" fill="url(#paint4_linear)"/>
<path d="M26.9208 29.8386L24.5015 34.6773H40.8211L38.4017 29.8386H26.9208ZM27.1114 33.0644L27.9179 31.4515H37.4047L38.2111 33.0644H27.1114Z" fill="url(#paint5_linear)"/>
<path d="M20.9677 6.45166H22.5806V8.06456H20.9677V6.45166Z" fill="url(#paint6_linear)"/>
<path d="M24.1935 6.45166H25.8064V8.06456H24.1935V6.45166Z" fill="url(#paint7_linear)"/>
<path d="M17.7419 6.45166H19.3548V8.06456H17.7419V6.45166Z" fill="url(#paint8_linear)"/>
<path d="M3.2258 12.9033H21.7742V14.5162H3.2258V12.9033Z" fill="url(#paint9_linear)"/>
<path d="M3.2258 19.3547H21.7742V20.9676H3.2258V19.3547Z" fill="url(#paint10_linear)"/>
<path d="M24.1935 44.6612C22.2464 44.6612 20.6613 43.076 20.6613 41.1289C20.6613 39.1818 22.2464 37.5967 24.1935 37.5967C26.1407 37.5967 27.7258 39.1818 27.7258 41.1289C27.7258 43.076 26.1407 44.6612 24.1935 44.6612Z" stroke="url(#paint11_linear)"/>
<path d="M23.3871 40.3225H25V41.9354H23.3871V40.3225Z" fill="url(#paint12_linear)"/>
<path d="M39.5161 44.6612C37.569 44.6612 35.9839 43.076 35.9839 41.1289C35.9839 39.1818 37.569 37.5967 39.5161 37.5967C41.4633 37.5967 43.0484 39.1818 43.0484 41.1289C43.0484 43.076 41.4633 44.6612 39.5161 44.6612Z" stroke="url(#paint13_linear)"/>
<path d="M38.7097 40.3225H40.3226V41.9354H38.7097V40.3225Z" fill="url(#paint14_linear)"/>
<path d="M14.5161 16.1292H21.7742V17.7421H14.5161V16.1292Z" fill="url(#paint15_linear)"/>
<path d="M3.2258 16.1292H12.9032V17.7421H3.2258V16.1292Z" fill="url(#paint16_linear)"/>
<path d="M3.2258 22.5806H21.7742V24.1935H3.2258V22.5806Z" fill="url(#paint17_linear)"/>
<path d="M3.2258 25.8064H21.7742V27.4193H3.2258V25.8064Z" fill="url(#paint18_linear)"/>
<path d="M17.7419 46.7743H16.129C14.8969 46.7743 14.3669 45.563 13.9798 44.6774C13.8321 44.3395 13.4864 43.5485 13.3088 43.5485C13.1316 43.5485 12.7855 44.3395 12.6378 44.6774C12.2507 45.5622 11.7211 46.7743 10.4878 46.7743C9.25489 46.7743 8.72408 45.563 8.337 44.6782C8.18934 44.3395 7.84281 43.5485 7.66365 43.5485C7.48448 43.5485 7.13796 44.3395 6.99029 44.6782C6.60242 45.563 6.07161 46.7743 4.8387 46.7743H3.2258V45.1614H4.8387C5.01787 45.1614 5.36439 44.3703 5.51206 44.0316C5.89993 43.1468 6.43074 41.9355 7.66365 41.9355C8.89695 41.9355 9.42737 43.1468 9.81445 44.0316C9.9629 44.3703 10.3098 45.1614 10.4886 45.1614C10.6662 45.1614 11.0119 44.3703 11.1604 44.0324C11.5467 43.1468 12.0767 41.9355 13.3096 41.9355C14.5429 41.9355 15.0725 43.1476 15.4588 44.0324C15.6065 44.3703 15.9514 45.1614 16.129 45.1614H17.7419V46.7743Z" fill="url(#paint19_linear)"/>
<path d="M19.3548 45.1614H20.9677V46.7743H19.3548V45.1614Z" fill="url(#paint20_linear)"/>
<path d="M30.6452 11.2903H12.9032V3.22583H30.6452V11.2903ZM14.5161 9.67744H29.0323V4.83873H14.5161V9.67744Z" fill="url(#paint21_linear)"/>
<defs>
<linearGradient id="paint0_linear" x1="25.8065" y1="12.7839" x2="40.972" y2="25.6949" gradientUnits="userSpaceOnUse">
<stop stop-color="#FFF5BA"/>
<stop offset="1" stop-color="#DA6C37"/>
</linearGradient>
<linearGradient id="paint1_linear" x1="30.075" y1="11.5106" x2="41.9452" y2="24.1392" gradientUnits="userSpaceOnUse">
<stop stop-color="#FFF5BA"/>
<stop offset="1" stop-color="#DA6C37"/>
</linearGradient>
<linearGradient id="paint2_linear" x1="27.4193" y1="40.427" x2="28.0154" y2="43.4558" gradientUnits="userSpaceOnUse">
<stop stop-color="#FFF5BA"/>
<stop offset="1" stop-color="#DA6C37"/>
</linearGradient>
<linearGradient id="paint3_linear" x1="-6.39983e-08" y1="3.24074" x2="43.8574" y2="30.687" gradientUnits="userSpaceOnUse">
<stop stop-color="#FFF5BA"/>
<stop offset="1" stop-color="#DA6C37"/>
</linearGradient>
<linearGradient id="paint4_linear" x1="13.7097" y1="27.6059" x2="25.0092" y2="52.329" gradientUnits="userSpaceOnUse">
<stop stop-color="#FFF5BA"/>
<stop offset="1" stop-color="#DA6C37"/>
</linearGradient>
<linearGradient id="paint5_linear" x1="24.5015" y1="30.1522" x2="27.2477" y2="38.709" gradientUnits="userSpaceOnUse">
<stop stop-color="#FFF5BA"/>
<stop offset="1" stop-color="#DA6C37"/>
</linearGradient>
<linearGradient id="paint6_linear" x1="20.9677" y1="6.5562" x2="22.5358" y2="8.00483" gradientUnits="userSpaceOnUse">
<stop stop-color="#FFF5BA"/>
<stop offset="1" stop-color="#DA6C37"/>
</linearGradient>
<linearGradient id="paint7_linear" x1="24.1935" y1="6.5562" x2="25.7616" y2="8.00482" gradientUnits="userSpaceOnUse">
<stop stop-color="#FFF5BA"/>
<stop offset="1" stop-color="#DA6C37"/>
</linearGradient>
<linearGradient id="paint8_linear" x1="17.7419" y1="6.5562" x2="19.31" y2="8.00482" gradientUnits="userSpaceOnUse">
<stop stop-color="#FFF5BA"/>
<stop offset="1" stop-color="#DA6C37"/>
</linearGradient>
<linearGradient id="paint9_linear" x1="3.2258" y1="13.0079" x2="3.51933" y2="16.1263" gradientUnits="userSpaceOnUse">
<stop stop-color="#FFF5BA"/>
<stop offset="1" stop-color="#DA6C37"/>
</linearGradient>
<linearGradient id="paint10_linear" x1="3.2258" y1="19.4593" x2="3.51933" y2="22.5777" gradientUnits="userSpaceOnUse">
<stop stop-color="#FFF5BA"/>
<stop offset="1" stop-color="#DA6C37"/>
</linearGradient>
<linearGradient id="paint11_linear" x1="20.1613" y1="37.6194" x2="28.0018" y2="44.8625" gradientUnits="userSpaceOnUse">
<stop stop-color="#FFF5BA"/>
<stop offset="1" stop-color="#DA6C37"/>
</linearGradient>
<linearGradient id="paint12_linear" x1="23.3871" y1="40.427" x2="24.9552" y2="41.8757" gradientUnits="userSpaceOnUse">
<stop stop-color="#FFF5BA"/>
<stop offset="1" stop-color="#DA6C37"/>
</linearGradient>
<linearGradient id="paint13_linear" x1="35.4839" y1="37.6194" x2="43.3244" y2="44.8625" gradientUnits="userSpaceOnUse">
<stop stop-color="#FFF5BA"/>
<stop offset="1" stop-color="#DA6C37"/>
</linearGradient>
<linearGradient id="paint14_linear" x1="38.7097" y1="40.427" x2="40.2778" y2="41.8757" gradientUnits="userSpaceOnUse">
<stop stop-color="#FFF5BA"/>
<stop offset="1" stop-color="#DA6C37"/>
</linearGradient>
<linearGradient id="paint15_linear" x1="14.5161" y1="16.2337" x2="15.2315" y2="19.2077" gradientUnits="userSpaceOnUse">
<stop stop-color="#FFF5BA"/>
<stop offset="1" stop-color="#DA6C37"/>
</linearGradient>
<linearGradient id="paint16_linear" x1="3.2258" y1="16.2337" x2="3.7755" y2="19.2806" gradientUnits="userSpaceOnUse">
<stop stop-color="#FFF5BA"/>
<stop offset="1" stop-color="#DA6C37"/>
</linearGradient>
<linearGradient id="paint17_linear" x1="3.2258" y1="22.6851" x2="3.51933" y2="25.8035" gradientUnits="userSpaceOnUse">
<stop stop-color="#FFF5BA"/>
<stop offset="1" stop-color="#DA6C37"/>
</linearGradient>
<linearGradient id="paint18_linear" x1="3.2258" y1="25.9109" x2="3.51933" y2="29.0294" gradientUnits="userSpaceOnUse">
<stop stop-color="#FFF5BA"/>
<stop offset="1" stop-color="#DA6C37"/>
</linearGradient>
<linearGradient id="paint19_linear" x1="3.2258" y1="42.2492" x2="6.23902" y2="50.6001" gradientUnits="userSpaceOnUse">
<stop stop-color="#FFF5BA"/>
<stop offset="1" stop-color="#DA6C37"/>
</linearGradient>
<linearGradient id="paint20_linear" x1="19.3548" y1="45.2659" x2="20.9229" y2="46.7145" gradientUnits="userSpaceOnUse">
<stop stop-color="#FFF5BA"/>
<stop offset="1" stop-color="#DA6C37"/>
</linearGradient>
<linearGradient id="paint21_linear" x1="12.9032" y1="3.74853" x2="19.1345" y2="16.4128" gradientUnits="userSpaceOnUse">
<stop stop-color="#FFF5BA"/>
<stop offset="1" stop-color="#DA6C37"/>
</linearGradient>
</defs>
</svg>
