<svg width="35" height="35" viewBox="0 0 35 35" fill="none" xmlns="http://www.w3.org/2000/svg">
<path d="M17.5 20.2344C16.5955 20.2344 15.8594 20.9705 15.8594 21.875C15.8594 22.7795 16.5955 23.5156 17.5 23.5156C18.4045 23.5156 19.1406 22.7795 19.1406 21.875C19.1406 20.9705 18.4045 20.2344 17.5 20.2344ZM17.5 22.4219C17.1981 22.4219 16.9531 22.1763 16.9531 21.875C16.9531 21.5737 17.1981 21.3281 17.5 21.3281C17.8019 21.3281 18.0469 21.5737 18.0469 21.875C18.0469 22.1763 17.8019 22.4219 17.5 22.4219Z" fill="url(#paint0_linear)"/>
<path d="M25.8338 15.0082L17.5 11.4365L9.16615 15.0082L9.48826 15.975C10.4015 18.7154 10.3458 21.7139 9.33186 24.4177L9.25748 24.6157L9.40295 24.9804C10.8128 28.505 13.7069 31.1525 17.3436 32.2429L17.5 32.29L17.6569 32.2429C21.2931 31.1519 24.1872 28.505 25.5965 24.981L25.743 24.6162L25.6687 24.4177C24.6548 21.7139 24.599 18.7154 25.5128 15.975L25.8338 15.0082ZM21.2844 21.3284H23.8405C23.8766 21.6948 23.9258 22.0596 23.9914 22.4221H21.2844C21.3101 22.2428 21.3281 22.0612 21.3281 21.8753C21.3281 21.6893 21.3101 21.5078 21.2844 21.3284ZM24.4748 15.6289C23.9777 17.1191 23.7491 18.6793 23.7781 20.2346H20.9535C20.5751 19.4417 19.9336 18.8002 19.1406 18.4218V13.3293L24.4787 15.6168L24.4748 15.6289ZM17.5 24.6096C15.9923 24.6096 14.7656 23.383 14.7656 21.8753C14.7656 20.3675 15.9923 19.1409 17.5 19.1409C19.0077 19.1409 20.2344 20.3675 20.2344 21.8753C20.2344 23.383 19.0077 24.6096 17.5 24.6096ZM18.0469 12.8606V18.0903C17.8675 18.0652 17.6859 18.0471 17.5 18.0471C17.3141 18.0471 17.1325 18.0652 16.9531 18.0909V12.8611L17.5 12.6265L18.0469 12.8606ZM15.8594 13.3298V18.4223C15.0664 18.8007 14.4249 19.4422 14.0465 20.2352H11.2219C11.2514 18.6799 11.0222 17.1196 10.5257 15.63L10.5213 15.6179L15.8594 13.3298ZM13.7156 22.4221H11.0086C11.0737 22.0596 11.1234 21.6948 11.1595 21.3284H13.7156C13.6899 21.5078 13.6719 21.6893 13.6719 21.8753C13.6719 22.0612 13.6899 22.2428 13.7156 22.4221ZM10.4289 24.6009C10.5569 24.2432 10.669 23.8812 10.7658 23.5159H14.0465C14.4249 24.3089 15.0664 24.9503 15.8594 25.3288V30.4831C13.4044 29.2636 11.4745 27.1958 10.4289 24.6009ZM17.5 31.147C17.3151 31.0885 17.1336 31.0245 16.9531 30.9578V25.6596C17.1325 25.6853 17.3141 25.7034 17.5 25.7034C17.6859 25.7034 17.8675 25.6853 18.0469 25.6596V30.9572C17.8664 31.0245 17.6848 31.0885 17.5 31.147ZM19.1406 30.4831V25.3288C19.9336 24.9503 20.5751 24.3089 20.9535 23.5159H24.2337C24.331 23.8812 24.4426 24.2432 24.5705 24.6004C23.5255 27.1953 21.5955 29.2636 19.1406 30.4831Z" fill="url(#paint1_linear)"/>
<path d="M27.8392 24.8786C27.8513 24.8288 27.8655 24.7823 27.877 24.732L27.9136 24.5718L27.5581 23.6229C26.7652 21.5093 26.775 19.1036 27.5833 16.6793L28.5819 13.917L25.3892 12.5728L27.0999 10.8621L31.6017 9.17395L34.8092 0.191523L25.8273 3.3984L24.1391 7.90027L21.222 10.8173L17.5 9.25051L13.7785 10.8173L10.8615 7.90027L9.17328 3.3984L0.190857 0.19043L3.39828 9.17285L7.90016 10.8611L9.61078 12.5722L6.41867 13.9164L7.41234 16.6667C8.22445 19.1036 8.23485 21.5087 7.44188 23.6224L7.08641 24.5712L7.12305 24.7309C7.13453 24.7818 7.14875 24.8282 7.16078 24.878L1.09375 30.945C0.741013 31.2978 0.546873 31.7664 0.546873 32.2657C0.546873 32.765 0.741013 33.2337 1.09375 33.5859L1.41422 33.9064C1.76695 34.2591 2.23617 34.4532 2.73437 34.4532C3.23258 34.4532 3.7018 34.2591 4.05453 33.9064L9.0825 28.8784C10.938 31.4143 13.6128 33.2868 16.7956 34.2421L17.5815 34.4779L18.3673 34.2421C21.4774 33.3092 24.1008 31.4416 25.9323 28.8937L30.9455 33.9064C31.2988 34.2591 31.7674 34.4532 32.2656 34.4532C32.7638 34.4532 33.2331 34.2591 33.5858 33.9064L33.9063 33.5864C34.259 33.2337 34.4531 32.765 34.4531 32.2657C34.4531 31.7664 34.259 31.2978 33.9063 30.9456L27.8392 24.8786ZM30.742 8.32738L26.9347 9.75527L26.4764 9.29699L32.5735 3.19988L30.742 8.32738ZM26.6727 4.25809L31.7997 2.42715L25.7031 8.52371L25.2449 8.06543L26.6727 4.25809ZM24.6094 8.97652L26.0236 10.3907L25.1563 11.2581L23.742 9.84387L24.6094 8.97652ZM22.9688 10.6171L24.383 12.0314L24.3004 12.1139L22.3098 11.2761L22.9688 10.6171ZM10.6996 12.1139L10.617 12.0314L12.0313 10.6171L12.6897 11.2756L10.6996 12.1139ZM11.258 9.84387L9.84375 11.2581L8.97641 10.3907L10.3906 8.97652L11.258 9.84387ZM9.75516 8.06543L9.29688 8.52371L3.20031 2.42715L8.32727 4.25809L9.75516 8.06543ZM2.42648 3.19988L8.52359 9.29699L8.06531 9.75527L4.25797 8.32738L2.42648 3.19988ZM3.28125 33.1325C2.98867 33.4251 2.48008 33.4251 2.1875 33.1325L1.86703 32.8126C1.72047 32.6666 1.64062 32.4725 1.64062 32.2657C1.64062 32.059 1.72047 31.8649 1.86703 31.7189L7.51844 26.0675C7.64531 26.4104 7.78531 26.7368 7.94555 27.0453C8.10633 27.3554 8.28188 27.6556 8.46344 27.9504L3.28125 33.1325ZM18.0534 33.1938L17.582 33.3354L17.1106 33.1938C13.4887 32.1071 10.5788 29.7446 8.91735 26.5416C8.62805 25.9838 8.40164 25.362 8.22719 24.6456L8.46672 24.0063C9.34828 21.6553 9.34336 18.9975 8.44594 16.3074L7.80008 14.5207L17.5 10.4372L27.1999 14.5213L26.5502 16.32C25.6572 18.998 25.6517 21.6558 26.5338 24.0068L26.7734 24.6456C26.5995 25.3582 26.3747 25.9789 26.0892 26.5394C24.4409 29.7704 21.5874 32.1334 18.0534 33.1938ZM33.133 32.8126L32.8125 33.1325C32.5199 33.4251 32.0113 33.4251 31.7188 33.1325L26.5448 27.9586C26.7269 27.6583 26.9024 27.3526 27.0638 27.0365C27.2202 26.7297 27.3574 26.4065 27.4821 26.0675L33.133 31.7189C33.2795 31.8649 33.3594 32.059 33.3594 32.2657C33.3594 32.4725 33.2795 32.6666 33.133 32.8126Z" fill="url(#paint2_linear)"/>
<defs>
<linearGradient id="paint0_linear" x1="15.8594" y1="20.447" x2="19.0495" y2="23.3941" gradientUnits="userSpaceOnUse">
<stop stop-color="#FFF5BA"/>
<stop offset="1" stop-color="#DA6C37"/>
</linearGradient>
<linearGradient id="paint1_linear" x1="9.16615" y1="12.7881" x2="28.6032" y2="27.14" gradientUnits="userSpaceOnUse">
<stop stop-color="#FFF5BA"/>
<stop offset="1" stop-color="#DA6C37"/>
</linearGradient>
<linearGradient id="paint2_linear" x1="0.190857" y1="2.41276" x2="33.5497" y2="33.5273" gradientUnits="userSpaceOnUse">
<stop stop-color="#FFF5BA"/>
<stop offset="1" stop-color="#DA6C37"/>
</linearGradient>
</defs>
</svg>
