<svg width="20" height="20" viewBox="0 0 20 20" fill="none" xmlns="http://www.w3.org/2000/svg">
<g clip-path="url(#clip0)">
<path d="M15.8333 16.6667H5.00001C2.39532 16.6682 0.225755 14.6699 0.013647 12.0738C-0.198461 9.47781 1.61795 7.15379 4.18834 6.73251C5.37144 4.63492 7.59177 3.33627 10 3.3333C11.5017 3.32762 12.9604 3.83443 14.135 4.77001C15.2884 5.68489 16.1084 6.95416 16.4683 8.38168C18.6216 8.71254 20.1565 10.6463 19.99 12.8184C19.8235 14.9906 18.0119 16.6678 15.8333 16.6667ZM10 5.00001C8.1931 5.00214 6.52724 5.97676 5.64001 7.55085L5.25001 8.25001L4.45918 8.37918C2.75108 8.66535 1.54668 10.2119 1.68769 11.9381C1.82869 13.6642 3.26811 14.9948 5.00001 15H15.8333C17.1405 15.0014 18.228 13.9955 18.3285 12.6922C18.429 11.389 17.5086 10.2283 16.2167 10.0292L15.12 9.86251L14.8517 8.78585C14.2977 6.55819 12.2955 4.99581 10 5.00001ZM10 13.3333L6.66668 10H8.79168V7.50001H11.2083V10H13.3333L10 13.3333Z" fill="url(#paint0_linear)"/>
</g>
<defs>
<linearGradient id="paint0_linear" x1="-0.00317387" y1="4.19746" x2="12.3371" y2="21.3021" gradientUnits="userSpaceOnUse">
<stop stop-color="#FFF5BA"/>
<stop offset="1" stop-color="#DA6C37"/>
</linearGradient>
<clipPath id="clip0">
<rect width="20" height="20" fill="white"/>
</clipPath>
</defs>
</svg>
