<svg width="35" height="35" viewBox="0 0 35 35" fill="none" xmlns="http://www.w3.org/2000/svg">
<g clip-path="url(#clip0)">
<path d="M17.6179 19.4708C17.9512 19.4708 18.2214 19.2006 18.2214 18.8673C18.2214 18.534 17.9512 18.2638 17.6179 18.2638C17.2845 18.2638 17.0143 18.534 17.0143 18.8673C17.0143 19.2006 17.2845 19.4708 17.6179 19.4708Z" fill="url(#paint0_linear)"/>
<path d="M25.8438 0H25.7972H9.2027H9.15606C8.20745 0 7.43567 0.771783 7.43567 1.72039V1.76703V4.60504V28.6852V33.233V33.2797C7.43567 34.2283 8.20745 35.0001 9.15606 35.0001H9.2027H25.7973H25.8439C26.7925 35.0001 27.5643 34.2283 27.5643 33.2797V33.233V28.6852V4.60504V1.76703V1.72039C27.5642 0.771783 26.7925 0 25.8438 0ZM9.2027 33.9711C8.79569 33.9711 8.46453 33.64 8.46453 33.233V29.1996H18.2329C18.517 29.1996 18.7473 28.9692 18.7473 28.6851C18.7473 28.401 18.517 28.1707 18.2329 28.1707H8.46453V5.11948H10.966C11.2501 5.11948 11.4804 4.88915 11.4804 4.60504C11.4804 4.32094 11.2501 4.09061 10.966 4.09061H8.46453V1.76703C8.46453 1.36002 8.79569 1.02886 9.2027 1.02886H25.7973C26.2043 1.02886 26.5354 1.36002 26.5354 1.76703V4.09061H13.0238C12.7396 4.09061 12.5093 4.32094 12.5093 4.60504C12.5093 4.88915 12.7396 5.11948 13.0238 5.11948H26.5354V28.1708H20.2907C20.0065 28.1708 19.7762 28.4011 19.7762 28.6852C19.7762 28.9693 20.0065 29.1996 20.2907 29.1996H26.5354V33.233C26.5354 33.6401 26.2043 33.9712 25.7973 33.9712H9.2027V33.9711Z" fill="url(#paint1_linear)"/>
<path d="M14.1558 3.1502H17.3435C17.6276 3.1502 17.8579 2.91987 17.8579 2.63577C17.8579 2.35167 17.6276 2.12134 17.3435 2.12134H14.1558C13.8716 2.12134 13.6414 2.35167 13.6414 2.63577C13.6414 2.91987 13.8716 3.1502 14.1558 3.1502Z" fill="url(#paint2_linear)"/>
<path d="M19.7371 3.1502H20.8441C21.1283 3.1502 21.3586 2.91987 21.3586 2.63577C21.3586 2.35167 21.1283 2.12134 20.8441 2.12134H19.7371C19.4529 2.12134 19.2227 2.35167 19.2227 2.63577C19.2227 2.91987 19.4529 3.1502 19.7371 3.1502Z" fill="url(#paint3_linear)"/>
<path d="M17.5 29.6821C16.4371 29.6821 15.5723 30.5468 15.5723 31.6098C15.5723 32.6727 16.437 33.5375 17.5 33.5375C18.563 33.5375 19.4277 32.6727 19.4277 31.6098C19.4277 30.5468 18.5629 29.6821 17.5 29.6821ZM17.5 32.5085C17.0044 32.5085 16.6012 32.1054 16.6012 31.6097C16.6012 31.1141 17.0044 30.7109 17.5 30.7109C17.9956 30.7109 18.3988 31.1141 18.3988 31.6097C18.3988 32.1054 17.9956 32.5085 17.5 32.5085Z" fill="url(#paint4_linear)"/>
<path d="M24.7152 21.6185C24.7612 21.5389 24.7842 21.4501 24.7842 21.3612C24.7842 21.2724 24.7612 21.1836 24.7152 21.104L18.0634 9.58265C17.9715 9.42346 17.8017 9.32544 17.6179 9.32544C17.4341 9.32544 17.2643 9.42346 17.1724 9.58265L10.5205 21.104C10.4746 21.1836 10.4516 21.2724 10.4516 21.3612C10.4516 21.4501 10.4746 21.5389 10.5205 21.6185C10.6124 21.7777 10.7822 21.8757 10.966 21.8757H24.2698C24.4536 21.8757 24.6233 21.7776 24.7152 21.6185ZM11.857 20.8468L17.6178 10.8687L23.3787 20.8468H11.857Z" fill="url(#paint5_linear)"/>
<path d="M17.1034 13.747V17.2636C17.1034 17.5477 17.3337 17.7781 17.6178 17.7781C17.902 17.7781 18.1323 17.5477 18.1323 17.2636V13.747C18.1323 13.4629 17.902 13.2325 17.6178 13.2325C17.3337 13.2325 17.1034 13.4629 17.1034 13.747Z" fill="url(#paint6_linear)"/>
</g>
<defs>
<linearGradient id="paint0_linear" x1="17.0143" y1="18.342" x2="18.1879" y2="19.4261" gradientUnits="userSpaceOnUse">
<stop stop-color="#FFF5BA"/>
<stop offset="1" stop-color="#DA6C37"/>
</linearGradient>
<linearGradient id="paint1_linear" x1="7.43567" y1="2.26852" x2="35.722" y2="17.2967" gradientUnits="userSpaceOnUse">
<stop stop-color="#FFF5BA"/>
<stop offset="1" stop-color="#DA6C37"/>
</linearGradient>
<linearGradient id="paint2_linear" x1="13.6414" y1="2.18802" x2="14.1369" y2="4.06399" gradientUnits="userSpaceOnUse">
<stop stop-color="#FFF5BA"/>
<stop offset="1" stop-color="#DA6C37"/>
</linearGradient>
<linearGradient id="paint3_linear" x1="19.2227" y1="2.18802" x2="20.0454" y2="3.76588" gradientUnits="userSpaceOnUse">
<stop stop-color="#FFF5BA"/>
<stop offset="1" stop-color="#DA6C37"/>
</linearGradient>
<linearGradient id="paint4_linear" x1="15.5723" y1="29.932" x2="19.3206" y2="33.3947" gradientUnits="userSpaceOnUse">
<stop stop-color="#FFF5BA"/>
<stop offset="1" stop-color="#DA6C37"/>
</linearGradient>
<linearGradient id="paint5_linear" x1="10.4516" y1="10.1389" x2="22.674" y2="23.0336" gradientUnits="userSpaceOnUse">
<stop stop-color="#FFF5BA"/>
<stop offset="1" stop-color="#DA6C37"/>
</linearGradient>
<linearGradient id="paint6_linear" x1="17.1034" y1="13.5272" x2="18.8797" y2="13.8986" gradientUnits="userSpaceOnUse">
<stop stop-color="#FFF5BA"/>
<stop offset="1" stop-color="#DA6C37"/>
</linearGradient>
<clipPath id="clip0">
<rect width="35" height="35" fill="white"/>
</clipPath>
</defs>
</svg>
