<svg width="35" height="35" viewBox="0 0 35 35" fill="none" xmlns="http://www.w3.org/2000/svg">
<path d="M28.5833 3.50001H20.1279L20.4137 0.641674C20.446 0.321132 20.2122 0.0351532 19.8916 0.00292405C19.8722 0.000955303 19.8528 7.38689e-06 19.8333 7.38689e-06H15.1666C14.8445 -0.00159678 14.582 0.258278 14.5804 0.580424C14.5803 0.600914 14.5813 0.62133 14.5833 0.641674L14.875 3.50001H6.41665C6.0945 3.50001 5.83331 3.76119 5.83331 4.08334V32.0833C5.83331 32.4055 6.0945 32.6667 6.41665 32.6667H28.5833C28.9055 32.6667 29.1666 32.4055 29.1666 32.0833V4.08334C29.1666 3.76119 28.9055 3.50001 28.5833 3.50001ZM19.1916 1.16667L18.725 5.83334H16.2808L15.8141 1.16667H19.1916ZM28 31.5H6.99998V4.66667H14.9916L15.1725 6.47501C15.2025 6.77418 15.4551 7.00154 15.7558 7.00001H19.2558C19.5554 7.00001 19.8063 6.77309 19.8362 6.47501L20.0171 4.66667H28V31.5Z" fill="url(#paint0_linear)"/>
<path d="M20.4166 23.9166H14.5833V25.0833H20.4166V23.9166Z" fill="url(#paint1_linear)"/>
<path d="M23.9166 26.25H11.0833V27.4167H23.9166V26.25Z" fill="url(#paint2_linear)"/>
<path d="M18.0834 2.33337H16.9167V3.50004H18.0834V2.33337Z" fill="url(#paint3_linear)"/>
<path d="M9.33335 5.25H8.16669V6.41667H9.33335V5.25Z" fill="url(#paint4_linear)"/>
<path d="M26.8334 5.25H25.6667V6.41667H26.8334V5.25Z" fill="url(#paint5_linear)"/>
<path d="M9.33335 29.1666H8.16669V30.3333H9.33335V29.1666Z" fill="url(#paint6_linear)"/>
<path d="M26.8334 29.1666H25.6667V30.3333H26.8334V29.1666Z" fill="url(#paint7_linear)"/>
<path d="M5.83333 0.583374C4.54468 0.583374 3.5 1.62805 3.5 2.91671V12.8334H4.66667V2.91671C4.66667 2.27234 5.18897 1.75004 5.83333 1.75004H11.0833V0.583374H5.83333Z" fill="url(#paint8_linear)"/>
<path d="M4.66667 14H3.5V15.1667H4.66667V14Z" fill="url(#paint9_linear)"/>
<path d="M30.3334 22.75V32.6667C30.3334 33.311 29.8111 33.8333 29.1667 33.8333H23.9167V35H29.1667C30.4553 35 31.5 33.9553 31.5 32.6667V22.75H30.3334Z" fill="url(#paint10_linear)"/>
<path d="M31.5 20.4166H30.3333V21.5833H31.5V20.4166Z" fill="url(#paint11_linear)"/>
<path d="M22.1369 10.5C20.8569 9.3698 19.2076 8.74731 17.5 8.75001C13.6402 8.74388 10.5061 11.868 10.5 15.7278C10.4973 17.4353 11.1198 19.0848 12.25 20.3648V20.4167H12.2973C14.8566 23.2901 19.2607 23.5447 22.1342 20.9853C22.3345 20.8069 22.5243 20.617 22.7028 20.4167H22.75V20.3648C25.3048 17.4714 25.0303 13.0548 22.1369 10.5ZM21.5833 19.9086C21.233 20.2514 20.841 20.5489 20.4167 20.7941V19.25H19.25V21.3144C18.1109 21.673 16.8891 21.673 15.75 21.3144V19.25H14.5833V20.7941C14.159 20.5488 13.767 20.2514 13.4167 19.9086V18.6667C13.4167 18.0223 13.939 17.5 14.5833 17.5H20.4167C21.061 17.5 21.5833 18.0223 21.5833 18.6667V19.9086ZM15.75 14.5833C15.75 13.6168 16.5335 12.8333 17.5 12.8333C18.4665 12.8333 19.25 13.6168 19.25 14.5833C19.25 15.5499 18.4665 16.3333 17.5 16.3333C16.5335 16.3333 15.75 15.5499 15.75 14.5833ZM22.7173 18.3435C22.5584 17.1938 21.5773 16.3366 20.4167 16.3333H19.8182C20.2042 15.8315 20.4146 15.2166 20.4167 14.5833C20.4167 12.9725 19.1108 11.6667 17.5 11.6667C15.8892 11.6667 14.5833 12.9725 14.5833 14.5833C14.5855 15.2166 14.7958 15.8315 15.1818 16.3333H14.5833C13.4227 16.3366 12.4416 17.1938 12.2827 18.3435C10.8417 15.4621 12.0095 11.9581 14.891 10.5171C17.7725 9.07624 21.2764 10.2439 22.7173 13.1255C23.5387 14.7678 23.5387 16.7011 22.7173 18.3435Z" fill="url(#paint12_linear)"/>
<defs>
<linearGradient id="paint0_linear" x1="5.83331" y1="2.11728" x2="35.1246" y2="21.4455" gradientUnits="userSpaceOnUse">
<stop stop-color="#FFF5BA"/>
<stop offset="1" stop-color="#DA6C37"/>
</linearGradient>
<linearGradient id="paint1_linear" x1="14.5833" y1="23.9922" x2="15.0539" y2="26.166" gradientUnits="userSpaceOnUse">
<stop stop-color="#FFF5BA"/>
<stop offset="1" stop-color="#DA6C37"/>
</linearGradient>
<linearGradient id="paint2_linear" x1="11.0833" y1="26.3256" x2="11.3051" y2="28.5794" gradientUnits="userSpaceOnUse">
<stop stop-color="#FFF5BA"/>
<stop offset="1" stop-color="#DA6C37"/>
</linearGradient>
<linearGradient id="paint3_linear" x1="16.9167" y1="2.40899" x2="18.0509" y2="3.45683" gradientUnits="userSpaceOnUse">
<stop stop-color="#FFF5BA"/>
<stop offset="1" stop-color="#DA6C37"/>
</linearGradient>
<linearGradient id="paint4_linear" x1="8.16669" y1="5.32562" x2="9.30095" y2="6.37346" gradientUnits="userSpaceOnUse">
<stop stop-color="#FFF5BA"/>
<stop offset="1" stop-color="#DA6C37"/>
</linearGradient>
<linearGradient id="paint5_linear" x1="25.6667" y1="5.32562" x2="26.8009" y2="6.37346" gradientUnits="userSpaceOnUse">
<stop stop-color="#FFF5BA"/>
<stop offset="1" stop-color="#DA6C37"/>
</linearGradient>
<linearGradient id="paint6_linear" x1="8.16669" y1="29.2422" x2="9.30095" y2="30.2901" gradientUnits="userSpaceOnUse">
<stop stop-color="#FFF5BA"/>
<stop offset="1" stop-color="#DA6C37"/>
</linearGradient>
<linearGradient id="paint7_linear" x1="25.6667" y1="29.2422" x2="26.8009" y2="30.2901" gradientUnits="userSpaceOnUse">
<stop stop-color="#FFF5BA"/>
<stop offset="1" stop-color="#DA6C37"/>
</linearGradient>
<linearGradient id="paint8_linear" x1="3.5" y1="1.37736" x2="13.7971" y2="7.26606" gradientUnits="userSpaceOnUse">
<stop stop-color="#FFF5BA"/>
<stop offset="1" stop-color="#DA6C37"/>
</linearGradient>
<linearGradient id="paint9_linear" x1="3.5" y1="14.0756" x2="4.63426" y2="15.1235" gradientUnits="userSpaceOnUse">
<stop stop-color="#FFF5BA"/>
<stop offset="1" stop-color="#DA6C37"/>
</linearGradient>
<linearGradient id="paint10_linear" x1="23.9167" y1="23.544" x2="34.2138" y2="29.4327" gradientUnits="userSpaceOnUse">
<stop stop-color="#FFF5BA"/>
<stop offset="1" stop-color="#DA6C37"/>
</linearGradient>
<linearGradient id="paint11_linear" x1="30.3333" y1="20.4922" x2="31.4676" y2="21.5401" gradientUnits="userSpaceOnUse">
<stop stop-color="#FFF5BA"/>
<stop offset="1" stop-color="#DA6C37"/>
</linearGradient>
<linearGradient id="paint12_linear" x1="10.5" y1="9.65741" x2="24.1111" y2="22.2316" gradientUnits="userSpaceOnUse">
<stop stop-color="#FFF5BA"/>
<stop offset="1" stop-color="#DA6C37"/>
</linearGradient>
</defs>
</svg>
