<svg width="20" height="20" viewBox="0 0 20 20" fill="none" xmlns="http://www.w3.org/2000/svg">
<path d="M10 17.5002C8.94745 16.6024 7.97183 15.6181 7.08334 14.5577C5.75001 12.9652 4.16667 10.5935 4.16667 8.3335C4.16549 5.97312 5.58688 3.84466 7.76756 2.94133C9.94825 2.038 12.4584 2.53786 14.1267 4.20766C15.2237 5.29984 15.8383 6.78549 15.8334 8.3335C15.8334 10.5935 14.25 12.9652 12.9167 14.5577C12.0282 15.6181 11.0526 16.6024 10 17.5002ZM10 4.16683C7.69996 4.16959 5.83609 6.03345 5.83334 8.3335C5.83334 9.30516 6.27251 10.9877 8.36251 13.4885C8.87762 14.1035 9.42418 14.6915 10 15.2502C10.5759 14.6922 11.1227 14.1051 11.6383 13.491C13.7275 10.9868 14.1667 9.30433 14.1667 8.3335C14.1639 6.03345 12.3 4.16959 10 4.16683ZM10 10.8335C8.61929 10.8335 7.50001 9.71421 7.50001 8.3335C7.50001 6.95279 8.61929 5.8335 10 5.8335C11.3807 5.8335 12.5 6.95279 12.5 8.3335C12.5 8.99654 12.2366 9.63242 11.7678 10.1013C11.2989 10.5701 10.663 10.8335 10 10.8335Z" fill="url(#paint0_linear)"/>
<defs>
<linearGradient id="paint0_linear" x1="4.16667" y1="3.46949" x2="18.0334" y2="13.431" gradientUnits="userSpaceOnUse">
<stop stop-color="#FFF5BA"/>
<stop offset="1" stop-color="#DA6C37"/>
</linearGradient>
</defs>
</svg>
