<svg width="55" height="55" viewBox="0 0 55 55" fill="none" xmlns="http://www.w3.org/2000/svg">
<path d="M12.9742 15.7964H9.10699C8.66205 15.7964 8.30133 16.1571 8.30133 16.6021C8.30133 17.047 8.66205 17.4077 9.10699 17.4077H11.1583V18.8063C11.1583 19.2512 11.519 19.6119 11.964 19.6119C12.4089 19.6119 12.7697 19.2512 12.7697 18.8063V17.4077H12.9742C14.4401 17.4077 15.6327 16.2145 15.6327 14.7479C15.6327 13.2795 14.4454 12.085 12.9861 12.085H10.9599C10.3825 12.085 9.91266 11.6146 9.91266 11.0364C9.91266 10.4582 10.3824 9.98778 10.9599 9.98778H14.827C15.2719 9.98778 15.6327 9.62705 15.6327 9.18211C15.6327 8.73717 15.2719 8.37645 14.827 8.37645H12.7727V6.97803C12.7727 6.53309 12.4119 6.17236 11.967 6.17236C11.5221 6.17236 11.1613 6.53309 11.1613 6.97803V8.37645H10.9599C9.49404 8.37645 8.30133 9.56969 8.30133 11.0363C8.30133 12.503 9.49393 13.6962 10.9599 13.6962H12.9861C13.5473 13.6962 14.0214 14.1778 14.0214 14.7477C14.0213 15.326 13.5516 15.7964 12.9742 15.7964Z" fill="url(#paint0_linear)" stroke="url(#paint1_linear)" stroke-width="0.4"/>
<path d="M8.76025 30.7217H32.6565C33.1014 30.7217 33.4621 30.361 33.4621 29.916C33.4621 29.4711 33.1014 29.1104 32.6565 29.1104H8.76025C8.31531 29.1104 7.95459 29.4711 7.95459 29.916C7.9547 30.361 8.31531 30.7217 8.76025 30.7217Z" fill="url(#paint2_linear)" stroke="url(#paint3_linear)" stroke-width="0.4"/>
<path d="M7.95465 24.6733C7.95465 25.1183 8.31537 25.479 8.76031 25.479H32.6565C33.1015 25.479 33.4622 25.1183 33.4622 24.6733C33.4622 24.2284 33.1015 23.8677 32.6565 23.8677H8.76021C8.31527 23.8677 7.95465 24.2284 7.95465 24.6733Z" fill="url(#paint4_linear)" stroke="url(#paint5_linear)" stroke-width="0.4"/>
<path d="M8.76025 35.9614H28.2992C28.7441 35.9614 29.1049 35.6007 29.1049 35.1558C29.1049 34.7108 28.7441 34.3501 28.2992 34.3501H8.76025C8.31531 34.3501 7.95459 34.7108 7.95459 35.1558C7.9547 35.6007 8.31531 35.9614 8.76025 35.9614Z" fill="url(#paint6_linear)" stroke="url(#paint7_linear)" stroke-width="0.4"/>
<path d="M53.6724 11.0327L50.9895 10.2314L51.4728 8.61279C51.6092 8.16162 51.5598 7.68467 51.3353 7.26895C51.2472 7.10459 51.1355 6.9585 51.0055 6.83389L51.9014 3.84229C52.3687 2.26319 51.4674 0.596113 49.8926 0.125606C49.131 -0.102129 48.3242 -0.0183397 47.6206 0.361934C46.9192 0.742207 46.4068 1.37063 46.179 2.13225L45.2831 5.12599C44.659 5.24522 44.1165 5.70069 43.9189 6.35274L43.1476 8.93624L35.5154 1.65314L35.3994 1.54035C35.256 1.40156 35.1201 1.2747 34.9643 1.17662C34.9471 1.16459 34.9293 1.15353 34.9111 1.14289C34.9088 1.1416 34.9067 1.13988 34.9044 1.13859C34.9037 1.13827 34.9031 1.13795 34.9024 1.13763C34.8843 1.12721 34.8656 1.11775 34.8466 1.10884C34.8446 1.10787 34.8427 1.1068 34.8408 1.10583C34.8399 1.1054 34.8388 1.10508 34.838 1.10465C34.8216 1.09713 34.8051 1.09036 34.7882 1.08402C34.6547 1.02784 34.5038 0.9925 34.3176 0.9925H2.26368C1.43009 0.9925 0.752258 1.67141 0.752258 2.50715V53.4854C0.752258 54.3211 1.43009 55 2.26368 55H8.98711C9.43291 55 9.79278 54.6391 9.79278 54.1944C9.79278 53.7496 9.43291 53.3887 8.98711 53.3887H2.36359V2.60383H33.6969L33.6919 7.15723C33.6919 9.16806 35.3268 10.804 37.3366 10.804H42.2894V11.8118L34.1824 38.9686C34.1813 38.9729 34.1802 38.9772 34.1792 38.9815C34.1738 39.0008 34.1695 39.0202 34.1652 39.0395C34.162 39.0545 34.1598 39.0696 34.1577 39.0846C34.1544 39.105 34.1523 39.1244 34.1512 39.1448C34.1501 39.163 34.1491 39.1813 34.1491 39.1985C34.1491 39.2157 34.1501 39.2329 34.1512 39.25C34.1523 39.2619 34.1534 39.2748 34.1544 39.2866V39.2887L34.9193 46.0873L34.9194 46.0881C34.6168 45.8868 34.3836 45.5406 34.1095 45.0934C33.7706 44.5405 33.3074 43.7832 32.4229 43.9522C31.6764 44.0936 31.326 44.7173 30.9872 45.3205C30.8108 45.6343 30.6285 45.959 30.3744 46.2815C30.1861 46.5203 30.0592 46.5879 30.0185 46.5903C29.9851 46.5931 29.8003 46.5755 29.2737 46.0505C27.8901 44.6752 26.814 45.6125 26.2969 46.0629C26.1041 46.2308 25.8856 46.4209 25.7427 46.4466C25.6089 46.4708 25.3609 46.3303 25.0798 46.0712C24.7525 45.7697 24.2428 45.7905 23.9413 46.1177C23.6398 46.4449 23.6606 46.9547 23.9878 47.2562C25.6361 48.7749 26.797 47.7638 27.355 47.2779C27.4914 47.1592 27.7197 46.9603 27.798 46.9456C27.799 46.9457 27.9088 46.9656 28.1369 47.1924C28.6407 47.6947 29.2547 48.2017 30.0127 48.2017C30.0463 48.2017 30.0801 48.2008 30.1142 48.1987C30.6711 48.1655 31.1843 47.8563 31.6396 47.2792C31.9717 46.8578 32.2048 46.4429 32.3921 46.1096C32.4585 45.9913 32.5379 45.85 32.6107 45.7337C32.6538 45.8015 32.6975 45.8727 32.7358 45.9353C33.19 46.6764 34.0304 48.0454 35.9019 47.8817C35.9105 47.8816 35.9192 47.8817 35.927 47.8801C35.9721 47.879 36.014 47.8737 36.0548 47.864C36.0595 47.8635 36.0642 47.8622 36.0688 47.8611C36.0691 47.861 36.0696 47.861 36.0699 47.8609C36.0734 47.86 36.0771 47.8595 36.0806 47.8586C36.0871 47.8575 36.0935 47.8554 36.1 47.8532C36.1051 47.852 36.11 47.8502 36.1151 47.8487C36.2404 47.814 36.352 47.7506 36.4437 47.6661C36.444 47.6658 36.4445 47.6656 36.4449 47.6653C36.4481 47.6631 36.4503 47.661 36.4524 47.6588C36.5287 47.5944 36.5888 47.5299 36.6307 47.4826L36.6533 47.4569L39.0305 44.5941L41.585 41.51C41.5883 41.5057 41.5915 41.5014 41.5947 41.4971C41.6087 41.481 41.6216 41.4638 41.6334 41.4455C41.6377 41.4391 41.6409 41.4337 41.6452 41.4273C41.6549 41.4112 41.6645 41.395 41.6742 41.3779C41.6763 41.3746 41.6785 41.3703 41.6796 41.366C41.6903 41.3478 41.6989 41.3284 41.7064 41.308C41.7096 41.3027 41.7118 41.2973 41.7129 41.2919C41.7193 41.278 41.7247 41.264 41.729 41.249C41.7322 41.2414 41.7343 41.2339 41.7365 41.2264L42.2897 39.3734V53.3887H12.5738C12.1291 53.3887 11.7682 53.7496 11.7682 54.1944C11.7682 54.6391 12.1291 55 12.5738 55H42.3871C43.2218 55 43.9007 54.3211 43.9007 53.4854V33.978L45.729 27.8561C45.8569 27.4297 45.6141 26.9806 45.1876 26.8539C44.7612 26.7261 44.3121 26.9688 44.1854 27.3953L43.9007 28.3481L42.2894 33.7449L40.4235 39.9935L35.957 38.6583L42.2894 17.4461L43.9007 12.0493L45.4626 6.81691C45.4863 6.7385 45.5744 6.68908 45.6496 6.71164L49.8282 7.96203C49.8292 7.96203 49.8292 7.96203 49.8303 7.9631C49.8776 7.97707 49.9044 8.0093 49.9173 8.03508C49.9313 8.05978 49.9442 8.09953 49.9291 8.15002L49.2159 10.538L49.2137 10.5477L45.2338 23.8785C45.1071 24.3039 45.3498 24.7529 45.7763 24.8808C46.2028 25.0075 46.6507 24.7658 46.7786 24.3394L50.5285 11.7756L52.4395 12.3463L49.1643 23.3219C49.0371 23.7482 49.2796 24.197 49.7059 24.3242C49.7827 24.3471 49.8603 24.358 49.9365 24.358C50.2835 24.358 50.604 24.1321 50.7083 23.7826L54.2138 12.0353C54.3411 11.6088 54.0986 11.1601 53.6724 11.0327ZM36.4393 45.1915L35.8915 40.3211L39.5673 41.4201L36.4393 45.1915ZM35.3032 7.15809L35.3071 3.68009L35.3072 3.6802L41.0828 9.19266H37.3366C36.2153 9.19266 35.3032 8.27957 35.3032 7.15809ZM46.8838 5.39884L47.7228 2.59405C47.827 2.24386 48.0633 1.95489 48.3877 1.77979C48.7122 1.60362 49.0817 1.56495 49.4308 1.66915C50.157 1.88614 50.5716 2.65636 50.3568 3.38253L49.5178 6.18731L46.8838 5.39884Z" fill="url(#paint8_linear)" stroke="url(#paint9_linear)" stroke-width="0.4"/>
<path d="M8.76025 41.2041H15.2842C15.7291 41.2041 16.0899 40.8434 16.0899 40.3984C16.0899 39.9535 15.7291 39.5928 15.2842 39.5928H8.76025C8.31531 39.5928 7.95459 39.9535 7.95459 40.3984C7.9547 40.8434 8.31531 41.2041 8.76025 41.2041Z" fill="url(#paint10_linear)" stroke="url(#paint11_linear)" stroke-width="0.4"/>
<defs>
<linearGradient id="paint0_linear" x1="8.30133" y1="7.04345" x2="18.8365" y2="12.3525" gradientUnits="userSpaceOnUse">
<stop stop-color="#FFF5BA"/>
<stop offset="1" stop-color="#DA6C37"/>
</linearGradient>
<linearGradient id="paint1_linear" x1="8.30133" y1="7.04345" x2="18.8365" y2="12.3525" gradientUnits="userSpaceOnUse">
<stop stop-color="#FFF5BA"/>
<stop offset="1" stop-color="#DA6C37"/>
</linearGradient>
<linearGradient id="paint2_linear" x1="7.95459" y1="29.2148" x2="8.16851" y2="32.3431" gradientUnits="userSpaceOnUse">
<stop stop-color="#FFF5BA"/>
<stop offset="1" stop-color="#DA6C37"/>
</linearGradient>
<linearGradient id="paint3_linear" x1="7.95459" y1="29.2148" x2="8.16851" y2="32.3431" gradientUnits="userSpaceOnUse">
<stop stop-color="#FFF5BA"/>
<stop offset="1" stop-color="#DA6C37"/>
</linearGradient>
<linearGradient id="paint4_linear" x1="7.95465" y1="23.9721" x2="8.16857" y2="27.1005" gradientUnits="userSpaceOnUse">
<stop stop-color="#FFF5BA"/>
<stop offset="1" stop-color="#DA6C37"/>
</linearGradient>
<linearGradient id="paint5_linear" x1="7.95465" y1="23.9721" x2="8.16857" y2="27.1005" gradientUnits="userSpaceOnUse">
<stop stop-color="#FFF5BA"/>
<stop offset="1" stop-color="#DA6C37"/>
</linearGradient>
<linearGradient id="paint6_linear" x1="7.95459" y1="34.4545" x2="8.21203" y2="37.5763" gradientUnits="userSpaceOnUse">
<stop stop-color="#FFF5BA"/>
<stop offset="1" stop-color="#DA6C37"/>
</linearGradient>
<linearGradient id="paint7_linear" x1="7.95459" y1="34.4545" x2="8.21203" y2="37.5763" gradientUnits="userSpaceOnUse">
<stop stop-color="#FFF5BA"/>
<stop offset="1" stop-color="#DA6C37"/>
</linearGradient>
<linearGradient id="paint8_linear" x1="0.752258" y1="3.56482" x2="54.087" y2="51.488" gradientUnits="userSpaceOnUse">
<stop stop-color="#FFF5BA"/>
<stop offset="1" stop-color="#DA6C37"/>
</linearGradient>
<linearGradient id="paint9_linear" x1="0.752258" y1="3.56482" x2="54.087" y2="51.488" gradientUnits="userSpaceOnUse">
<stop stop-color="#FFF5BA"/>
<stop offset="1" stop-color="#DA6C37"/>
</linearGradient>
<linearGradient id="paint10_linear" x1="7.95459" y1="39.6972" x2="8.59884" y2="42.7021" gradientUnits="userSpaceOnUse">
<stop stop-color="#FFF5BA"/>
<stop offset="1" stop-color="#DA6C37"/>
</linearGradient>
<linearGradient id="paint11_linear" x1="7.95459" y1="39.6972" x2="8.59884" y2="42.7021" gradientUnits="userSpaceOnUse">
<stop stop-color="#FFF5BA"/>
<stop offset="1" stop-color="#DA6C37"/>
</linearGradient>
</defs>
</svg>
