<svg width="55" height="55" viewBox="0 0 55 55" fill="none" xmlns="http://www.w3.org/2000/svg">
<path d="M49.6289 4.72656H44.5084V3.22266C44.5084 1.44568 43.0627 0 41.2858 0C39.5088 0 38.0631 1.44568 38.0631 3.22266V4.72656H20.0162V3.22266C20.0162 1.44568 18.5706 0 16.7936 0C15.0166 0 13.5709 1.44568 13.5709 3.22266V4.76631C13.4796 4.74106 13.3839 4.72656 13.2845 4.72656H9.00442C6.0428 4.72656 3.63333 7.13603 3.63333 10.0977V28.3951C3.63333 28.9884 4.11437 29.4694 4.70755 29.4694C5.30073 29.4694 5.78177 28.9884 5.78177 28.3951V15.791H44.5084C45.1016 15.791 45.5826 15.3101 45.5826 14.7168C45.5826 14.1235 45.1016 13.6426 44.5084 13.6426H5.78177V10.0977C5.78177 8.32068 7.22745 6.875 9.00442 6.875H13.2845C13.3839 6.875 13.4796 6.86039 13.5709 6.83525V8.21777C13.5709 9.99475 15.0166 11.4404 16.7936 11.4404C18.5706 11.4404 20.0162 9.99475 20.0162 8.21777V6.875H38.0631V8.21777C38.0631 9.99475 39.5088 11.4404 41.2858 11.4404C43.0627 11.4404 44.5084 9.99475 44.5084 8.21777V6.875H49.6289C51.4059 6.875 52.8516 8.32068 52.8516 10.0977V50.9173C52.8516 51.9838 51.9839 52.8516 50.9173 52.8516C49.8507 52.8516 48.9831 51.9838 48.9831 50.9173V48.1384C48.9831 47.5451 48.5021 47.0642 47.9089 47.0642H35.4134C34.8203 47.0642 34.3392 47.5451 34.3392 48.1384C34.3392 48.7317 34.8203 49.2126 35.4134 49.2126H46.8346V50.9173C46.8346 51.6167 47.0117 52.2755 47.3229 52.8516H4.08203C3.01587 52.8516 2.14844 51.9841 2.14844 50.918V49.2126H26.1921C26.7853 49.2126 27.2664 48.7317 27.2664 48.1384C27.2664 47.5451 26.7853 47.0642 26.1921 47.0642H15.459C17.3361 45.4476 18.528 43.0564 18.528 40.3906C18.528 35.5335 14.5765 31.582 9.71942 31.582C4.86234 31.582 0.91083 35.5335 0.91083 40.3906C0.91083 43.0564 2.10278 45.4476 3.97987 47.0642H1.07422C0.481035 47.0642 0 47.5451 0 48.1384V50.918C0 53.1688 1.83122 55 4.08203 55H50.9173C53.1685 55 55 53.1686 55 50.9173V10.0977C55 7.13603 52.5905 4.72656 49.6289 4.72656ZM17.8678 8.21777C17.8678 8.8101 17.3859 9.29199 16.7936 9.29199C16.2013 9.29199 15.7194 8.8101 15.7194 8.21777V3.22266C15.7194 2.63033 16.2013 2.14844 16.7936 2.14844C17.3859 2.14844 17.8678 2.63033 17.8678 3.22266V8.21777ZM42.36 8.21777C42.36 8.8101 41.8781 9.29199 41.2858 9.29199C40.6934 9.29199 40.2116 8.8101 40.2116 8.21777V3.22266C40.2116 2.63033 40.6934 2.14844 41.2858 2.14844C41.8781 2.14844 42.36 2.63033 42.36 3.22266V8.21777ZM3.05927 40.3906C3.05927 36.7182 6.04699 33.7305 9.71942 33.7305C13.3919 33.7305 16.3796 36.7182 16.3796 40.3906C16.3796 44.0631 13.3919 47.0508 9.71942 47.0508C6.04699 47.0508 3.05927 44.0631 3.05927 40.3906Z" fill="url(#paint0_linear)"/>
<path d="M50.3066 13.9573C50.1069 13.7575 49.8298 13.6426 49.5472 13.6426C49.2646 13.6426 48.9876 13.7575 48.7878 13.9573C48.588 14.1571 48.473 14.4343 48.473 14.7168C48.473 14.9993 48.5879 15.2765 48.7878 15.4763C48.9877 15.6761 49.2646 15.791 49.5472 15.791C49.8298 15.791 50.1069 15.6761 50.3066 15.4763C50.5064 15.2765 50.6215 14.9993 50.6215 14.7168C50.6215 14.4343 50.5065 14.1571 50.3066 13.9573Z" fill="url(#paint1_linear)"/>
<path d="M32.0814 47.3786C31.8818 47.1788 31.6046 47.0649 31.3221 47.0649C31.0396 47.0649 30.7624 47.1788 30.5626 47.3786C30.3628 47.5795 30.2479 47.8556 30.2479 48.1381C30.2479 48.4217 30.3627 48.6978 30.5626 48.8986C30.7624 49.0984 31.0396 49.2123 31.3221 49.2123C31.6046 49.2123 31.8818 49.0984 32.0814 48.8986C32.2813 48.6978 32.3963 48.4206 32.3963 48.1381C32.3963 47.8556 32.2814 47.5795 32.0814 47.3786Z" fill="url(#paint2_linear)"/>
<path d="M24.3036 32.6562C22.0528 32.6562 20.2216 34.4875 20.2216 36.7383C20.2216 38.9891 22.0528 40.8203 24.3036 40.8203C26.5545 40.8203 28.3857 38.9891 28.3857 36.7383C28.3857 34.4875 26.5545 32.6562 24.3036 32.6562ZM24.3036 38.6719C23.2375 38.6719 22.3701 37.8044 22.3701 36.7383C22.3701 35.6721 23.2375 34.8047 24.3036 34.8047C25.3698 34.8047 26.2372 35.6721 26.2372 36.7383C26.2372 37.8044 25.3698 38.6719 24.3036 38.6719Z" fill="url(#paint3_linear)"/>
<path d="M34.3297 32.6562C32.0788 32.6562 30.2476 34.4875 30.2476 36.7383C30.2476 38.9891 32.0788 40.8203 34.3297 40.8203C36.5805 40.8203 38.4117 38.9891 38.4117 36.7383C38.4117 34.4875 36.5805 32.6562 34.3297 32.6562ZM34.3297 38.6719C33.2635 38.6719 32.3961 37.8044 32.3961 36.7383C32.3961 35.6721 33.2635 34.8047 34.3297 34.8047C35.3958 34.8047 36.2632 35.6721 36.2632 36.7383C36.2632 37.8044 35.3958 38.6719 34.3297 38.6719Z" fill="url(#paint4_linear)"/>
<path d="M44.3558 32.6562C42.105 32.6562 40.2737 34.4875 40.2737 36.7383C40.2737 38.9891 42.105 40.8203 44.3558 40.8203C46.6066 40.8203 48.4378 38.9891 48.4378 36.7383C48.4378 34.4875 46.6066 32.6562 44.3558 32.6562ZM44.3558 38.6719C43.2896 38.6719 42.4222 37.8044 42.4222 36.7383C42.4222 35.6721 43.2896 34.8047 44.3558 34.8047C45.4219 34.8047 46.2894 35.6721 46.2894 36.7383C46.2894 37.8044 45.4219 38.6719 44.3558 38.6719Z" fill="url(#paint5_linear)"/>
<path d="M14.2776 21.4844C12.0268 21.4844 10.1956 23.3156 10.1956 25.5664C10.1956 27.8172 12.0268 29.6484 14.2776 29.6484C16.5285 29.6484 18.3597 27.8172 18.3597 25.5664C18.3597 23.3156 16.5285 21.4844 14.2776 21.4844ZM14.2776 27.5C13.2115 27.5 12.3441 26.6326 12.3441 25.5664C12.3441 24.5002 13.2115 23.6328 14.2776 23.6328C15.3438 23.6328 16.2112 24.5002 16.2112 25.5664C16.2112 26.6326 15.3438 27.5 14.2776 27.5Z" fill="url(#paint6_linear)"/>
<path d="M34.3297 21.4844C32.0788 21.4844 30.2476 23.3156 30.2476 25.5664C30.2476 27.8172 32.0788 29.6484 34.3297 29.6484C36.5805 29.6484 38.4117 27.8172 38.4117 25.5664C38.4117 23.3156 36.5805 21.4844 34.3297 21.4844ZM34.3297 27.5C33.2635 27.5 32.3961 26.6326 32.3961 25.5664C32.3961 24.5002 33.2635 23.6328 34.3297 23.6328C35.3958 23.6328 36.2632 24.5002 36.2632 25.5664C36.2632 26.6326 35.3958 27.5 34.3297 27.5Z" fill="url(#paint7_linear)"/>
<path d="M44.3558 21.4844C42.105 21.4844 40.2737 23.3156 40.2737 25.5664C40.2737 27.8172 42.105 29.6484 44.3558 29.6484C46.6066 29.6484 48.4378 27.8172 48.4378 25.5664C48.4378 23.3156 46.6066 21.4844 44.3558 21.4844ZM44.3558 27.5C43.2896 27.5 42.4222 26.6326 42.4222 25.5664C42.4222 24.5002 43.2896 23.6328 44.3558 23.6328C45.4219 23.6328 46.2894 24.5002 46.2894 25.5664C46.2894 26.6326 45.4219 27.5 44.3558 27.5Z" fill="url(#paint8_linear)"/>
<path d="M24.3036 21.4844C22.0528 21.4844 20.2216 23.3156 20.2216 25.5664C20.2216 27.8172 22.0528 29.6484 24.3036 29.6484C26.5545 29.6484 28.3857 27.8172 28.3857 25.5664C28.3857 23.3156 26.5545 21.4844 24.3036 21.4844ZM24.3036 27.5C23.2375 27.5 22.3701 26.6326 22.3701 25.5664C22.3701 24.5002 23.2375 23.6328 24.3036 23.6328C25.3698 23.6328 26.2372 24.5002 26.2372 25.5664C26.2372 26.6326 25.3698 27.5 24.3036 27.5Z" fill="url(#paint9_linear)"/>
<path d="M13.5463 37.7726C13.1267 37.3531 12.4468 37.3531 12.0271 37.7726L8.52876 41.271L7.33327 40.0755C6.91368 39.656 6.2337 39.656 5.814 40.0755C5.39452 40.495 5.39452 41.1752 5.814 41.5948L7.76918 43.5498C7.97071 43.7512 8.24388 43.8644 8.52876 43.8644C8.81365 43.8644 9.08682 43.7512 9.28834 43.5498L13.5463 39.2918C13.9658 38.8723 13.9658 38.1921 13.5463 37.7726Z" fill="url(#paint10_linear)"/>
<defs>
<linearGradient id="paint0_linear" x1="-1.03921e-07" y1="3.56481" x2="53.4722" y2="52.963" gradientUnits="userSpaceOnUse">
<stop stop-color="#FFF5BA"/>
<stop offset="1" stop-color="#DA6C37"/>
</linearGradient>
<linearGradient id="paint1_linear" x1="48.473" y1="13.7818" x2="50.5618" y2="15.7114" gradientUnits="userSpaceOnUse">
<stop stop-color="#FFF5BA"/>
<stop offset="1" stop-color="#DA6C37"/>
</linearGradient>
<linearGradient id="paint2_linear" x1="30.2479" y1="47.2041" x2="32.3357" y2="49.1338" gradientUnits="userSpaceOnUse">
<stop stop-color="#FFF5BA"/>
<stop offset="1" stop-color="#DA6C37"/>
</linearGradient>
<linearGradient id="paint3_linear" x1="20.2216" y1="33.1854" x2="28.1589" y2="40.5179" gradientUnits="userSpaceOnUse">
<stop stop-color="#FFF5BA"/>
<stop offset="1" stop-color="#DA6C37"/>
</linearGradient>
<linearGradient id="paint4_linear" x1="30.2476" y1="33.1854" x2="38.1849" y2="40.5179" gradientUnits="userSpaceOnUse">
<stop stop-color="#FFF5BA"/>
<stop offset="1" stop-color="#DA6C37"/>
</linearGradient>
<linearGradient id="paint5_linear" x1="40.2737" y1="33.1854" x2="48.211" y2="40.5179" gradientUnits="userSpaceOnUse">
<stop stop-color="#FFF5BA"/>
<stop offset="1" stop-color="#DA6C37"/>
</linearGradient>
<linearGradient id="paint6_linear" x1="10.1956" y1="22.0135" x2="18.1329" y2="29.3461" gradientUnits="userSpaceOnUse">
<stop stop-color="#FFF5BA"/>
<stop offset="1" stop-color="#DA6C37"/>
</linearGradient>
<linearGradient id="paint7_linear" x1="30.2476" y1="22.0135" x2="38.1849" y2="29.3461" gradientUnits="userSpaceOnUse">
<stop stop-color="#FFF5BA"/>
<stop offset="1" stop-color="#DA6C37"/>
</linearGradient>
<linearGradient id="paint8_linear" x1="40.2737" y1="22.0135" x2="48.211" y2="29.3461" gradientUnits="userSpaceOnUse">
<stop stop-color="#FFF5BA"/>
<stop offset="1" stop-color="#DA6C37"/>
</linearGradient>
<linearGradient id="paint9_linear" x1="20.2216" y1="22.0135" x2="28.1589" y2="29.3461" gradientUnits="userSpaceOnUse">
<stop stop-color="#FFF5BA"/>
<stop offset="1" stop-color="#DA6C37"/>
</linearGradient>
<linearGradient id="paint10_linear" x1="5.49939" y1="37.8732" x2="11.6396" y2="45.2768" gradientUnits="userSpaceOnUse">
<stop stop-color="#FFF5BA"/>
<stop offset="1" stop-color="#DA6C37"/>
</linearGradient>
</defs>
</svg>
