<svg width="55" height="55" viewBox="0 0 55 55" fill="none" xmlns="http://www.w3.org/2000/svg">
<path d="M27.0501 15.4688C26.4442 15.4692 25.8578 15.6828 25.3936 16.0721L20.9926 19.7656H18.046C16.9068 19.767 15.8147 20.2201 15.0091 21.0256C14.2036 21.8312 13.7505 22.9233 13.7491 24.0625V25.7812C13.7491 26.0092 13.8397 26.2278 14.0009 26.3889C14.162 26.5501 14.3806 26.6406 14.6085 26.6406H17.3278C17.564 26.9831 17.8799 27.2631 18.2483 27.4565C18.6166 27.6499 19.0265 27.7509 19.4425 27.7509C19.8586 27.7509 20.2684 27.6499 20.6367 27.4565C21.0051 27.2631 21.321 26.9831 21.5572 26.6406H34.0856C34.3218 26.9831 34.6377 27.2631 35.0061 27.4565C35.3744 27.6499 35.7843 27.7509 36.2003 27.7509C36.6164 27.7509 37.0262 27.6499 37.3946 27.4565C37.7629 27.2631 38.0788 26.9831 38.315 26.6406H39.4616C39.6506 26.6407 39.8343 26.5785 39.9843 26.4637C40.1343 26.3488 40.2423 26.1877 40.2916 26.0053L41.2198 22.5678C41.2743 22.3643 41.2525 22.1479 41.1585 21.9594L40.2991 20.2406C40.2947 20.2318 40.2874 20.2254 40.2827 20.2167C40.2376 20.1468 40.1873 20.0804 40.1323 20.0181C40.1236 20.0094 40.1185 19.9981 40.1094 19.9897L35.862 16.1175C35.3904 15.6994 34.782 15.4686 34.1518 15.4688H27.0501ZM26.4971 17.3889C26.6521 17.259 26.8479 17.1877 27.0501 17.1875H30.9366V19.7656H23.6656L26.4971 17.3889ZM15.4679 24.0625C15.4687 23.379 15.7405 22.7237 16.2239 22.2403C16.7072 21.757 17.3625 21.4851 18.046 21.4844H23.2023V24.9219H21.9953C21.9364 24.2856 21.642 23.6942 21.1698 23.2636C20.6976 22.8331 20.0816 22.5944 19.4426 22.5944C18.8035 22.5944 18.1875 22.8331 17.7153 23.2636C17.2431 23.6942 16.9487 24.2856 16.8898 24.9219H15.4679V24.0625ZM19.4425 26.0322C19.2725 26.0322 19.1064 25.9818 18.9651 25.8874C18.8237 25.7929 18.7136 25.6587 18.6485 25.5017C18.5835 25.3447 18.5665 25.1719 18.5996 25.0052C18.6328 24.8385 18.7146 24.6853 18.8348 24.5651C18.955 24.445 19.1081 24.3631 19.2748 24.3299C19.4416 24.2968 19.6143 24.3138 19.7714 24.3789C19.9284 24.4439 20.0626 24.554 20.157 24.6954C20.2515 24.8367 20.3019 25.0028 20.3019 25.1728C20.3017 25.4007 20.2112 25.6192 20.05 25.7803C19.8889 25.9415 19.6704 26.032 19.4425 26.0322ZM24.921 24.9219V21.4844H30.9366V22.8473L28.8621 24.9219H24.921ZM36.2003 26.0322C36.0303 26.0322 35.8642 25.9818 35.7229 25.8874C35.5815 25.7929 35.4714 25.6587 35.4064 25.5017C35.3413 25.3447 35.3243 25.1719 35.3575 25.0052C35.3906 24.8385 35.4725 24.6853 35.5926 24.5651C35.7128 24.445 35.866 24.3631 36.0327 24.3299C36.1994 24.2968 36.3722 24.3138 36.5292 24.3789C36.6862 24.4439 36.8204 24.554 36.9149 24.6954C37.0093 24.8367 37.0597 25.0028 37.0597 25.1728C37.0595 25.4007 36.969 25.6192 36.8078 25.7803C36.6467 25.9415 36.4282 26.032 36.2003 26.0322V26.0322ZM38.8037 24.9219H38.7531C38.6942 24.2856 38.3998 23.6942 37.9276 23.2636C37.4554 22.8331 36.8394 22.5944 36.2004 22.5944C35.5613 22.5944 34.9454 22.8331 34.4731 23.2636C34.0009 23.6942 33.7065 24.2856 33.6476 24.9219H31.2925L32.4036 23.8107C32.4834 23.7309 32.5468 23.6362 32.59 23.532C32.6332 23.4277 32.6554 23.316 32.6554 23.2031V21.4844H38.9992L39.4751 22.4353L38.8037 24.9219ZM37.3123 19.7656H32.6554V17.1875H34.1518C34.3578 17.1864 34.5571 17.2604 34.7124 17.3957L37.3123 19.7656Z" fill="url(#paint0_linear)"/>
<path d="M47.5148 7.77136L27.7492 1.75573C27.586 1.70707 27.4122 1.70707 27.249 1.75573L7.48339 7.77136C7.30716 7.82514 7.15285 7.93407 7.04316 8.08212C6.93348 8.23017 6.87421 8.40953 6.87409 8.59378V15.9337C6.86101 23.3252 8.69859 30.6023 12.2192 37.1015C15.7399 43.6006 20.8316 49.115 27.03 53.1416C27.1695 53.2326 27.3325 53.281 27.4991 53.281C27.6657 53.281 27.8286 53.2326 27.9682 53.1416C34.1666 49.115 39.2583 43.6006 42.779 37.1015C46.2996 30.6023 48.1372 23.3252 48.1241 15.9337V8.59378C48.124 8.40953 48.0647 8.23017 47.955 8.08212C47.8453 7.93407 47.691 7.82514 47.5148 7.77136V7.77136ZM46.4053 15.9337C46.4181 22.9439 44.699 29.8487 41.4007 36.0345C38.1024 42.2203 33.3271 47.4955 27.4991 51.3913C21.6711 47.4954 16.8958 42.2202 13.5975 36.0344C10.2992 29.8487 8.58006 22.9439 8.59284 15.9337V9.23079L27.4991 3.47609L46.4053 9.23079V15.9337Z" fill="url(#paint1_linear)"/>
<path d="M27.2801 6.04414L10.952 10.341C10.7685 10.3894 10.6062 10.4971 10.4904 10.6474C10.3746 10.7977 10.3117 10.9821 10.3117 11.1718V16.5152C10.2973 21.7475 11.3209 26.9308 13.3233 31.7648C15.3257 36.5989 18.267 40.9877 21.977 44.6773L26.8916 49.5919C27.0527 49.753 27.2713 49.8435 27.4992 49.8435C27.727 49.8435 27.9456 49.753 28.1068 49.5919L33.0213 44.6773C36.7314 40.9878 39.6728 36.5989 41.6751 31.7648C43.6775 26.9308 44.7011 21.7475 44.6867 16.5152V11.1718C44.6866 10.9821 44.6238 10.7977 44.508 10.6474C44.3921 10.4971 44.2298 10.3894 44.0463 10.341L27.7182 6.04414C27.5747 6.00547 27.4236 6.00547 27.2801 6.04414V6.04414ZM42.9679 16.5152C42.9816 21.5217 42.0022 26.4813 40.0862 31.1067C38.1703 35.7322 35.356 39.9317 31.8061 43.4622L28.3585 46.9098V33.0859H26.6398V46.9098L23.1924 43.4622C19.6425 39.9317 16.8282 35.7322 14.9122 31.1068C12.9963 26.4813 12.0168 21.5218 12.0304 16.5152V11.834L26.6398 7.98977V13.7499H28.3585V7.98977L42.9679 11.834V16.5152Z" fill="url(#paint2_linear)"/>
<path d="M13.7491 12.8906H15.4679V14.6094H13.7491V12.8906Z" fill="url(#paint3_linear)"/>
<path d="M17.1866 12.8906H18.9054V14.6094H17.1866V12.8906Z" fill="url(#paint4_linear)"/>
<path d="M13.7491 16.3281H15.4679V18.0469H13.7491V16.3281Z" fill="url(#paint5_linear)"/>
<path d="M31.796 36.9531H33.5148V38.6719H31.796V36.9531Z" fill="url(#paint6_linear)"/>
<path d="M33.5148 33.5156H35.2335V35.2344H33.5148V33.5156Z" fill="url(#paint7_linear)"/>
<path d="M18.046 29.2188H22.3429V30.9375H18.046V29.2188Z" fill="url(#paint8_linear)"/>
<path d="M24.0616 29.2188H31.796V30.9375H24.0616V29.2188Z" fill="url(#paint9_linear)"/>
<path d="M33.5148 29.2188H37.8116V30.9375H33.5148V29.2188Z" fill="url(#paint10_linear)"/>
<defs>
<linearGradient id="paint0_linear" x1="13.7491" y1="16.2648" x2="23.1371" y2="35.6832" gradientUnits="userSpaceOnUse">
<stop stop-color="#FFF5BA"/>
<stop offset="1" stop-color="#DA6C37"/>
</linearGradient>
<linearGradient id="paint1_linear" x1="6.87402" y1="5.0612" x2="54.9465" y2="40.5897" gradientUnits="userSpaceOnUse">
<stop stop-color="#FFF5BA"/>
<stop offset="1" stop-color="#DA6C37"/>
</linearGradient>
<linearGradient id="paint2_linear" x1="10.3115" y1="8.85586" x2="50.9298" y2="38.2862" gradientUnits="userSpaceOnUse">
<stop stop-color="#FFF5BA"/>
<stop offset="1" stop-color="#DA6C37"/>
</linearGradient>
<linearGradient id="paint3_linear" x1="13.7491" y1="13.002" x2="15.4202" y2="14.5457" gradientUnits="userSpaceOnUse">
<stop stop-color="#FFF5BA"/>
<stop offset="1" stop-color="#DA6C37"/>
</linearGradient>
<linearGradient id="paint4_linear" x1="17.1866" y1="13.002" x2="18.8577" y2="14.5457" gradientUnits="userSpaceOnUse">
<stop stop-color="#FFF5BA"/>
<stop offset="1" stop-color="#DA6C37"/>
</linearGradient>
<linearGradient id="paint5_linear" x1="13.7491" y1="16.4395" x2="15.4202" y2="17.9832" gradientUnits="userSpaceOnUse">
<stop stop-color="#FFF5BA"/>
<stop offset="1" stop-color="#DA6C37"/>
</linearGradient>
<linearGradient id="paint6_linear" x1="31.796" y1="37.0645" x2="33.467" y2="38.6082" gradientUnits="userSpaceOnUse">
<stop stop-color="#FFF5BA"/>
<stop offset="1" stop-color="#DA6C37"/>
</linearGradient>
<linearGradient id="paint7_linear" x1="33.5148" y1="33.627" x2="35.1858" y2="35.1707" gradientUnits="userSpaceOnUse">
<stop stop-color="#FFF5BA"/>
<stop offset="1" stop-color="#DA6C37"/>
</linearGradient>
<linearGradient id="paint8_linear" x1="18.046" y1="29.3302" x2="19.2684" y2="32.1534" gradientUnits="userSpaceOnUse">
<stop stop-color="#FFF5BA"/>
<stop offset="1" stop-color="#DA6C37"/>
</linearGradient>
<linearGradient id="paint9_linear" x1="24.0616" y1="29.3302" x2="24.824" y2="32.4993" gradientUnits="userSpaceOnUse">
<stop stop-color="#FFF5BA"/>
<stop offset="1" stop-color="#DA6C37"/>
</linearGradient>
<linearGradient id="paint10_linear" x1="33.5148" y1="29.3302" x2="34.7372" y2="32.1534" gradientUnits="userSpaceOnUse">
<stop stop-color="#FFF5BA"/>
<stop offset="1" stop-color="#DA6C37"/>
</linearGradient>
</defs>
</svg>
