<svg width="45" height="55" viewBox="0 0 45 55" fill="none" xmlns="http://www.w3.org/2000/svg">
<path d="M7.15064 4.31331C7.1512 3.84044 7.3393 3.3871 7.67367 3.05273C8.00804 2.71836 8.46138 2.53026 8.93425 2.5297H35.6884C36.1612 2.53026 36.6146 2.71836 36.949 3.05273C37.2833 3.3871 37.4714 3.84044 37.472 4.31331V12.3396H39.2556V4.31331C39.2545 3.36755 38.8784 2.46083 38.2096 1.79208C37.5409 1.12333 36.6341 0.747156 35.6884 0.746094H8.93425C7.98849 0.747156 7.08177 1.12333 6.41302 1.79208C5.74427 2.46083 5.3681 3.36755 5.36703 4.31331V6.98872H7.15064V4.31331Z" fill="url(#paint0_linear)"/>
<path d="M37.472 50.6869C37.4714 51.1598 37.2833 51.6132 36.949 51.9475C36.6146 52.2819 36.1612 52.47 35.6884 52.4706H8.93425C8.46138 52.47 8.00804 52.2819 7.67367 51.9475C7.3393 51.6132 7.1512 51.1598 7.15064 50.6869V23.041H5.36703V50.6869C5.3681 51.6327 5.74427 52.5394 6.41302 53.2082C7.08177 53.8769 7.98849 54.2531 8.93425 54.2542H35.6884C36.6341 54.2531 37.5409 53.8769 38.2096 53.2082C38.8784 52.5394 39.2545 51.6327 39.2556 50.6869V28.3918H37.472V50.6869Z" fill="url(#paint1_linear)"/>
<path d="M19.6359 4.31348H21.4195V6.09708H19.6359V4.31348Z" fill="url(#paint2_linear)"/>
<path d="M23.2031 4.31348H24.9867V6.09708H23.2031V4.31348Z" fill="url(#paint3_linear)"/>
<path d="M21.4195 48.9033H23.2031V50.6869H21.4195V48.9033Z" fill="url(#paint4_linear)"/>
<path d="M10.979 22.7801C11.0619 22.863 11.1602 22.9287 11.2684 22.9735C11.3766 23.0183 11.4925 23.0414 11.6097 23.0414C11.7268 23.0414 11.8427 23.0183 11.9509 22.9735C12.0592 22.9287 12.1575 22.863 12.2403 22.7801L13.7626 21.2577H16.0687V19.4741H13.3933C13.2762 19.4741 13.1602 19.4972 13.052 19.542C12.9438 19.5868 12.8455 19.6525 12.7627 19.7353L11.6097 20.8884L10.4567 19.7353C10.3739 19.6525 10.2755 19.5868 10.1673 19.542C10.0591 19.4972 9.94317 19.4741 9.82605 19.4741H1.79981V10.5561H24.9867V12.3397H26.7703V9.66427C26.7703 9.42774 26.6764 9.20091 26.5091 9.03366C26.3419 8.86642 26.115 8.77246 25.8785 8.77246H0.908009C0.671488 8.77246 0.444654 8.86642 0.277408 9.03366C0.110163 9.20091 0.0162048 9.42774 0.0162048 9.66427V20.3659C0.0162048 20.6024 0.110163 20.8293 0.277408 20.9965C0.444654 21.1638 0.671488 21.2577 0.908009 21.2577H9.45673L10.979 22.7801Z" fill="url(#paint5_linear)"/>
<path d="M43.7146 14.123H18.7441C18.5076 14.123 18.2807 14.217 18.1135 14.3842C17.9463 14.5515 17.8523 14.7783 17.8523 15.0149V25.7165C17.8523 25.953 17.9463 26.1799 18.1135 26.3471C18.2807 26.5144 18.5076 26.6083 18.7441 26.6083H29.9682L31.4905 28.1307C31.5734 28.2135 31.6717 28.2792 31.7799 28.3241C31.8881 28.3689 32.004 28.392 32.1212 28.392C32.2383 28.392 32.3543 28.3689 32.4625 28.3241C32.5707 28.2792 32.669 28.2135 32.7518 28.1307L34.2741 26.6083H43.7146C43.9511 26.6083 44.178 26.5144 44.3452 26.3471C44.5125 26.1799 44.6064 25.953 44.6064 25.7165V15.0149C44.6064 14.7783 44.5125 14.5515 44.3452 14.3842C44.178 14.217 43.9511 14.123 43.7146 14.123ZM42.8228 24.8247H33.9048C33.7877 24.8247 33.6717 24.8478 33.5635 24.8926C33.4553 24.9374 33.357 25.0031 33.2742 25.0859L32.1212 26.239L30.9682 25.0859C30.8854 25.0031 30.787 24.9374 30.6788 24.8926C30.5706 24.8478 30.4547 24.8247 30.3376 24.8247H19.6359V15.9067H42.8228V24.8247Z" fill="url(#paint6_linear)"/>
<path d="M23.2031 17.6904H24.9867V19.474H23.2031V17.6904Z" fill="url(#paint7_linear)"/>
<path d="M26.7703 17.6904H41.0392V19.474H26.7703V17.6904Z" fill="url(#paint8_linear)"/>
<path d="M21.4195 21.2578H41.0392V23.0414H21.4195V21.2578Z" fill="url(#paint9_linear)"/>
<path d="M5.36703 12.3394H7.15064V14.123H5.36703V12.3394Z" fill="url(#paint10_linear)"/>
<path d="M8.93427 12.3394H16.0687V14.123H8.93427V12.3394Z" fill="url(#paint11_linear)"/>
<path d="M3.58344 15.9067H16.0687V17.6903H3.58344V15.9067Z" fill="url(#paint12_linear)"/>
<path d="M28.5539 43.5528V42.661H29.4457C30.1551 42.6602 30.8351 42.3781 31.3366 41.8765C31.8382 41.375 32.1203 40.6949 32.1212 39.9856V38.202C32.1203 37.4927 31.8382 36.8127 31.3366 36.3111C30.8351 35.8096 30.1551 35.5274 29.4457 35.5266H28.4892C28.2746 34.041 27.5319 32.6824 26.3972 31.6998C25.2625 30.7171 23.8117 30.1763 22.3106 30.1763C20.8096 30.1763 19.3588 30.7171 18.2241 31.6998C17.0893 32.6824 16.3467 34.041 16.1321 35.5266H15.1769C14.4676 35.5274 13.7875 35.8096 13.286 36.3111C12.7844 36.8127 12.5023 37.4927 12.5015 38.202V39.9856C12.5023 40.6949 12.7844 41.375 13.286 41.8765C13.7875 42.3781 14.4676 42.6602 15.1769 42.661H16.9605C17.197 42.661 17.4238 42.5671 17.5911 42.3998C17.7583 42.2326 17.8523 42.0058 17.8523 41.7692V36.4184C17.8523 35.2358 18.3221 34.1016 19.1583 33.2654C19.9945 32.4292 21.1287 31.9594 22.3113 31.9594C23.4939 31.9594 24.6281 32.4292 25.4643 33.2654C26.3005 34.1016 26.7703 35.2358 26.7703 36.4184V43.5528C26.7701 43.7893 26.676 44.016 26.5088 44.1832C26.3417 44.3503 26.115 44.4444 25.8785 44.4447H22.3113V46.2283H25.8785C26.5878 46.2274 27.2679 45.9453 27.7694 45.4437C28.271 44.9422 28.5531 44.2622 28.5539 43.5528ZM16.0687 40.8774H15.1769C14.9404 40.8772 14.7138 40.7831 14.5466 40.6159C14.3794 40.4488 14.2853 40.2221 14.2851 39.9856V38.202C14.2853 37.9656 14.3794 37.7389 14.5466 37.5717C14.7138 37.4045 14.9404 37.3105 15.1769 37.3102H16.0687V40.8774ZM30.3376 38.202V39.9856C30.3373 40.2221 30.2432 40.4488 30.0761 40.6159C29.9089 40.7831 29.6822 40.8772 29.4457 40.8774H28.5539V37.3102H29.4457C29.6822 37.3105 29.9089 37.4045 30.0761 37.5717C30.2432 37.7389 30.3373 37.9656 30.3376 38.202Z" fill="url(#paint13_linear)"/>
<defs>
<linearGradient id="paint0_linear" x1="5.36703" y1="1.49752" x2="12.7314" y2="21.384" gradientUnits="userSpaceOnUse">
<stop stop-color="#FFF5BA"/>
<stop offset="1" stop-color="#DA6C37"/>
</linearGradient>
<linearGradient id="paint1_linear" x1="5.36703" y1="25.0641" x2="35.8084" y2="55.5965" gradientUnits="userSpaceOnUse">
<stop stop-color="#FFF5BA"/>
<stop offset="1" stop-color="#DA6C37"/>
</linearGradient>
<linearGradient id="paint2_linear" x1="19.6359" y1="4.42908" x2="21.37" y2="6.03103" gradientUnits="userSpaceOnUse">
<stop stop-color="#FFF5BA"/>
<stop offset="1" stop-color="#DA6C37"/>
</linearGradient>
<linearGradient id="paint3_linear" x1="23.2031" y1="4.42908" x2="24.9372" y2="6.03102" gradientUnits="userSpaceOnUse">
<stop stop-color="#FFF5BA"/>
<stop offset="1" stop-color="#DA6C37"/>
</linearGradient>
<linearGradient id="paint4_linear" x1="21.4195" y1="49.0189" x2="23.1536" y2="50.6209" gradientUnits="userSpaceOnUse">
<stop stop-color="#FFF5BA"/>
<stop offset="1" stop-color="#DA6C37"/>
</linearGradient>
<linearGradient id="paint5_linear" x1="0.0162048" y1="9.6973" x2="12.0676" y2="30.572" gradientUnits="userSpaceOnUse">
<stop stop-color="#FFF5BA"/>
<stop offset="1" stop-color="#DA6C37"/>
</linearGradient>
<linearGradient id="paint6_linear" x1="17.8523" y1="15.0479" x2="29.9037" y2="35.9226" gradientUnits="userSpaceOnUse">
<stop stop-color="#FFF5BA"/>
<stop offset="1" stop-color="#DA6C37"/>
</linearGradient>
<linearGradient id="paint7_linear" x1="23.2031" y1="17.806" x2="24.9372" y2="19.408" gradientUnits="userSpaceOnUse">
<stop stop-color="#FFF5BA"/>
<stop offset="1" stop-color="#DA6C37"/>
</linearGradient>
<linearGradient id="paint8_linear" x1="26.7703" y1="17.806" x2="27.2326" y2="21.2225" gradientUnits="userSpaceOnUse">
<stop stop-color="#FFF5BA"/>
<stop offset="1" stop-color="#DA6C37"/>
</linearGradient>
<linearGradient id="paint9_linear" x1="21.4195" y1="21.3734" x2="21.7586" y2="24.8191" gradientUnits="userSpaceOnUse">
<stop stop-color="#FFF5BA"/>
<stop offset="1" stop-color="#DA6C37"/>
</linearGradient>
<linearGradient id="paint10_linear" x1="5.36703" y1="12.455" x2="7.1011" y2="14.0569" gradientUnits="userSpaceOnUse">
<stop stop-color="#FFF5BA"/>
<stop offset="1" stop-color="#DA6C37"/>
</linearGradient>
<linearGradient id="paint11_linear" x1="8.93427" y1="12.455" x2="9.81151" y2="15.6966" gradientUnits="userSpaceOnUse">
<stop stop-color="#FFF5BA"/>
<stop offset="1" stop-color="#DA6C37"/>
</linearGradient>
<linearGradient id="paint12_linear" x1="3.58344" y1="16.0223" x2="4.10886" y2="19.4201" gradientUnits="userSpaceOnUse">
<stop stop-color="#FFF5BA"/>
<stop offset="1" stop-color="#DA6C37"/>
</linearGradient>
<linearGradient id="paint13_linear" x1="12.5015" y1="31.2167" x2="28.0418" y2="48.7639" gradientUnits="userSpaceOnUse">
<stop stop-color="#FFF5BA"/>
<stop offset="1" stop-color="#DA6C37"/>
</linearGradient>
</defs>
</svg>
