<svg width="35" height="35" viewBox="0 0 35 35" fill="none" xmlns="http://www.w3.org/2000/svg">
<path d="M18.4532 22.1603C19.0604 22.113 19.614 21.8033 19.9733 21.3092L25.4351 13.7585C25.6025 13.527 25.5774 13.2073 25.3744 13.0043C25.1714 12.8019 24.8518 12.7768 24.6202 12.9436L17.0683 18.4071C16.576 18.7653 16.2663 19.3189 16.219 19.9261C16.1718 20.5334 16.3917 21.1278 16.8216 21.5577C17.213 21.9497 17.7409 22.1667 18.2898 22.1667C18.3441 22.1667 18.3983 22.1644 18.4532 22.1603ZM17.3822 20.0171C17.4026 19.7505 17.5391 19.5073 17.7538 19.351L22.3603 16.0184L19.0289 20.6238C18.8714 20.8402 18.6282 20.9761 18.3616 20.9971C18.0962 21.0146 17.8354 20.9225 17.6458 20.7329C17.458 20.5445 17.3612 20.2831 17.3822 20.0171Z" fill="url(#paint0_linear)"/>
<path d="M31.5198 11.4123C31.514 11.4001 31.514 11.3872 31.5076 11.375C31.5006 11.3633 31.4895 11.3569 31.4819 11.3458C30.8922 10.3343 30.1945 9.39342 29.4023 8.54058L30.6553 7.28817L31.4802 8.113L33.9547 5.63792L31.4802 3.16342L29.0051 5.63792L29.8305 6.46333L28.5775 7.71575C27.7247 6.92358 26.7843 6.22533 25.7722 5.63558C25.7612 5.628 25.7547 5.61692 25.7431 5.60992C25.7308 5.60292 25.718 5.6035 25.7057 5.59708C23.9015 4.55758 21.8744 3.86517 19.7132 3.61142V2.91667H20.5882C21.3926 2.91667 22.0465 2.26275 22.0465 1.45833C22.0465 0.653917 21.392 0 20.5876 0H15.3376C14.5332 0 13.8792 0.653917 13.8792 1.45833C13.8792 2.26275 14.5332 2.91667 15.3376 2.91667H16.2126V3.591C15.5826 3.65808 14.9537 3.76075 14.3319 3.90308C14.0181 3.97483 13.8215 4.28808 13.8938 4.60192C13.9656 4.91575 14.2788 5.11292 14.5927 5.04C15.1293 4.91692 15.6712 4.82417 16.2143 4.76175L16.8402 4.71333C17.0316 4.69875 17.2077 4.68825 17.3792 4.68008V5.83333C17.3792 6.15592 17.64 6.41667 17.9626 6.41667C18.2852 6.41667 18.5459 6.15592 18.5459 5.83333V4.68417C20.7398 4.78508 22.8072 5.37425 24.6452 6.34375L24.0701 7.3395C23.9091 7.61892 24.0047 7.97533 24.2836 8.13633C24.3752 8.18942 24.4755 8.2145 24.5747 8.2145C24.7765 8.2145 24.9725 8.11008 25.0804 7.92283L25.6538 6.92942C27.4791 8.08733 29.0296 9.63783 30.1875 11.4631L29.1941 12.0365C28.9158 12.1975 28.8202 12.5539 28.9817 12.8333C29.0902 13.0206 29.2857 13.125 29.4875 13.125C29.5867 13.125 29.687 13.0999 29.7786 13.0468L30.7743 12.4717C31.7572 14.336 32.3482 16.4372 32.4362 18.6661H31.2842C30.9616 18.6661 30.7008 18.9268 30.7008 19.2494C30.7008 19.572 30.9616 19.8328 31.2842 19.8328H32.4362C32.3482 22.0617 31.7572 24.1628 30.7743 26.0272L29.7786 25.452C29.4997 25.291 29.1427 25.3855 28.9817 25.6655C28.8207 25.9449 28.9164 26.3013 29.1952 26.4623L30.1887 27.0357C29.0307 28.861 27.4802 30.4115 25.655 31.5694L25.0816 30.576C24.92 30.296 24.5624 30.2009 24.2847 30.3625C24.0053 30.5235 23.9097 30.8805 24.0712 31.1593L24.6464 32.1551C22.8083 33.1246 20.741 33.7137 18.5471 33.8147V32.6667C18.5471 32.3441 18.2863 32.0833 17.9637 32.0833C17.6412 32.0833 17.3804 32.3441 17.3804 32.6667V33.8193C16.4488 33.7873 15.5143 33.6706 14.5944 33.4594C14.2806 33.3842 13.9673 33.5837 13.8956 33.8975C13.8232 34.2113 14.0198 34.5246 14.3337 34.5963C15.498 34.8647 16.6874 35 17.8675 35C17.8961 35 17.9235 34.9982 17.9521 34.9977C17.9562 34.9977 17.9591 35 17.9626 35C17.9672 35 17.9713 34.9971 17.976 34.9971C20.7801 34.9778 23.4109 34.2207 25.6871 32.9128C25.7052 32.9047 25.7244 32.9006 25.7419 32.8901C25.7536 32.8831 25.76 32.872 25.7711 32.8644C28.1272 31.4912 30.0959 29.5248 31.472 27.1705C31.4831 27.1547 31.4971 27.1425 31.507 27.125C31.514 27.1127 31.5134 27.0999 31.5192 27.0877C32.8516 24.7777 33.6175 22.1025 33.6175 19.25C33.6175 16.3975 32.8516 13.7223 31.5198 11.4123ZM31.4796 4.81308L32.3044 5.63792L31.4796 6.46333L30.6542 5.63792L31.4796 4.81308ZM17.3792 3.51225V1.75H15.3376C15.1772 1.75 15.0459 1.61875 15.0459 1.45833C15.0459 1.29792 15.1772 1.16667 15.3376 1.16667H20.5876C20.748 1.16667 20.8792 1.29792 20.8792 1.45833C20.8792 1.61875 20.748 1.75 20.5876 1.75H18.5459V3.51225C18.3429 3.50408 18.1492 3.5 17.9626 3.5C17.9462 3.5 17.9276 3.50117 17.9112 3.50117C17.8967 3.50117 17.8821 3.5 17.8675 3.5C17.7718 3.5 17.6762 3.50642 17.5805 3.50817C17.5128 3.50992 17.4492 3.50933 17.3792 3.51225Z" fill="url(#paint1_linear)"/>
<path d="M12.7126 8.16663H9.79592C9.47333 8.16663 9.21259 8.42738 9.21259 8.74996C9.21259 9.07254 9.47333 9.33329 9.79592 9.33329H12.7126C13.0352 9.33329 13.2959 9.07254 13.2959 8.74996C13.2959 8.42738 13.0352 8.16663 12.7126 8.16663Z" fill="url(#paint2_linear)"/>
<path d="M12.7126 12.25H6.87923C6.55665 12.25 6.2959 12.5107 6.2959 12.8333C6.2959 13.1559 6.55665 13.4167 6.87923 13.4167H12.7126C13.0351 13.4167 13.2959 13.1559 13.2959 12.8333C13.2959 12.5107 13.0351 12.25 12.7126 12.25Z" fill="url(#paint3_linear)"/>
<path d="M12.7125 16.3334H3.96254C3.63996 16.3334 3.37921 16.5941 3.37921 16.9167C3.37921 17.2393 3.63996 17.5 3.96254 17.5H12.7125C13.0351 17.5 13.2959 17.2393 13.2959 16.9167C13.2959 16.5941 13.0351 16.3334 12.7125 16.3334Z" fill="url(#paint4_linear)"/>
<path d="M12.7126 20.4166H1.62923C1.30665 20.4166 1.0459 20.6774 1.0459 21C1.0459 21.3225 1.30665 21.5833 1.62923 21.5833H12.7126C13.0351 21.5833 13.2959 21.3225 13.2959 21C13.2959 20.6774 13.0351 20.4166 12.7126 20.4166Z" fill="url(#paint5_linear)"/>
<path d="M12.7126 24.5H5.12923C4.80665 24.5 4.5459 24.7608 4.5459 25.0833C4.5459 25.4059 4.80665 25.6667 5.12923 25.6667H12.7126C13.0351 25.6667 13.2959 25.4059 13.2959 25.0833C13.2959 24.7608 13.0351 24.5 12.7126 24.5Z" fill="url(#paint6_linear)"/>
<path d="M12.7126 28.5834H8.62923C8.30665 28.5834 8.0459 28.8441 8.0459 29.1667C8.0459 29.4893 8.30665 29.75 8.62923 29.75H12.7126C13.0351 29.75 13.2959 29.4893 13.2959 29.1667C13.2959 28.8441 13.0351 28.5834 12.7126 28.5834Z" fill="url(#paint7_linear)"/>
<defs>
<linearGradient id="paint0_linear" x1="16.2127" y1="13.4385" x2="25.2865" y2="21.8208" gradientUnits="userSpaceOnUse">
<stop stop-color="#FFF5BA"/>
<stop offset="1" stop-color="#DA6C37"/>
</linearGradient>
<linearGradient id="paint1_linear" x1="13.8788" y1="2.26852" x2="42.1235" y2="17.2352" gradientUnits="userSpaceOnUse">
<stop stop-color="#FFF5BA"/>
<stop offset="1" stop-color="#DA6C37"/>
</linearGradient>
<linearGradient id="paint2_linear" x1="9.21259" y1="8.24224" x2="9.85495" y2="10.3192" gradientUnits="userSpaceOnUse">
<stop stop-color="#FFF5BA"/>
<stop offset="1" stop-color="#DA6C37"/>
</linearGradient>
<linearGradient id="paint3_linear" x1="6.2959" y1="12.3256" x2="6.69351" y2="14.5295" gradientUnits="userSpaceOnUse">
<stop stop-color="#FFF5BA"/>
<stop offset="1" stop-color="#DA6C37"/>
</linearGradient>
<linearGradient id="paint4_linear" x1="3.37921" y1="16.409" x2="3.66439" y2="18.6483" gradientUnits="userSpaceOnUse">
<stop stop-color="#FFF5BA"/>
<stop offset="1" stop-color="#DA6C37"/>
</linearGradient>
<linearGradient id="paint5_linear" x1="1.0459" y1="20.4922" x2="1.27803" y2="22.744" gradientUnits="userSpaceOnUse">
<stop stop-color="#FFF5BA"/>
<stop offset="1" stop-color="#DA6C37"/>
</linearGradient>
<linearGradient id="paint6_linear" x1="4.5459" y1="24.5756" x2="4.86764" y2="26.8048" gradientUnits="userSpaceOnUse">
<stop stop-color="#FFF5BA"/>
<stop offset="1" stop-color="#DA6C37"/>
</linearGradient>
<linearGradient id="paint7_linear" x1="8.0459" y1="28.659" x2="8.56336" y2="30.8102" gradientUnits="userSpaceOnUse">
<stop stop-color="#FFF5BA"/>
<stop offset="1" stop-color="#DA6C37"/>
</linearGradient>
</defs>
</svg>
