<svg width="35" height="35" viewBox="0 0 35 35" fill="none" xmlns="http://www.w3.org/2000/svg">
<path d="M26.9595 15.7075C26.834 15.7075 26.7137 15.6577 26.625 15.569C26.5363 15.4803 26.4865 15.36 26.4865 15.2345V13.8298C26.4865 13.7043 26.5363 13.584 26.625 13.4953C26.7137 13.4066 26.834 13.3568 26.9595 13.3568C27.0849 13.3568 27.2052 13.4066 27.2939 13.4953C27.3826 13.584 27.4325 13.7043 27.4325 13.8298V15.2345C27.4325 15.36 27.3826 15.4803 27.2939 15.569C27.2052 15.6577 27.0849 15.7075 26.9595 15.7075Z" fill="url(#paint0_linear)"/>
<path d="M25.5405 34.054H9.45946C8.9577 34.054 8.47649 33.8547 8.12169 33.4999C7.76689 33.1451 7.56757 32.6639 7.56757 32.1621V2.83781C7.56757 2.33605 7.76689 1.85484 8.12169 1.50005C8.47649 1.14525 8.9577 0.945923 9.45946 0.945923H25.5405C26.0423 0.945923 26.5235 1.14525 26.8783 1.50005C27.2331 1.85484 27.4324 2.33605 27.4324 2.83781V10.5189C27.4324 10.6443 27.3826 10.7646 27.2939 10.8533C27.2052 10.942 27.0849 10.9919 26.9595 10.9919C26.834 10.9919 26.7137 10.942 26.625 10.8533C26.5363 10.7646 26.4865 10.6443 26.4865 10.5189V2.83781C26.4865 2.58693 26.3868 2.34633 26.2094 2.16893C26.032 1.99153 25.7914 1.89187 25.5405 1.89187H9.45946C9.20858 1.89187 8.96797 1.99153 8.79057 2.16893C8.61317 2.34633 8.51351 2.58693 8.51351 2.83781V32.1621C8.51351 32.413 8.61317 32.6536 8.79057 32.831C8.96797 33.0084 9.20858 33.1081 9.45946 33.1081H25.5405C25.7914 33.1081 26.032 33.0084 26.2094 32.831C26.3868 32.6536 26.4865 32.413 26.4865 32.1621V23.2277C26.4865 23.1022 26.5363 22.9819 26.625 22.8932C26.7137 22.8045 26.834 22.7547 26.9595 22.7547C27.0849 22.7547 27.2052 22.8045 27.2939 22.8932C27.3826 22.9819 27.4324 23.1022 27.4324 23.2277V32.1621C27.4324 32.6639 27.2331 33.1451 26.8783 33.4999C26.5235 33.8547 26.0423 34.054 25.5405 34.054Z" fill="url(#paint1_linear)"/>
<path d="M26.9595 20.39C26.834 20.39 26.7137 20.3401 26.625 20.2514C26.5363 20.1627 26.4865 20.0424 26.4865 19.917V18.5454C26.4865 18.4199 26.5363 18.2996 26.625 18.2109C26.7137 18.1222 26.834 18.0724 26.9595 18.0724C27.0849 18.0724 27.2052 18.1222 27.2939 18.2109C27.3826 18.2996 27.4325 18.4199 27.4325 18.5454V19.917C27.4325 20.0424 27.3826 20.1627 27.2939 20.2514C27.2052 20.3401 27.0849 20.39 26.9595 20.39Z" fill="url(#paint2_linear)"/>
<path d="M26.9595 6.62161H8.04054C7.9151 6.62161 7.7948 6.57177 7.7061 6.48308C7.6174 6.39438 7.56757 6.27407 7.56757 6.14863C7.56757 6.02319 7.6174 5.90289 7.7061 5.81419C7.7948 5.72549 7.9151 5.67566 8.04054 5.67566H26.9595C27.0849 5.67566 27.2052 5.72549 27.2939 5.81419C27.3826 5.90289 27.4324 6.02319 27.4324 6.14863C27.4324 6.27407 27.3826 6.39438 27.2939 6.48308C27.2052 6.57177 27.0849 6.62161 26.9595 6.62161Z" fill="url(#paint3_linear)"/>
<path d="M26.9595 27.4324H8.04054C7.9151 27.4324 7.7948 27.3826 7.7061 27.2939C7.6174 27.2052 7.56757 27.0849 7.56757 26.9594C7.56757 26.834 7.6174 26.7137 7.7061 26.625C7.7948 26.5363 7.9151 26.4865 8.04054 26.4865H26.9595C27.0849 26.4865 27.2052 26.5363 27.2939 26.625C27.3826 26.7137 27.4324 26.834 27.4324 26.9594C27.4324 27.0849 27.3826 27.2052 27.2939 27.2939C27.2052 27.3826 27.0849 27.4324 26.9595 27.4324Z" fill="url(#paint4_linear)"/>
<path d="M18.6233 31.8273H16.3767C15.9638 31.8273 15.5677 31.6633 15.2757 31.3713C14.9837 31.0793 14.8197 30.6832 14.8197 30.2703C14.8197 29.8573 14.9837 29.4613 15.2757 29.1693C15.5677 28.8773 15.9638 28.7133 16.3767 28.7133H18.6233C19.0363 28.7133 19.4323 28.8773 19.7243 29.1693C20.0163 29.4613 20.1804 29.8573 20.1804 30.2703C20.1804 30.6832 20.0163 31.0793 19.7243 31.3713C19.4323 31.6633 19.0363 31.8273 18.6233 31.8273ZM16.3767 29.6592C16.2147 29.6592 16.0592 29.7236 15.9446 29.8382C15.83 29.9528 15.7656 30.1082 15.7656 30.2703C15.7656 30.4324 15.83 30.5878 15.9446 30.7024C16.0592 30.817 16.2147 30.8814 16.3767 30.8814H18.6233C18.7854 30.8814 18.9408 30.817 19.0554 30.7024C19.17 30.5878 19.2344 30.4324 19.2344 30.2703C19.2344 30.1082 19.17 29.9528 19.0554 29.8382C18.9408 29.7236 18.7854 29.6592 18.6233 29.6592H16.3767Z" fill="url(#paint5_linear)"/>
<path d="M19.3919 4.13857H15.6081C15.4827 4.13857 15.3624 4.08874 15.2737 4.00004C15.185 3.91134 15.1351 3.79104 15.1351 3.6656C15.1351 3.54016 15.185 3.41986 15.2737 3.33116C15.3624 3.24246 15.4827 3.19263 15.6081 3.19263H19.3919C19.5173 3.19263 19.6376 3.24246 19.7263 3.33116C19.815 3.41986 19.8649 3.54016 19.8649 3.6656C19.8649 3.79104 19.815 3.91134 19.7263 4.00004C19.6376 4.08874 19.5173 4.13857 19.3919 4.13857Z" fill="url(#paint6_linear)"/>
<path d="M17.5 23.1071C17.3996 23.1073 17.3018 23.0753 17.2209 23.0158C14.6125 21.1074 12.1989 18.7969 12.1989 14.8448V11.5472C12.1991 11.4553 12.226 11.3654 12.2764 11.2885C12.3268 11.2117 12.3985 11.1512 12.4827 11.1144C14.0553 10.3829 15.7687 10.0039 17.5031 10.0039C19.2374 10.0039 20.9509 10.3829 22.5234 11.1144C22.6067 11.1517 22.6774 11.2124 22.727 11.289C22.7766 11.3656 22.803 11.455 22.803 11.5462V14.8438C22.803 18.796 20.3908 21.1064 17.7809 23.0149C17.6997 23.0751 17.6011 23.1075 17.5 23.1071ZM13.1449 11.8589V14.8448C13.1449 18.0657 14.874 20.0777 17.5 22.0458C20.1259 20.0777 21.8551 18.0657 21.8551 14.8448V11.8575C20.4806 11.2611 18.9982 10.9535 17.4998 10.9538C16.0015 10.954 14.5192 11.2621 13.1449 11.8589Z" fill="url(#paint7_linear)"/>
<path d="M16.6572 18.1999C16.5318 18.1998 16.4115 18.15 16.3228 18.0613L14.9105 16.6485C14.8244 16.5593 14.7767 16.4398 14.7778 16.3158C14.7789 16.1918 14.8286 16.0732 14.9163 15.9855C15.004 15.8978 15.1226 15.8481 15.2466 15.847C15.3706 15.8459 15.4901 15.8936 15.5793 15.9797L16.6572 17.0581L19.5826 14.1328C19.6718 14.0466 19.7912 13.9989 19.9153 14C20.0393 14.0011 20.1579 14.0508 20.2456 14.1385C20.3333 14.2262 20.383 14.3449 20.3841 14.4689C20.3852 14.5929 20.3375 14.7123 20.2514 14.8016L16.9916 18.0613C16.9029 18.15 16.7827 18.1998 16.6572 18.1999Z" fill="url(#paint8_linear)"/>
<defs>
<linearGradient id="paint0_linear" x1="26.4865" y1="13.5092" x2="27.9841" y2="14.0659" gradientUnits="userSpaceOnUse">
<stop stop-color="#FFF5BA"/>
<stop offset="1" stop-color="#DA6C37"/>
</linearGradient>
<linearGradient id="paint1_linear" x1="7.56757" y1="3.09182" x2="34.9501" y2="18.2695" gradientUnits="userSpaceOnUse">
<stop stop-color="#FFF5BA"/>
<stop offset="1" stop-color="#DA6C37"/>
</linearGradient>
<linearGradient id="paint2_linear" x1="26.4865" y1="18.2226" x2="27.9789" y2="18.7853" gradientUnits="userSpaceOnUse">
<stop stop-color="#FFF5BA"/>
<stop offset="1" stop-color="#DA6C37"/>
</linearGradient>
<linearGradient id="paint3_linear" x1="7.56757" y1="5.73697" x2="7.66242" y2="7.5772" gradientUnits="userSpaceOnUse">
<stop stop-color="#FFF5BA"/>
<stop offset="1" stop-color="#DA6C37"/>
</linearGradient>
<linearGradient id="paint4_linear" x1="7.56757" y1="26.5478" x2="7.66242" y2="28.388" gradientUnits="userSpaceOnUse">
<stop stop-color="#FFF5BA"/>
<stop offset="1" stop-color="#DA6C37"/>
</linearGradient>
<linearGradient id="paint5_linear" x1="14.8197" y1="28.9151" x2="17.5569" y2="33.268" gradientUnits="userSpaceOnUse">
<stop stop-color="#FFF5BA"/>
<stop offset="1" stop-color="#DA6C37"/>
</linearGradient>
<linearGradient id="paint6_linear" x1="15.1351" y1="3.25394" x2="15.5167" y2="5.01645" gradientUnits="userSpaceOnUse">
<stop stop-color="#FFF5BA"/>
<stop offset="1" stop-color="#DA6C37"/>
</linearGradient>
<linearGradient id="paint7_linear" x1="12.1989" y1="10.8532" x2="24.456" y2="20.0167" gradientUnits="userSpaceOnUse">
<stop stop-color="#FFF5BA"/>
<stop offset="1" stop-color="#DA6C37"/>
</linearGradient>
<linearGradient id="paint8_linear" x1="14.7778" y1="14.2722" x2="18.7854" y2="19.2144" gradientUnits="userSpaceOnUse">
<stop stop-color="#FFF5BA"/>
<stop offset="1" stop-color="#DA6C37"/>
</linearGradient>
</defs>
</svg>
