<svg width="35" height="35" viewBox="0 0 35 35" fill="none" xmlns="http://www.w3.org/2000/svg">
<path d="M29.5462 19.1318C29.4403 19.1318 29.3375 19.0963 29.2543 19.0309C29.171 18.9656 29.1121 18.8742 29.0869 18.7714C28.9843 18.3533 28.8608 17.9168 28.718 17.475C28.6947 17.415 28.684 17.3508 28.6864 17.2865C28.6888 17.2221 28.7043 17.159 28.732 17.1008C28.7596 17.0427 28.7989 16.9908 28.8473 16.9484C28.8957 16.906 28.9523 16.8739 29.0136 16.8541C29.0748 16.8343 29.1395 16.8272 29.2036 16.8333C29.2677 16.8394 29.3299 16.8584 29.3863 16.8894C29.4428 16.9203 29.4923 16.9625 29.5319 17.0132C29.5715 17.064 29.6004 17.1223 29.6166 17.1846C29.7661 17.6481 29.8962 18.1064 30.004 18.5463C30.0338 18.6681 30.014 18.7967 29.949 18.904C29.884 19.0112 29.7791 19.0882 29.6573 19.1181C29.6209 19.1271 29.5836 19.1318 29.5462 19.1318Z" fill="url(#paint0_linear)"/>
<path d="M17.7885 34.0494C17.7242 34.0494 17.6606 34.0362 17.6016 34.0108C17.5425 33.9853 17.4893 33.9481 17.4451 33.9014C16.4628 32.8608 13.6845 31.457 10.0142 30.1431C9.66725 30.0279 9.33109 29.8822 9.00965 29.708C1.64499 25.5647 6.03276 15.7553 6.07722 15.6574C7.65553 11.3462 4.43931 8.0898 4.30168 7.95122C4.2218 7.8723 4.17261 7.76753 4.1629 7.65566C4.1532 7.54379 4.18361 7.43212 4.2487 7.34062L8.4662 1.42372C8.52734 1.33797 8.61534 1.27508 8.71627 1.24501C8.81719 1.21493 8.92527 1.2194 9.02336 1.25771C14.6915 3.47406 16.7692 1.21041 16.8553 1.11582C16.8995 1.06568 16.9536 1.02537 17.0143 0.997502C17.075 0.969637 17.1409 0.954837 17.2077 0.954061H17.2119C17.2779 0.953666 17.3431 0.967051 17.4036 0.99336C17.464 1.01967 17.5183 1.05832 17.5629 1.10683C17.6494 1.19859 19.8095 3.38562 25.3925 0.967777C25.4892 0.925982 25.5971 0.917662 25.699 0.944137C25.801 0.970612 25.8912 1.03037 25.9553 1.11393L30.3776 6.87001C30.4459 6.95898 30.4803 7.06932 30.4748 7.18134C30.4693 7.29336 30.4241 7.39976 30.3474 7.48156C30.3209 7.51041 27.6921 10.3719 28.4971 14.0767C28.5237 14.1993 28.5006 14.3275 28.4327 14.4331C28.3649 14.5386 28.2579 14.6129 28.1353 14.6395C28.0126 14.6662 27.8845 14.643 27.7789 14.5752C27.6733 14.5073 27.5991 14.4003 27.5724 14.2777C26.8114 10.7801 28.6744 8.04062 29.3924 7.14197L25.4261 1.97805C20.6334 3.94609 18.1021 2.69602 17.2224 2.0523C16.3649 2.72676 13.8827 4.06764 9.02242 2.27035L5.24242 7.5771C6.09377 8.55994 8.48654 11.831 6.95174 16.0168C6.2614 17.6471 5.8365 19.3774 5.69316 21.142C5.44911 24.7314 6.72093 27.3379 9.47364 28.8845C9.74824 29.032 10.0352 29.1553 10.3311 29.253C12.4411 30.0097 16.0707 31.4428 17.7776 32.9157C19.6014 31.2347 23.7806 29.5055 25.0879 28.99C25.3798 28.8824 25.6612 28.7479 25.9284 28.5885C26.7247 28.1122 27.4265 27.4933 27.9986 26.7628C28.0353 26.7108 28.0822 26.6668 28.1363 26.6334C28.1905 26.5999 28.2509 26.5778 28.3138 26.5683C28.3767 26.5587 28.4409 26.562 28.5026 26.5778C28.5642 26.5937 28.622 26.6218 28.6725 26.6605C28.723 26.6993 28.7652 26.7478 28.7965 26.8032C28.8278 26.8586 28.8476 26.9198 28.8547 26.983C28.8619 27.0463 28.8561 27.1103 28.8379 27.1713C28.8197 27.2323 28.7893 27.2889 28.7487 27.3379C28.1071 28.1595 27.3197 28.856 26.4259 29.3925C26.1103 29.582 25.7778 29.7417 25.4327 29.8697C22.6573 30.9656 19.284 32.5978 18.1432 33.89C18.0998 33.9392 18.0466 33.9789 17.9869 34.0064C17.9273 34.0339 17.8627 34.0487 17.797 34.0499L17.7885 34.0494Z" fill="url(#paint1_linear)"/>
<path d="M29.864 23.8709C29.8407 23.8711 29.8175 23.8693 29.7945 23.8657C29.733 23.8567 29.6739 23.8356 29.6206 23.8038C29.5673 23.7719 29.5208 23.7298 29.4837 23.68C29.4466 23.6301 29.4197 23.5735 29.4046 23.5132C29.3894 23.453 29.3863 23.3903 29.3953 23.3289C29.4621 22.8725 29.4952 22.4119 29.4946 21.9506C29.4946 21.8252 29.5445 21.7049 29.6332 21.6162C29.7219 21.5275 29.8422 21.4777 29.9676 21.4777C30.093 21.4777 30.2133 21.5275 30.302 21.6162C30.3907 21.7049 30.4406 21.8252 30.4406 21.9506C30.441 22.4581 30.4044 22.9649 30.3313 23.467C30.3148 23.5792 30.2585 23.6816 30.1727 23.7558C30.0869 23.8299 29.9774 23.8708 29.864 23.8709Z" fill="url(#paint2_linear)"/>
<path d="M17.7327 30.8852C17.6429 30.8853 17.555 30.8598 17.4792 30.8118C15.3871 29.5879 13.1753 28.581 10.8783 27.8071C10.6567 27.7345 10.4417 27.6432 10.2356 27.5341C4.85172 24.5033 8.18287 16.9627 8.32713 16.643L8.38199 16.5077C8.89641 15.0932 9.0653 13.5763 8.87459 12.0833C8.68388 10.5903 8.1391 9.16446 7.28564 7.92469C7.23437 7.84515 7.20813 7.75207 7.21033 7.65746C7.21252 7.56286 7.24304 7.47109 7.29794 7.39401L9.45422 4.36698C9.51085 4.28743 9.59072 4.22736 9.68286 4.19501C9.77499 4.16266 9.87489 4.15962 9.96882 4.18631C12.7367 4.97239 15.1961 4.87732 17.0554 3.96165C17.1177 3.931 17.1861 3.91448 17.2556 3.91325C17.3251 3.91202 17.394 3.92613 17.4574 3.95455C19.3531 4.80165 21.8168 4.8059 24.5463 3.92428C24.6393 3.89415 24.7394 3.89356 24.8327 3.92261C24.926 3.95167 25.0081 4.00892 25.0675 4.08651L27.3317 7.03408C27.3893 7.10918 27.4231 7.19986 27.4287 7.29439C27.4343 7.38891 27.4113 7.48294 27.3629 7.56428C26.5552 8.83431 26.0623 10.2788 25.9253 11.7776C25.7882 13.2765 26.011 14.7864 26.5749 16.1819L26.6364 16.3176C26.7929 16.6345 30.3833 24.0488 25.1106 27.2716C24.915 27.3831 24.7104 27.478 24.499 27.5554C22.2244 28.4048 20.0457 29.4921 17.9994 30.7991C17.9212 30.8541 17.8282 30.8841 17.7327 30.8852ZM8.25335 7.68536C9.10995 9.03222 9.64695 10.5573 9.82321 12.1437C9.99947 13.7301 9.81032 15.3358 9.27024 16.8379L9.19125 17.0323C9.05976 17.3227 6.06206 24.1013 10.6977 26.7112C10.8569 26.7929 11.0226 26.8617 11.1929 26.9169C13.4563 27.6861 15.6417 28.668 17.7199 29.8493C19.7545 28.5839 21.9091 27.5224 24.1523 26.6804C24.3133 26.622 24.4692 26.5506 24.6187 26.4671C29.1592 23.6917 25.9293 17.0261 25.7893 16.7437L25.698 16.5413C25.1067 15.0603 24.8615 13.4638 24.9812 11.8735C25.1008 10.2833 25.5822 8.74147 26.3885 7.36563L24.5179 4.9303C21.7775 5.75611 19.2765 5.73435 17.2739 4.9109C15.3058 5.80955 12.8104 5.9207 10.0331 5.18996L8.25335 7.68536Z" fill="url(#paint3_linear)"/>
<path d="M20.7635 21.5795C20.6867 21.5795 20.6111 21.5608 20.5431 21.5251L17.5 19.9241L14.455 21.5251C14.3769 21.5663 14.2888 21.5848 14.2007 21.5785C14.1126 21.5722 14.028 21.5414 13.9566 21.4895C13.8851 21.4376 13.8296 21.3667 13.7963 21.2849C13.763 21.2031 13.7533 21.1136 13.7683 21.0266L14.35 17.6354L11.8858 15.2336C11.8226 15.172 11.7779 15.0939 11.7567 15.0082C11.7355 14.9224 11.7388 14.8325 11.7661 14.7485C11.7934 14.6645 11.8437 14.5899 11.9113 14.533C11.9788 14.4762 12.0609 14.4393 12.1483 14.4267L15.5537 13.932L17.0767 10.8468C17.1202 10.773 17.1821 10.7119 17.2565 10.6694C17.3308 10.627 17.4149 10.6046 17.5005 10.6046C17.5861 10.6046 17.6702 10.627 17.7445 10.6694C17.8189 10.7119 17.8808 10.773 17.9243 10.8468L19.4473 13.932L22.8527 14.4267C22.9401 14.4393 23.0222 14.4762 23.0897 14.533C23.1573 14.5899 23.2076 14.6645 23.2349 14.7485C23.2622 14.8325 23.2655 14.9224 23.2443 15.0082C23.2231 15.0939 23.1784 15.172 23.1152 15.2336L20.651 17.6354L21.2327 21.0266C21.2444 21.0945 21.241 21.1641 21.223 21.2306C21.2049 21.2971 21.1725 21.3588 21.1281 21.4115C21.0837 21.4641 21.0283 21.5064 20.9658 21.5355C20.9033 21.5645 20.8353 21.5795 20.7664 21.5795H20.7635ZM17.5 18.9166C17.5768 18.9166 17.6525 18.9353 17.7204 18.971L20.1373 20.2419L19.6757 17.5474C19.6627 17.4718 19.6683 17.3943 19.6919 17.3213C19.7156 17.2484 19.7566 17.1824 19.8114 17.1288L21.7667 15.2227L19.0646 14.8302C18.9887 14.8191 18.9166 14.7897 18.8545 14.7446C18.7925 14.6994 18.7424 14.6398 18.7085 14.571L17.5 12.1248L16.2911 14.5733C16.2572 14.6422 16.2071 14.7018 16.145 14.7469C16.083 14.7921 16.0109 14.8215 15.935 14.8325L13.2329 15.2251L15.1881 17.1312C15.243 17.1847 15.284 17.2508 15.3076 17.3237C15.3313 17.3966 15.3369 17.4742 15.3239 17.5498L14.8627 20.2433L17.2796 18.9725C17.3475 18.9362 17.4231 18.917 17.5 18.9166Z" fill="url(#paint4_linear)"/>
<defs>
<linearGradient id="paint0_linear" x1="28.686" y1="16.9803" x2="30.552" y2="17.9779" gradientUnits="userSpaceOnUse">
<stop stop-color="#FFF5BA"/>
<stop offset="1" stop-color="#DA6C37"/>
</linearGradient>
<linearGradient id="paint1_linear" x1="4.16113" y1="3.07568" x2="34.9773" y2="25.6935" gradientUnits="userSpaceOnUse">
<stop stop-color="#FFF5BA"/>
<stop offset="1" stop-color="#DA6C37"/>
</linearGradient>
<linearGradient id="paint2_linear" x1="29.3903" y1="21.6328" x2="31.0157" y2="22.2918" gradientUnits="userSpaceOnUse">
<stop stop-color="#FFF5BA"/>
<stop offset="1" stop-color="#DA6C37"/>
</linearGradient>
<linearGradient id="paint3_linear" x1="7.17664" y1="5.6502" x2="32.0454" y2="23.3578" gradientUnits="userSpaceOnUse">
<stop stop-color="#FFF5BA"/>
<stop offset="1" stop-color="#DA6C37"/>
</linearGradient>
<linearGradient id="paint4_linear" x1="11.7429" y1="11.316" x2="22.4415" y2="21.6857" gradientUnits="userSpaceOnUse">
<stop stop-color="#FFF5BA"/>
<stop offset="1" stop-color="#DA6C37"/>
</linearGradient>
</defs>
</svg>
