<svg width="35" height="20" viewBox="0 0 35 20" fill="none" xmlns="http://www.w3.org/2000/svg">
<g clip-path="url(#clip0)">
<path d="M34.416 3.41576C34.5208 3.37198 34.6103 3.29819 34.6733 3.20368C34.7362 3.10916 34.7698 2.99814 34.7698 2.88458V2.4177C34.7698 2.26503 34.7091 2.11861 34.6012 2.01065C34.4932 1.90269 34.3468 1.84204 34.1941 1.84204H29.4565C26.5248 1.84088 23.6527 2.66993 21.1727 4.23326L21.7863 5.20742C24.0826 3.7599 26.742 2.99227 29.4565 2.99336H32.794C32.2506 3.364 31.7654 3.81342 31.3542 4.32685L28.7365 7.59863H23.8323V8.74995H34.7698V7.59863H33.6185V6.44731C33.6185 6.31893 33.5755 6.19424 33.4965 6.09304C33.4175 5.99185 33.307 5.91997 33.1824 5.88883L31.8463 5.55479L32.2533 5.04604C32.8266 4.33035 33.5702 3.76983 34.416 3.41576ZM32.4671 6.89676V7.59863H30.211L31.055 6.54375L32.4671 6.89676Z" fill="url(#paint0_linear)"/>
<path d="M22.1128 12.296C22.1296 12.3997 22.1745 12.4968 22.2425 12.5768C22.3106 12.6568 22.3993 12.7167 22.4989 12.7499L23.0657 12.9388C23.9211 13.2236 24.836 13.2806 25.7201 13.1041L25.9703 13.0541C26.504 12.9458 26.9963 12.6889 27.3905 12.3131C27.7846 11.9373 28.0646 11.4577 28.1981 10.9298L28.2549 10.7027C28.2961 10.5379 28.295 10.3653 28.2516 10.201C28.2082 10.0368 28.124 9.88613 28.0067 9.76316C27.8895 9.64019 27.743 9.54888 27.581 9.4977C27.419 9.44653 27.2467 9.43717 27.0801 9.47049H27.08L26.3782 9.61085C25.302 9.82763 24.2876 10.2812 23.4084 10.9387L22.3356 11.7433C22.2516 11.8063 22.1864 11.8911 22.1471 11.9886C22.1078 12.086 22.096 12.1923 22.1128 12.296ZM24.0992 11.8597C24.8407 11.3052 25.6963 10.9227 26.6039 10.7398L27.0828 10.644L27.0812 10.6505C27.0011 10.9673 26.8331 11.255 26.5966 11.4805C26.3601 11.706 26.0647 11.8601 25.7445 11.9251L25.4943 11.9752C24.981 12.0776 24.4528 12.0792 23.9389 11.98L24.0992 11.8597Z" fill="url(#paint1_linear)"/>
<path d="M30.1645 16.2335C30.4825 16.2335 30.7402 15.9757 30.7402 15.6578C30.7402 15.3399 30.4825 15.0822 30.1645 15.0822C29.8466 15.0822 29.5889 15.3399 29.5889 15.6578C29.5889 15.9757 29.8466 16.2335 30.1645 16.2335Z" fill="url(#paint2_linear)"/>
<path d="M34.7698 9.90125H33.0428V11.0526H34.7698V9.90125Z" fill="url(#paint3_linear)"/>
<path d="M30.1645 12.2039C29.2488 12.2049 28.3708 12.5691 27.7233 13.2166C27.0758 13.8641 26.7116 14.7421 26.7105 15.6578H19.8026V16.8091H21.2209C21.0181 17.1585 20.7273 17.4487 20.3775 17.6507C20.0276 17.8527 19.631 17.9595 19.227 17.9604V19.1118C19.9409 19.11 20.6368 18.8879 21.2197 18.4757C21.8026 18.0636 22.244 17.4816 22.4837 16.8091H24.0295C24.2692 17.4816 24.7106 18.0636 25.2935 18.4757C25.8764 18.8879 26.5723 19.11 27.2862 19.1118H30.1645C30.8785 19.1109 31.5747 18.8891 32.1576 18.4768C32.7406 18.0645 33.1817 17.482 33.4204 16.8091H34.7697V15.6578H33.6184C33.6174 14.7421 33.2532 13.8641 32.6057 13.2166C31.9581 12.5691 31.0802 12.2049 30.1645 12.2039ZM25.2923 16.8091H26.9086C27.0594 17.2338 27.2919 17.6249 27.5928 17.9604H27.2862C26.8822 17.9595 26.4855 17.8527 26.1357 17.6507C25.7859 17.4487 25.4951 17.1585 25.2923 16.8091ZM30.1645 17.9604C29.7091 17.9604 29.2639 17.8254 28.8852 17.5724C28.5065 17.3194 28.2114 16.9597 28.0371 16.539C27.8629 16.1182 27.8173 15.6553 27.9061 15.2086C27.9949 14.7619 28.2143 14.3516 28.5363 14.0296C28.8583 13.7076 29.2686 13.4883 29.7153 13.3994C30.1619 13.3106 30.6249 13.3562 31.0457 13.5305C31.4664 13.7047 31.826 13.9999 32.0791 14.3785C32.3321 14.7572 32.4671 15.2024 32.4671 15.6578C32.4664 16.2683 32.2236 16.8536 31.7919 17.2852C31.3603 17.7169 30.775 17.9597 30.1645 17.9604Z" fill="url(#paint4_linear)"/>
<path d="M13.0153 7.5345C12.7161 6.97608 12.2839 6.49997 11.7569 6.14823C11.6092 6.04974 11.4716 5.93693 11.3461 5.81142L10.9913 5.4567L10.2718 4.73713C8.81707 3.27718 6.94005 2.31175 4.90638 1.97748V1.97745L4.90522 1.97727L4.90469 1.97717L4.90436 1.97713C4.36827 1.88707 3.8256 1.84188 3.282 1.84204H0.230286V2.99336H3.282C3.56414 2.99336 3.84584 3.00876 4.12509 3.03602L3.21233 7.59862H0.230286V8.74994H4.58082C6.75338 8.75148 8.861 8.00921 10.5531 6.64659C10.7266 6.81728 10.9158 6.97117 11.1183 7.1062C11.4876 7.35265 11.7905 7.68629 12.0002 8.07762C12.0277 8.12891 12.0525 8.18141 12.0765 8.23423C11.143 8.38703 10.2805 8.82752 9.60939 9.49421C9.55215 9.55146 9.50764 9.62015 9.47875 9.69578C9.44986 9.7714 9.43724 9.85227 9.44173 9.93311C9.44621 10.0139 9.46769 10.0929 9.50477 10.1649C9.54184 10.2369 9.59368 10.3002 9.65689 10.3508L12.3191 12.4805V15.6578H11.7434C11.7434 14.7418 11.3795 13.8633 10.7318 13.2155C10.0841 12.5678 9.20554 12.2039 8.2895 12.2039C7.37345 12.2039 6.49493 12.5678 5.84719 13.2155C5.19945 13.8633 4.83555 14.7418 4.83555 15.6578H0.230286V16.8091H2.15449C2.39416 17.4816 2.8356 18.0636 3.4185 18.4758C4.0014 18.8879 4.69733 19.11 5.41121 19.1118H8.2895C9.00348 19.1109 9.69969 18.8891 10.2826 18.4768C10.8656 18.0646 11.3067 17.482 11.5454 16.8091H12.8948C13.0474 16.8091 13.1939 16.7485 13.3018 16.6405C13.4098 16.5326 13.4704 16.3862 13.4704 16.2335V9.35005C13.4706 8.71662 13.3142 8.09296 13.0153 7.53449V7.5345ZM4.38646 7.59862L5.26216 3.22128C6.85198 3.58779 8.30615 4.39536 9.4576 5.55121L9.73334 5.82695C8.26178 6.97617 6.44795 7.59984 4.58082 7.59862H4.38646ZM3.41731 16.8091H5.03359C5.18443 17.2339 5.41687 17.625 5.71783 17.9605H5.41121C5.00723 17.9595 4.61055 17.8527 4.26071 17.6507C3.91087 17.4487 3.62007 17.1586 3.41731 16.8091ZM8.2895 17.9605C7.83408 17.9605 7.38889 17.8254 7.01022 17.5724C6.63156 17.3194 6.33642 16.9598 6.16214 16.539C5.98786 16.1183 5.94226 15.6553 6.03111 15.2086C6.11996 14.7619 6.33926 14.3517 6.66129 14.0296C6.98332 13.7076 7.39361 13.4883 7.84027 13.3994C8.28694 13.3106 8.74992 13.3562 9.17067 13.5305C9.59142 13.7048 9.95105 13.9999 10.2041 14.3786C10.4571 14.7572 10.5921 15.2024 10.5921 15.6578C10.5914 16.2683 10.3486 16.8536 9.91694 17.2853C9.48526 17.7169 8.89998 17.9598 8.2895 17.9605ZM10.9291 9.89419C11.3473 9.61568 11.822 9.43344 12.3191 9.36061V11.0062L10.9291 9.89419Z" fill="url(#paint5_linear)"/>
<path d="M8.28952 16.2335C8.60745 16.2335 8.86518 15.9757 8.86518 15.6578C8.86518 15.3399 8.60745 15.0822 8.28952 15.0822C7.9716 15.0822 7.71387 15.3399 7.71387 15.6578C7.71387 15.9757 7.9716 16.2335 8.28952 16.2335Z" fill="url(#paint6_linear)"/>
<path d="M7.88239 9.49426C7.75366 9.62372 7.60051 9.72636 7.43184 9.79623C7.26316 9.8661 7.0823 9.90181 6.89973 9.90131H6.5625V11.0526H6.89973C7.23357 11.0535 7.56427 10.9882 7.87269 10.8605C8.18112 10.7327 8.46114 10.5451 8.69655 10.3084L7.88239 9.49426Z" fill="url(#paint7_linear)"/>
<path d="M2.53292 9.90125H0.230286V11.0526H2.53292V9.90125Z" fill="url(#paint8_linear)"/>
<path d="M18.1638 13.3552H20.954C21.0624 13.3552 21.1687 13.3246 21.2605 13.2669C21.3523 13.2092 21.4259 13.1267 21.4729 13.029C21.5198 12.9312 21.5382 12.8222 21.526 12.7145C21.5137 12.6067 21.4713 12.5046 21.4035 12.42L19.4806 10.0164L23.0155 7.49143C23.105 7.42753 23.1743 7.33935 23.2152 7.23731C23.2562 7.13527 23.267 7.02364 23.2465 6.91563C23.226 6.80762 23.175 6.70773 23.0995 6.62779C23.024 6.54785 22.9273 6.4912 22.8206 6.46453L18.7593 5.44922L19.789 0.815639C19.8152 0.697698 19.8036 0.574501 19.7559 0.463498C19.7082 0.352494 19.6268 0.259313 19.5232 0.197152C19.4196 0.13499 19.2991 0.107 19.1787 0.117146C19.0583 0.127292 18.9441 0.175061 18.8524 0.253685L15.266 3.32779L12.7613 0.322236C12.6856 0.23136 12.5837 0.166024 12.4695 0.135119C12.3553 0.104214 12.2344 0.109239 12.1232 0.149513C12.0119 0.189786 11.9158 0.263351 11.8479 0.360197C11.7799 0.457044 11.7435 0.572469 11.7435 0.690768V4.72037H12.8948V2.28075L14.7552 4.51325C14.804 4.57184 14.864 4.62015 14.9317 4.65536C14.9993 4.69057 15.0733 4.71199 15.1493 4.71837C15.2253 4.72475 15.3018 4.71596 15.3744 4.69251C15.4469 4.66907 15.5141 4.63143 15.572 4.5818L18.2905 2.25173L17.5138 5.74682C17.4812 5.89329 17.5071 6.04669 17.586 6.17433C17.6649 6.30197 17.7905 6.39377 17.9361 6.43017L21.332 7.27914L18.3168 9.43287C18.2531 9.47834 18.1994 9.53631 18.1589 9.60324C18.1184 9.67017 18.0919 9.74466 18.0812 9.82215C18.0704 9.89964 18.0756 9.97852 18.0963 10.054C18.1171 10.1294 18.153 10.1998 18.2018 10.2609L19.7563 12.2039H17.5C17.4176 12.2039 17.3361 12.2216 17.261 12.2559C17.186 12.2901 17.1192 12.3401 17.0651 12.4024C17.0111 12.4647 16.9711 12.5379 16.9478 12.617C16.9245 12.6961 16.9185 12.7793 16.9302 12.861L17.2188 14.8818L15.6396 12.9867C15.5716 12.905 15.4823 12.8438 15.3815 12.8098C15.2808 12.7758 15.1727 12.7704 15.0691 12.7941C14.9654 12.8178 14.8704 12.8697 14.7945 12.9441C14.7186 13.0185 14.6648 13.1125 14.639 13.2156L13.4877 17.8209L14.6045 18.1001L15.481 14.5947L17.6335 17.1777C17.7137 17.274 17.8231 17.3414 17.9451 17.3698C18.0671 17.3982 18.1951 17.3861 18.3096 17.3352C18.424 17.2843 18.5188 17.1975 18.5794 17.0878C18.6401 16.9782 18.6633 16.8518 18.6456 16.7278L18.1638 13.3552Z" fill="url(#paint9_linear)"/>
</g>
<defs>
<linearGradient id="paint0_linear" x1="21.1727" y1="2.28978" x2="26.8621" y2="12.6352" gradientUnits="userSpaceOnUse">
<stop stop-color="#FFF5BA"/>
<stop offset="1" stop-color="#DA6C37"/>
</linearGradient>
<linearGradient id="paint1_linear" x1="22.1053" y1="9.69421" x2="25.4663" y2="14.8059" gradientUnits="userSpaceOnUse">
<stop stop-color="#FFF5BA"/>
<stop offset="1" stop-color="#DA6C37"/>
</linearGradient>
<linearGradient id="paint2_linear" x1="29.5889" y1="15.1568" x2="30.7082" y2="16.1908" gradientUnits="userSpaceOnUse">
<stop stop-color="#FFF5BA"/>
<stop offset="1" stop-color="#DA6C37"/>
</linearGradient>
<linearGradient id="paint3_linear" x1="33.0428" y1="9.97587" x2="34.1084" y2="11.4525" gradientUnits="userSpaceOnUse">
<stop stop-color="#FFF5BA"/>
<stop offset="1" stop-color="#DA6C37"/>
</linearGradient>
<linearGradient id="paint4_linear" x1="19.227" y1="12.6516" x2="24.491" y2="23.5933" gradientUnits="userSpaceOnUse">
<stop stop-color="#FFF5BA"/>
<stop offset="1" stop-color="#DA6C37"/>
</linearGradient>
<linearGradient id="paint5_linear" x1="0.230286" y1="2.96138" x2="16.1184" y2="14.2142" gradientUnits="userSpaceOnUse">
<stop stop-color="#FFF5BA"/>
<stop offset="1" stop-color="#DA6C37"/>
</linearGradient>
<linearGradient id="paint6_linear" x1="7.71387" y1="15.1568" x2="8.8332" y2="16.1908" gradientUnits="userSpaceOnUse">
<stop stop-color="#FFF5BA"/>
<stop offset="1" stop-color="#DA6C37"/>
</linearGradient>
<linearGradient id="paint7_linear" x1="6.5625" y1="9.59527" x2="8.04128" y2="11.466" gradientUnits="userSpaceOnUse">
<stop stop-color="#FFF5BA"/>
<stop offset="1" stop-color="#DA6C37"/>
</linearGradient>
<linearGradient id="paint8_linear" x1="0.230286" y1="9.97587" x2="1.17036" y2="11.7128" gradientUnits="userSpaceOnUse">
<stop stop-color="#FFF5BA"/>
<stop offset="1" stop-color="#DA6C37"/>
</linearGradient>
<linearGradient id="paint9_linear" x1="11.7435" y1="1.28081" x2="27.114" y2="10.3706" gradientUnits="userSpaceOnUse">
<stop stop-color="#FFF5BA"/>
<stop offset="1" stop-color="#DA6C37"/>
</linearGradient>
<clipPath id="clip0">
<rect width="35" height="19.3421" fill="white"/>
</clipPath>
</defs>
</svg>
