<svg width="35" height="35" viewBox="0 0 35 35" fill="none" xmlns="http://www.w3.org/2000/svg">
<path d="M19.6279 34.9254H15.3721C15.1379 34.9254 14.9112 34.8428 14.7318 34.6922C14.5524 34.5416 14.4319 34.3326 14.3914 34.1019L13.9846 31.7853C12.5404 31.4308 11.1591 30.857 9.88865 30.0841L7.95892 31.4373C7.76715 31.5719 7.53407 31.6345 7.30068 31.6142C7.06729 31.5939 6.84854 31.4919 6.68289 31.3263L3.67378 28.3172C3.50812 28.1515 3.40618 27.9328 3.38587 27.6994C3.36556 27.466 3.4282 27.2329 3.56276 27.0411L4.91596 25.1114C4.14301 23.841 3.56928 22.4597 3.21475 21.0155L0.898178 20.6087C0.667484 20.5682 0.458459 20.4476 0.30785 20.2683C0.157241 20.0889 0.0746887 19.8621 0.074707 19.6279V15.3721C0.0746887 15.1379 0.157241 14.9112 0.30785 14.7318C0.458459 14.5524 0.667484 14.4319 0.898178 14.3914L3.21475 13.9846C3.56928 12.5404 4.14301 11.1591 4.91596 9.88865L3.56276 7.95892C3.4282 7.76715 3.36556 7.53407 3.38587 7.30068C3.40618 7.06729 3.50812 6.84854 3.67378 6.68289L6.68289 3.67378C6.84854 3.50812 7.06729 3.40618 7.30068 3.38587C7.53407 3.36556 7.76715 3.4282 7.95892 3.56276L9.88865 4.91596C11.1591 4.14301 12.5404 3.56928 13.9846 3.21475L14.3914 0.898178C14.4319 0.667484 14.5524 0.458459 14.7318 0.30785C14.9112 0.157241 15.1379 0.0746887 15.3721 0.074707H19.6279C19.8621 0.0746887 20.0889 0.157241 20.2683 0.30785C20.4476 0.458459 20.5682 0.667484 20.6087 0.898178L21.0155 3.21475C22.4597 3.56928 23.841 4.14301 25.1114 4.91596L27.0411 3.56276C27.2329 3.4282 27.466 3.36556 27.6994 3.38587C27.9328 3.40618 28.1515 3.50812 28.3172 3.67378L31.3263 6.68289C31.4919 6.84854 31.5939 7.06729 31.6142 7.30068C31.6345 7.53407 31.5719 7.76715 31.4373 7.95892L30.0841 9.88865C30.857 11.1591 31.4308 12.5404 31.7853 13.9846L34.1019 14.3914C34.3326 14.4319 34.5416 14.5524 34.6922 14.7318C34.8428 14.9112 34.9254 15.1379 34.9254 15.3721V19.6279C34.9254 19.8621 34.8428 20.0889 34.6922 20.2683C34.5416 20.4476 34.3326 20.5682 34.1019 20.6087L31.7853 21.0155C31.4308 22.4597 30.857 23.841 30.0841 25.1114L31.4373 27.0411C31.5719 27.2329 31.6345 27.466 31.6142 27.6994C31.5939 27.9328 31.4919 28.1515 31.3263 28.3172L28.3172 31.3263C28.1515 31.4919 27.9328 31.5939 27.6994 31.6142C27.466 31.6345 27.2329 31.5719 27.0411 31.4373L25.1114 30.0841C23.841 30.857 22.4597 31.4308 21.0155 31.7853L20.6087 34.1019C20.5682 34.3326 20.4476 34.5416 20.2683 34.6922C20.0889 34.8428 19.8621 34.9254 19.6279 34.9254ZM14.9355 31.4403L15.3721 33.9296H19.6279L20.0725 31.3985C20.0654 31.2828 20.0998 31.1683 20.1694 31.0756C20.239 30.983 20.3393 30.9181 20.4524 30.8926C22.0329 30.5453 23.5387 29.9185 24.8988 29.0416C25.0022 28.9751 25.1265 28.9492 25.2478 28.9688C25.3692 28.9885 25.4789 29.0524 25.556 29.1481C25.5707 29.1666 25.5841 29.1861 25.5963 29.2064L27.6127 30.6203L30.6223 27.6112L29.172 25.5455L29.1655 25.5401C29.0684 25.468 29.0019 25.3621 28.9792 25.2433C28.9565 25.1246 28.9793 25.0016 29.0431 24.8988C29.9194 23.5386 30.5458 22.0328 30.8926 20.4524C30.9189 20.3324 30.9886 20.2264 31.0883 20.1547C31.1881 20.0831 31.3107 20.0508 31.4328 20.064H31.4403L33.9296 19.6274V15.3721L31.3985 14.9276C31.2825 14.9361 31.1673 14.9023 31.0743 14.8325C30.9813 14.7626 30.9168 14.6615 30.8926 14.5477C30.5453 12.9671 29.9185 11.4613 29.0416 10.1012C28.9751 9.99786 28.9492 9.87355 28.9688 9.75222C28.9885 9.63089 29.0524 9.52112 29.1481 9.44405C29.1666 9.42938 29.1861 9.41591 29.2064 9.40373L30.6203 7.38737L27.6112 4.37777L25.5455 5.82805L25.5401 5.83452C25.4679 5.93148 25.362 5.99785 25.2433 6.02053C25.1246 6.0432 25.0016 6.02053 24.8988 5.957C23.5386 5.08063 22.0328 4.45426 20.4524 4.10742C20.3324 4.08113 20.2264 4.01143 20.1547 3.91172C20.0831 3.81201 20.0508 3.68932 20.064 3.56724V3.55977L19.6274 1.07044H15.3721L14.9276 3.60159C14.9346 3.71729 14.9003 3.83173 14.8307 3.92441C14.7611 4.0171 14.6608 4.08197 14.5477 4.10742C12.9671 4.45472 11.4613 5.08159 10.1012 5.95849C9.99786 6.02499 9.87355 6.05089 9.75222 6.03122C9.63089 6.01155 9.52112 5.9477 9.44405 5.85195C9.42938 5.83341 9.41591 5.81395 9.40373 5.7937L7.38737 4.37976L4.37777 7.38886L5.82805 9.456L5.83452 9.46148C5.93167 9.5335 5.99819 9.63942 6.02088 9.75821C6.04356 9.877 6.02076 9.99997 5.957 10.1027C5.08079 11.4625 4.45443 12.9677 4.10742 14.5477C4.08113 14.6676 4.01143 14.7736 3.91172 14.8453C3.81201 14.917 3.68932 14.9493 3.56724 14.936H3.55977L1.07044 15.3726V19.6284L3.60159 20.073C3.71719 20.0656 3.83163 20.0998 3.92415 20.1695C4.01668 20.2392 4.08117 20.3397 4.10593 20.4529C4.45323 22.0334 5.0801 23.5392 5.957 24.8993C6.02349 25.0027 6.0494 25.127 6.02973 25.2483C6.01006 25.3697 5.9462 25.4794 5.85045 25.5565C5.83192 25.5712 5.81246 25.5846 5.7922 25.5968L4.37826 27.6132L7.38737 30.6228L9.45451 29.1725L9.45998 29.166C9.53186 29.0687 9.63779 29.002 9.75665 28.9793C9.8755 28.9566 9.99854 28.9796 10.1012 29.0436C11.4615 29.9198 12.9673 30.5459 14.5477 30.8926C14.6676 30.9189 14.7736 30.9886 14.8453 31.0883C14.917 31.1881 14.9493 31.3107 14.936 31.4328L14.9355 31.4403Z" fill="url(#paint0_linear)"/>
<path d="M22.1606 27.1886C22.0485 27.1888 21.9396 27.1512 21.8515 27.0818C21.7635 27.0124 21.7014 26.9154 21.6754 26.8063C21.6493 26.6973 21.6608 26.5827 21.7081 26.481C21.7553 26.3793 21.8354 26.2965 21.9355 26.2461C22.3548 26.0348 22.7567 25.7906 23.1374 25.5157C23.2444 25.438 23.3778 25.406 23.5084 25.4267C23.6389 25.4474 23.756 25.5191 23.8337 25.626C23.9114 25.733 23.9434 25.8664 23.9227 25.997C23.902 26.1276 23.8303 26.2446 23.7234 26.3223C23.2998 26.6281 22.8526 26.9 22.3861 27.1353C22.3161 27.1704 22.2389 27.1886 22.1606 27.1886Z" fill="url(#paint1_linear)"/>
<path d="M17.5 28.2987C15.3642 28.2987 13.2764 27.6654 11.5006 26.4788C9.72473 25.2922 8.34063 23.6057 7.5233 21.6325C6.70597 19.6593 6.49212 17.488 6.90879 15.3933C7.32546 13.2985 8.35394 11.3744 9.86417 9.86417C11.3744 8.35394 13.2985 7.32546 15.3933 6.90879C17.488 6.49212 19.6593 6.70597 21.6325 7.5233C23.6057 8.34063 25.2922 9.72473 26.4788 11.5006C27.6654 13.2764 28.2987 15.3642 28.2987 17.5C28.2987 17.8047 28.2868 18.0835 28.2619 18.3524C28.2573 18.4185 28.2395 18.4831 28.2096 18.5423C28.1797 18.6015 28.1382 18.6542 28.0877 18.6971C28.0372 18.7401 27.9786 18.7725 27.9153 18.7925C27.8521 18.8125 27.7855 18.8197 27.7194 18.8136C27.6534 18.8075 27.5892 18.7882 27.5307 18.757C27.4722 18.7257 27.4205 18.6831 27.3787 18.6316C27.3369 18.5801 27.3058 18.5208 27.2872 18.4571C27.2687 18.3934 27.263 18.3267 27.2706 18.2608C27.2921 18.0228 27.303 17.7738 27.303 17.5C27.303 15.5612 26.7281 13.6659 25.6509 12.0538C24.5737 10.4417 23.0427 9.1852 21.2515 8.44324C19.4602 7.70127 17.4891 7.50714 15.5876 7.88539C13.686 8.26364 11.9392 9.19729 10.5683 10.5683C9.19729 11.9392 8.26364 13.686 7.88539 15.5876C7.50714 17.4891 7.70127 19.4602 8.44324 21.2515C9.1852 23.0427 10.4417 24.5737 12.0538 25.6509C13.6659 26.7281 15.5612 27.303 17.5 27.303C17.7738 27.303 18.0228 27.2921 18.2608 27.2706C18.3267 27.263 18.3934 27.2687 18.4571 27.2872C18.5208 27.3058 18.5801 27.3369 18.6316 27.3787C18.6831 27.4205 18.7257 27.4722 18.757 27.5307C18.7882 27.5892 18.8075 27.6534 18.8136 27.7194C18.8197 27.7855 18.8125 27.8521 18.7925 27.9153C18.7725 27.9786 18.7401 28.0372 18.6971 28.0877C18.6542 28.1382 18.6015 28.1797 18.5423 28.2096C18.4831 28.2395 18.4185 28.2573 18.3524 28.2619C18.0835 28.2868 17.8047 28.2987 17.5 28.2987Z" fill="url(#paint2_linear)"/>
<path d="M25.8985 23.9574C25.8067 23.9573 25.7166 23.9317 25.6384 23.8836C25.5601 23.8354 25.4967 23.7666 25.4552 23.6846C25.4136 23.6027 25.3956 23.5109 25.403 23.4193C25.4104 23.3277 25.443 23.24 25.4973 23.1658C25.7793 22.7768 26.0291 22.3653 26.2441 21.9356C26.2732 21.8767 26.3137 21.8242 26.3632 21.781C26.4127 21.7379 26.4703 21.705 26.5326 21.6842C26.5949 21.6634 26.6607 21.6551 26.7262 21.6599C26.7917 21.6646 26.8556 21.6823 26.9143 21.7118C26.9729 21.7414 27.0252 21.7823 27.068 21.8321C27.1108 21.8819 27.1433 21.9397 27.1636 22.0022C27.184 22.0646 27.1918 22.1305 27.1865 22.1959C27.1813 22.2614 27.1632 22.3252 27.1332 22.3836C26.8926 22.8619 26.6136 23.3197 26.2988 23.7528C26.2528 23.8159 26.1926 23.8673 26.1231 23.9028C26.0536 23.9384 25.9766 23.9571 25.8985 23.9574Z" fill="url(#paint3_linear)"/>
<path d="M20.53 20.6326C20.4316 20.6325 20.3353 20.6033 20.2535 20.5486C20.1716 20.4939 20.1078 20.4162 20.0701 20.3252C20.0325 20.2342 20.0226 20.1342 20.0418 20.0376C20.061 19.941 20.1084 19.8523 20.178 19.7827L22.4612 17.5L20.178 15.2173C20.0846 15.1239 20.0321 14.9973 20.032 14.8652C20.032 14.7331 20.0844 14.6065 20.1778 14.513C20.2711 14.4196 20.3978 14.3671 20.5298 14.3671C20.6619 14.367 20.7886 14.4194 20.882 14.5128L23.5172 17.1475C23.6105 17.2409 23.663 17.3675 23.663 17.4995C23.663 17.6315 23.6105 17.7581 23.5172 17.8515L20.882 20.4872C20.7886 20.5804 20.662 20.6327 20.53 20.6326Z" fill="url(#paint4_linear)"/>
<path d="M14.47 20.6326C14.338 20.6327 14.2114 20.5804 14.118 20.4872L11.4828 17.8525C11.3895 17.7592 11.337 17.6325 11.337 17.5005C11.337 17.3685 11.3895 17.2419 11.4828 17.1485L14.118 14.5128C14.1639 14.4653 14.2189 14.4274 14.2796 14.4013C14.3404 14.3752 14.4057 14.3614 14.4718 14.3609C14.5379 14.3603 14.6035 14.3729 14.6646 14.3979C14.7258 14.4229 14.7814 14.4599 14.8282 14.5067C14.8749 14.5534 14.9119 14.609 14.9369 14.6702C14.9619 14.7314 14.9745 14.7969 14.974 14.863C14.9734 14.9291 14.9597 14.9945 14.9336 15.0552C14.9075 15.116 14.8695 15.1709 14.822 15.2168L12.5388 17.5L14.822 19.7828C14.8916 19.8524 14.939 19.9411 14.9582 20.0376C14.9774 20.1342 14.9675 20.2343 14.9299 20.3253C14.8922 20.4162 14.8284 20.494 14.7465 20.5487C14.6647 20.6034 14.5685 20.6326 14.47 20.6326Z" fill="url(#paint5_linear)"/>
<path d="M15.9816 23.206C15.9342 23.206 15.8871 23.1991 15.8417 23.1856C15.715 23.1486 15.6082 23.0628 15.5448 22.9472C15.4813 22.8315 15.4663 22.6954 15.5031 22.5687L18.5401 12.1528C18.5787 12.0281 18.6648 11.9235 18.7798 11.8616C18.8948 11.7997 19.0295 11.7855 19.1549 11.822C19.2803 11.8585 19.3863 11.9428 19.4501 12.0567C19.5139 12.1707 19.5304 12.3052 19.496 12.4311L16.459 22.847C16.429 22.9504 16.3662 23.0413 16.2801 23.106C16.194 23.1708 16.0893 23.2058 15.9816 23.206Z" fill="url(#paint6_linear)"/>
<defs>
<linearGradient id="paint0_linear" x1="0.074707" y1="2.33355" x2="33.9573" y2="33.6346" gradientUnits="userSpaceOnUse">
<stop stop-color="#FFF5BA"/>
<stop offset="1" stop-color="#DA6C37"/>
</linearGradient>
<linearGradient id="paint1_linear" x1="21.6617" y1="25.5351" x2="23.3616" y2="27.5488" gradientUnits="userSpaceOnUse">
<stop stop-color="#FFF5BA"/>
<stop offset="1" stop-color="#DA6C37"/>
</linearGradient>
<linearGradient id="paint2_linear" x1="6.70129" y1="8.10113" x2="27.6988" y2="27.4988" gradientUnits="userSpaceOnUse">
<stop stop-color="#FFF5BA"/>
<stop offset="1" stop-color="#DA6C37"/>
</linearGradient>
<linearGradient id="paint3_linear" x1="25.4014" y1="21.8076" x2="27.5257" y2="23.3329" gradientUnits="userSpaceOnUse">
<stop stop-color="#FFF5BA"/>
<stop offset="1" stop-color="#DA6C37"/>
</linearGradient>
<linearGradient id="paint4_linear" x1="20.032" y1="14.7732" x2="25.1173" y2="17.4956" gradientUnits="userSpaceOnUse">
<stop stop-color="#FFF5BA"/>
<stop offset="1" stop-color="#DA6C37"/>
</linearGradient>
<linearGradient id="paint5_linear" x1="11.337" y1="14.7673" x2="16.4292" y2="17.4953" gradientUnits="userSpaceOnUse">
<stop stop-color="#FFF5BA"/>
<stop offset="1" stop-color="#DA6C37"/>
</linearGradient>
<linearGradient id="paint6_linear" x1="15.4833" y1="12.5413" x2="22.0461" y2="14.6839" gradientUnits="userSpaceOnUse">
<stop stop-color="#FFF5BA"/>
<stop offset="1" stop-color="#DA6C37"/>
</linearGradient>
</defs>
</svg>
