<svg width="50" height="50" viewBox="0 0 50 50" fill="none" xmlns="http://www.w3.org/2000/svg">
<path d="M48.0195 42.2273L34.1461 28.3539C34.0461 28.2539 33.9203 28.1828 33.7828 28.1484L33.5938 28.1016V1.5625C33.5938 1.13125 33.2445 0.78125 32.8125 0.78125H10.9375C10.7297 0.78125 10.5312 0.863281 10.3852 1.01016L1.01016 10.3852C0.863281 10.5312 0.78125 10.7305 0.78125 10.9375V40.625C0.78125 41.057 1.13047 41.4062 1.5625 41.4062H32.8125C33.2445 41.4062 33.5938 41.057 33.5938 40.625V39.3859L42.2273 48.0195C43.0008 48.793 44.0297 49.2188 45.1234 49.2188C47.3812 49.2188 49.2188 47.3812 49.2188 45.1234C49.2188 44.0289 48.793 43.0008 48.0195 42.2273ZM32.4594 29.4281L31.4492 31.4492L29.4281 32.4594L28.4172 28.4172L32.4594 29.4281ZM31.8773 32.982L42.6453 43.75L41.4062 44.9891L30.2258 33.8078L31.8773 32.982ZM43.75 42.6453L32.982 31.8773L33.8078 30.2258L44.9891 41.4062L43.75 42.6453ZM10.1562 3.44844V10.1562H3.44844L10.1562 3.44844ZM32.0312 39.8438H2.34375V11.7188H10.9375C11.3695 11.7188 11.7188 11.3687 11.7188 10.9375V2.34375H32.0312V27.7109L27.5328 26.5867C27.268 26.5195 26.9852 26.5984 26.7914 26.7922C26.5977 26.9859 26.5187 27.2672 26.5859 27.5336L28.1484 33.7836C28.1828 33.9211 28.2539 34.0469 28.3539 34.1469L32.0312 37.8234V39.8438ZM45.1234 47.6562C44.4469 47.6562 43.8102 47.393 43.332 46.9148L42.5109 46.0938L46.0938 42.5109L46.9148 43.332C47.393 43.8102 47.6562 44.4469 47.6562 45.1234C47.6562 46.5203 46.5203 47.6562 45.1234 47.6562Z" fill="url(#paint0_linear)"/>
<path d="M20.6195 32.7016L17.6336 32.1047L16.6187 30.7508C15.7516 29.5961 14.3719 28.9062 12.9281 28.9062H9.86328C8.31719 28.9062 6.88359 29.6734 6.025 30.9602C5.80078 31.2977 5.51641 31.582 5.17891 31.8063L3.47266 32.9437C3.25547 33.0891 3.125 33.3328 3.125 33.5938V35.9375C3.125 36.7992 3.82578 37.5 4.6875 37.5H5.6125C5.93594 38.407 6.79531 39.0625 7.8125 39.0625C8.82969 39.0625 9.68906 38.407 10.0125 37.5H14.9883C15.3117 38.407 16.1711 39.0625 17.1883 39.0625C18.2055 39.0625 19.0648 38.407 19.3883 37.5H20.3125C21.1742 37.5 21.875 36.7992 21.875 35.9375V34.2336C21.875 33.4922 21.3469 32.8484 20.6195 32.7016ZM7.8125 37.5C7.38125 37.5 7.03125 37.15 7.03125 36.7188C7.03125 36.2875 7.38125 35.9375 7.8125 35.9375C8.24375 35.9375 8.59375 36.2875 8.59375 36.7188C8.59375 37.15 8.24375 37.5 7.8125 37.5ZM17.1875 37.5C16.7563 37.5 16.4062 37.15 16.4062 36.7188C16.4062 36.2875 16.7563 35.9375 17.1875 35.9375C17.6187 35.9375 17.9688 36.2875 17.9688 36.7188C17.9688 37.15 17.6187 37.5 17.1875 37.5ZM20.3125 35.9375H19.3875C19.0641 35.0305 18.2047 34.375 17.1875 34.375C16.1703 34.375 15.3109 35.0305 14.9875 35.9375H10.0117C9.68828 35.0305 8.82891 34.375 7.81172 34.375C6.79453 34.375 5.93516 35.0305 5.61172 35.9375H4.6875V34.0117L6.04531 33.1062C6.55469 32.7664 6.98516 32.3367 7.325 31.8266C7.89297 30.9766 8.84062 30.4688 9.86328 30.4688H12.9281C13.8836 30.4688 14.7961 30.925 15.3688 31.6891L16.5625 33.2812C16.6773 33.4352 16.8453 33.5414 17.0344 33.5789L20.3125 34.2336V35.9375Z" fill="url(#paint1_linear)"/>
<path d="M24.2188 25.7812H25.7812V27.3438H24.2188V25.7812Z" fill="url(#paint2_linear)"/>
<path d="M7.8125 25.7812H22.6562V27.3438H7.8125V25.7812Z" fill="url(#paint3_linear)"/>
<path d="M7.8125 22.6562H9.375V24.2188H7.8125V22.6562Z" fill="url(#paint4_linear)"/>
<path d="M10.9375 22.6562H25.7812V24.2188H10.9375V22.6562Z" fill="url(#paint5_linear)"/>
<path d="M23.4375 11.7188H29.6875C30.1195 11.7188 30.4688 11.3688 30.4688 10.9375V4.6875C30.4688 4.25625 30.1195 3.90625 29.6875 3.90625H23.4375C23.0055 3.90625 22.6562 4.25625 22.6562 4.6875V10.9375C22.6562 11.3688 23.0055 11.7188 23.4375 11.7188ZM24.2188 5.46875H27.6422L26.4656 7.82188L25.65 6.59844L24.35 7.46484L25.9125 9.80859C26.0578 10.0266 26.3023 10.1562 26.5625 10.1562C26.5789 10.1562 26.5945 10.1562 26.6109 10.1547C26.8883 10.1375 27.1367 9.97344 27.2609 9.72422L28.9062 6.43438V10.1562H26.5625H24.2188V5.46875Z" fill="url(#paint6_linear)"/>
<path d="M23.4375 21.0938H29.6875C30.1195 21.0938 30.4688 20.7438 30.4688 20.3125V14.0625C30.4688 13.6313 30.1195 13.2812 29.6875 13.2812H23.4375C23.0055 13.2812 22.6562 13.6313 22.6562 14.0625V20.3125C22.6562 20.7438 23.0055 21.0938 23.4375 21.0938ZM24.2188 14.8438H27.6422L26.4656 17.1969L25.65 15.9734L24.35 16.8398L25.9125 19.1836C26.0578 19.4016 26.3023 19.5312 26.5625 19.5312C26.5789 19.5312 26.5945 19.5312 26.6109 19.5297C26.8883 19.5125 27.1367 19.3484 27.2609 19.0992L28.9062 15.8094V19.5312H26.5625H24.2188V14.8438Z" fill="url(#paint7_linear)"/>
<path d="M19.5312 19.5312H21.0938V21.0938H19.5312V19.5312Z" fill="url(#paint8_linear)"/>
<path d="M13.2812 19.5312H17.9688V21.0938H13.2812V19.5312Z" fill="url(#paint9_linear)"/>
<path d="M19.5312 16.4062H21.0938V17.9688H19.5312V16.4062Z" fill="url(#paint10_linear)"/>
<path d="M13.2812 16.4062H17.9688V17.9688H13.2812V16.4062Z" fill="url(#paint11_linear)"/>
<path d="M19.5312 10.1562H21.0938V11.7188H19.5312V10.1562Z" fill="url(#paint12_linear)"/>
<path d="M13.2812 10.1562H17.9688V11.7188H13.2812V10.1562Z" fill="url(#paint13_linear)"/>
<path d="M19.5312 7.03125H21.0938V8.59375H19.5312V7.03125Z" fill="url(#paint14_linear)"/>
<path d="M13.2812 7.03125H17.9688V8.59375H13.2812V7.03125Z" fill="url(#paint15_linear)"/>
<defs>
<linearGradient id="paint0_linear" x1="0.78125" y1="3.92072" x2="47.8733" y2="47.4248" gradientUnits="userSpaceOnUse">
<stop stop-color="#FFF5BA"/>
<stop offset="1" stop-color="#DA6C37"/>
</linearGradient>
<linearGradient id="paint1_linear" x1="3.125" y1="29.5645" x2="11.7689" y2="44.3066" gradientUnits="userSpaceOnUse">
<stop stop-color="#FFF5BA"/>
<stop offset="1" stop-color="#DA6C37"/>
</linearGradient>
<linearGradient id="paint2_linear" x1="24.2187" y1="25.8825" x2="25.7378" y2="27.2859" gradientUnits="userSpaceOnUse">
<stop stop-color="#FFF5BA"/>
<stop offset="1" stop-color="#DA6C37"/>
</linearGradient>
<linearGradient id="paint3_linear" x1="7.8125" y1="25.8825" x2="8.15532" y2="28.8912" gradientUnits="userSpaceOnUse">
<stop stop-color="#FFF5BA"/>
<stop offset="1" stop-color="#DA6C37"/>
</linearGradient>
<linearGradient id="paint4_linear" x1="7.8125" y1="22.7575" x2="9.3316" y2="24.1609" gradientUnits="userSpaceOnUse">
<stop stop-color="#FFF5BA"/>
<stop offset="1" stop-color="#DA6C37"/>
</linearGradient>
<linearGradient id="paint5_linear" x1="10.9375" y1="22.7575" x2="11.2803" y2="25.7662" gradientUnits="userSpaceOnUse">
<stop stop-color="#FFF5BA"/>
<stop offset="1" stop-color="#DA6C37"/>
</linearGradient>
<linearGradient id="paint6_linear" x1="22.6562" y1="4.41262" x2="30.2517" y2="11.4294" gradientUnits="userSpaceOnUse">
<stop stop-color="#FFF5BA"/>
<stop offset="1" stop-color="#DA6C37"/>
</linearGradient>
<linearGradient id="paint7_linear" x1="22.6562" y1="13.7876" x2="30.2517" y2="20.8044" gradientUnits="userSpaceOnUse">
<stop stop-color="#FFF5BA"/>
<stop offset="1" stop-color="#DA6C37"/>
</linearGradient>
<linearGradient id="paint8_linear" x1="19.5312" y1="19.6325" x2="21.0503" y2="21.0359" gradientUnits="userSpaceOnUse">
<stop stop-color="#FFF5BA"/>
<stop offset="1" stop-color="#DA6C37"/>
</linearGradient>
<linearGradient id="paint9_linear" x1="13.2812" y1="19.6325" x2="14.2543" y2="22.3292" gradientUnits="userSpaceOnUse">
<stop stop-color="#FFF5BA"/>
<stop offset="1" stop-color="#DA6C37"/>
</linearGradient>
<linearGradient id="paint10_linear" x1="19.5312" y1="16.5075" x2="21.0503" y2="17.9109" gradientUnits="userSpaceOnUse">
<stop stop-color="#FFF5BA"/>
<stop offset="1" stop-color="#DA6C37"/>
</linearGradient>
<linearGradient id="paint11_linear" x1="13.2812" y1="16.5075" x2="14.2543" y2="19.2042" gradientUnits="userSpaceOnUse">
<stop stop-color="#FFF5BA"/>
<stop offset="1" stop-color="#DA6C37"/>
</linearGradient>
<linearGradient id="paint12_linear" x1="19.5312" y1="10.2575" x2="21.0503" y2="11.6609" gradientUnits="userSpaceOnUse">
<stop stop-color="#FFF5BA"/>
<stop offset="1" stop-color="#DA6C37"/>
</linearGradient>
<linearGradient id="paint13_linear" x1="13.2812" y1="10.2575" x2="14.2543" y2="12.9542" gradientUnits="userSpaceOnUse">
<stop stop-color="#FFF5BA"/>
<stop offset="1" stop-color="#DA6C37"/>
</linearGradient>
<linearGradient id="paint14_linear" x1="19.5312" y1="7.13252" x2="21.0503" y2="8.53588" gradientUnits="userSpaceOnUse">
<stop stop-color="#FFF5BA"/>
<stop offset="1" stop-color="#DA6C37"/>
</linearGradient>
<linearGradient id="paint15_linear" x1="13.2812" y1="7.13252" x2="14.2543" y2="9.82917" gradientUnits="userSpaceOnUse">
<stop stop-color="#FFF5BA"/>
<stop offset="1" stop-color="#DA6C37"/>
</linearGradient>
</defs>
</svg>
