<svg width="50" height="50" viewBox="0 0 50 50" fill="none" xmlns="http://www.w3.org/2000/svg">
<path d="M48.3491 34.2317C48.2212 33.5463 47.9574 32.8934 47.5732 32.3116C47.189 31.7298 46.6922 31.2308 46.1121 30.8441C45.9116 30.7105 45.7248 30.5573 45.5544 30.387L45.073 29.9056L44.0965 28.929C42.1222 26.9477 39.5749 25.6375 36.8149 25.1838V25.1838L36.8133 25.1835L36.8126 25.1834L36.8121 25.1833C36.0846 25.0611 35.3481 24.9998 34.6104 25H24.8203C22.0502 24.9999 19.3072 25.5455 16.748 26.6055C14.1887 27.6655 11.8633 29.2193 9.90458 31.178L8.26147 32.8212C7.17637 32.8725 6.11791 33.1745 5.16908 33.7034C4.22025 34.2324 3.40685 34.9739 2.79265 35.8699C2.3011 36.583 1.9476 37.3819 1.75047 38.2253C1.62532 38.7557 1.56224 39.2988 1.5625 39.8438V44.5312C1.5625 44.7384 1.64481 44.9372 1.79133 45.0837C1.93784 45.2302 2.13655 45.3125 2.34375 45.3125H2.61143C2.93669 46.2251 3.53579 47.015 4.32687 47.5744C5.11794 48.1337 6.06242 48.4351 7.03125 48.4375H10.9375C11.9063 48.4351 12.8508 48.1337 13.6419 47.5744C14.433 47.015 15.0321 46.2251 15.3573 45.3125H17.4552C17.7804 46.2251 18.3795 47.015 19.1706 47.5744C19.9617 48.1337 20.9062 48.4351 21.875 48.4375H25.7813C26.7502 48.4363 27.6951 48.1353 28.4862 47.5758C29.2773 47.0163 29.876 46.2257 30.2 45.3125H33.0802C33.4054 46.2251 34.0045 47.015 34.7956 47.5744C35.5867 48.1337 36.5312 48.4351 37.5 48.4375H41.4062C42.3752 48.4363 43.3201 48.1353 44.1112 47.5758C44.9023 47.0163 45.501 46.2257 45.825 45.3125H47.6562C47.8634 45.3125 48.0622 45.2302 48.2087 45.0837C48.3552 44.9372 48.4375 44.7384 48.4375 44.5312V35.1894C48.4375 34.8681 48.4079 34.5475 48.3491 34.2317ZM46.875 35.2038V37.437L44.9886 35.9279C45.5561 35.5499 46.2004 35.3026 46.875 35.2038ZM43.3658 30.4081C41.3686 31.9677 38.907 32.8142 36.373 32.8125H36.1093L37.2977 26.8718C39.4553 27.3692 41.4288 28.4652 42.9915 30.0339L43.3658 30.4081ZM34.6104 26.5625C34.9933 26.5625 35.3756 26.5834 35.7546 26.6204L34.5158 32.8125H30.4688V31.25C30.4688 31.0758 30.4105 30.9065 30.3033 30.7692C30.1961 30.6319 30.046 30.5343 29.877 30.4921L28.0636 30.0387L28.616 29.3483C29.3056 28.4819 30.1813 27.7817 31.1782 27.2995C32.1751 26.8173 33.2676 26.5654 34.375 26.5625H34.6104ZM26.9898 31.3809L28.9062 31.86V32.8125H25.8444L26.9898 31.3809ZM17.3458 28.049C19.7148 27.0652 22.2551 26.5599 24.8203 26.5625H29.3438C28.6086 27.0662 27.9521 27.676 27.3958 28.3722L23.8432 32.8125H10.4799L11.0095 32.2829C12.8215 30.4672 14.975 29.0283 17.3458 28.049ZM6.66895 38.5957L6.88667 38.7589C6.18953 38.8935 5.47291 38.8914 4.77657 38.7527L4.43601 38.684C4.04849 38.6061 3.68686 38.4318 3.38457 38.1771C3.49179 37.839 3.63233 37.5124 3.80414 37.202C4.83862 37.4812 5.81074 37.9542 6.66895 38.5957ZM4.32525 45.3125H6.51768C6.72229 45.8893 7.0384 46.4202 7.44801 46.875H7.03125C6.483 46.8737 5.94465 46.7288 5.46986 46.4546C4.99507 46.1805 4.60043 45.7867 4.32525 45.3125ZM7.69596 43.75L9.64909 42.1875H13.7884L15.7415 43.75H7.69596ZM10.9375 46.875C10.3892 46.8737 9.8509 46.7288 9.37611 46.4546C8.90132 46.1805 8.50667 45.7867 8.2315 45.3125H13.6435C13.3683 45.7867 12.9737 46.1805 12.4989 46.4546C12.0241 46.7288 11.4858 46.8737 10.9375 46.875ZM19.169 45.3125H21.3625C21.5672 45.8889 21.8827 46.4197 22.2911 46.875H21.875C21.3267 46.8737 20.7884 46.7288 20.3136 46.4546C19.8388 46.1805 19.4442 45.7867 19.169 45.3125ZM25.7813 46.875C25.1632 46.875 24.559 46.6917 24.0451 46.3483C23.5312 46.005 23.1307 45.5169 22.8941 44.9459C22.6576 44.3749 22.5957 43.7465 22.7163 43.1403C22.8369 42.5342 23.1345 41.9773 23.5715 41.5403C24.0086 41.1033 24.5654 40.8056 25.1716 40.685C25.7778 40.5645 26.4061 40.6264 26.9771 40.8629C27.5482 41.0994 28.0362 41.4999 28.3796 42.0138C28.723 42.5277 28.9062 43.1319 28.9062 43.75C28.9053 44.5785 28.5758 45.3728 27.9899 45.9587C27.4041 46.5445 26.6098 46.8741 25.7813 46.875ZM34.794 45.3125H36.9875C37.1922 45.8889 37.5077 46.4197 37.9161 46.875H37.5C36.9517 46.8737 36.4134 46.7288 35.9386 46.4546C35.4638 46.1805 35.0692 45.7867 34.794 45.3125ZM41.4062 46.875C40.7882 46.875 40.184 46.6917 39.6701 46.3483C39.1562 46.005 38.7556 45.5169 38.5191 44.9459C38.2826 44.3749 38.2207 43.7465 38.3413 43.1403C38.4619 42.5342 38.7595 41.9773 39.1965 41.5403C39.6336 41.1033 40.1904 40.8056 40.7966 40.685C41.4028 40.5645 42.0311 40.6264 42.6021 40.8629C43.1732 41.0994 43.6612 41.4999 44.0046 42.0138C44.348 42.5277 44.5312 43.1319 44.5312 43.75C44.5303 44.5785 44.2008 45.3728 43.6149 45.9587C43.0291 46.5445 42.2348 46.8741 41.4062 46.875ZM46.0938 43.75C46.0938 42.5068 45.5999 41.3145 44.7208 40.4354C43.8417 39.5564 42.6495 39.0625 41.4062 39.0625C40.163 39.0625 38.9708 39.5564 38.0917 40.4354C37.2126 41.3145 36.7188 42.5068 36.7188 43.75H30.4688C30.4688 42.5068 29.9749 41.3145 29.0958 40.4354C28.2167 39.5564 27.0245 39.0625 25.7813 39.0625C24.538 39.0625 23.3458 39.5564 22.4667 40.4354C21.5876 41.3145 21.0938 42.5068 21.0938 43.75H18.2429L14.5506 40.7962C14.412 40.6854 14.2399 40.625 14.0625 40.625H9.375C9.19759 40.625 9.02546 40.6854 8.88691 40.7962L5.19464 43.75H3.125V39.8661C3.44196 40.0281 3.77966 40.1458 4.12865 40.216L4.4692 40.2847C5.66909 40.5238 6.91056 40.4465 8.07152 40.0604L8.84104 39.8036C8.97627 39.7584 9.09658 39.6772 9.18894 39.5686C9.28129 39.46 9.34217 39.3282 9.36498 39.1875C9.3878 39.0468 9.37167 38.9025 9.31834 38.7703C9.26502 38.6381 9.17654 38.523 9.06248 38.4375L7.60651 37.3457C6.76284 36.715 5.82513 36.221 4.82781 35.8819C5.84343 34.9152 7.19164 34.3758 8.59375 34.375H36.373C39.3215 34.3771 42.1819 33.3697 44.4783 31.5205C44.7137 31.7521 44.9706 31.961 45.2454 32.1442C45.7465 32.4787 46.1576 32.9315 46.4421 33.4626C46.4794 33.5322 46.5131 33.6034 46.5457 33.6751C45.2788 33.8825 44.1083 34.4803 43.1975 35.3851C43.1199 35.4628 43.0594 35.556 43.0202 35.6586C42.981 35.7613 42.9639 35.871 42.97 35.9807C42.9761 36.0904 43.0052 36.1976 43.0555 36.2953C43.1059 36.393 43.1762 36.4789 43.262 36.5476L46.875 39.438V43.75H46.0938Z" fill="url(#paint0_linear)"/>
<path d="M20.8139 35.353H20.8138L19.8613 35.5435C18.4008 35.8377 17.0241 36.4532 15.831 37.3455L14.375 38.4375C14.2609 38.523 14.1725 38.6381 14.1192 38.7704C14.0659 38.9026 14.0498 39.0469 14.0726 39.1876C14.0954 39.3283 14.1563 39.4601 14.2487 39.5687C14.3411 39.6773 14.4614 39.7585 14.5966 39.8036L15.3659 40.06C16.5268 40.4465 17.7684 40.5238 18.9683 40.2843L19.3078 40.2164C20.0321 40.0694 20.7002 39.7208 21.2351 39.2108C21.77 38.7007 22.15 38.0499 22.3312 37.3334L22.4083 37.0252C22.4642 36.8015 22.4627 36.5673 22.4038 36.3444C22.3449 36.1215 22.2306 35.917 22.0715 35.7502C21.9124 35.5833 21.7136 35.4593 21.4938 35.3899C21.2739 35.3205 21.04 35.3077 20.8139 35.353H20.8139ZM20.8154 36.9545C20.7067 37.3844 20.4787 37.7749 20.1577 38.0809C19.8368 38.3869 19.4359 38.5961 19.0013 38.6843L18.6618 38.7522C17.9652 38.8912 17.2483 38.8934 16.5509 38.7587L16.7684 38.5955C17.7747 37.843 18.9359 37.3238 20.1677 37.0756L20.8176 36.9457L20.8154 36.9545Z" fill="url(#paint1_linear)"/>
<path d="M25.7812 44.5312C26.2127 44.5312 26.5625 44.1815 26.5625 43.75C26.5625 43.3185 26.2127 42.9688 25.7812 42.9688C25.3498 42.9688 25 43.3185 25 43.75C25 44.1815 25.3498 44.5312 25.7812 44.5312Z" fill="url(#paint2_linear)"/>
<path d="M41.4062 44.5312C41.8377 44.5312 42.1875 44.1815 42.1875 43.75C42.1875 43.3185 41.8377 42.9688 41.4062 42.9688C40.9748 42.9688 40.625 43.3185 40.625 43.75C40.625 44.1815 40.9748 44.5312 41.4062 44.5312Z" fill="url(#paint3_linear)"/>
<path d="M39.5202 35.9374H39.0625V37.4999H39.5202C39.9732 37.5012 40.422 37.4125 40.8406 37.2392C41.2592 37.0658 41.6392 36.8111 41.9587 36.4898L40.8538 35.385C40.6791 35.5607 40.4712 35.7 40.2423 35.7948C40.0134 35.8896 39.7679 35.9381 39.5202 35.9374Z" fill="url(#paint4_linear)"/>
<path d="M33.5938 35.9375H30.4688V37.5H33.5938V35.9375Z" fill="url(#paint5_linear)"/>
<path d="M21.7535 21.9065L24.6506 23.355C24.7591 23.4093 24.8787 23.4375 25 23.4375C25.1213 23.4375 25.2409 23.4093 25.3494 23.355L28.2465 21.9065C30.3228 20.8683 32.069 19.2724 33.2894 17.2977C34.5098 15.3231 35.1562 13.0475 35.1562 10.7262V2.34375C35.1563 2.19527 35.1139 2.04985 35.0343 1.92455C34.9546 1.79925 34.8409 1.69925 34.7064 1.63627C34.5719 1.57328 34.4223 1.54992 34.275 1.56892C34.1278 1.58793 33.989 1.6485 33.8749 1.74356C32.6995 2.72341 31.2177 3.26004 29.6875 3.26004C28.1573 3.26004 26.6755 2.72341 25.5001 1.74356C25.3597 1.62658 25.1827 1.56253 25 1.56253C24.8173 1.56253 24.6403 1.62658 24.4999 1.74356C23.3245 2.72341 21.8427 3.26004 20.3125 3.26004C18.7823 3.26004 17.3005 2.72341 16.1251 1.74356C16.011 1.6485 15.8722 1.58793 15.725 1.56892C15.5777 1.54992 15.4281 1.57328 15.2936 1.63627C15.1591 1.69925 15.0454 1.79925 14.9657 1.92455C14.8861 2.04985 14.8437 2.19527 14.8438 2.34375V10.7262C14.8438 13.0475 15.4902 15.3231 16.7106 17.2977C17.931 19.2724 19.6772 20.8683 21.7535 21.9065ZM25 3.32904C26.5885 4.45625 28.5302 4.97279 30.4688 4.78387V10.7262C30.4737 12.1781 30.0717 13.6023 29.3084 14.8374C28.5451 16.0725 27.451 17.069 26.1501 17.7139L25 18.2889L23.8499 17.7139C22.549 17.069 21.4549 16.0725 20.6916 14.8374C19.9283 13.6023 19.5263 12.1781 19.5312 10.7262V4.78381C21.4698 4.97274 23.4115 4.45622 25 3.32904ZM16.4062 3.81952C16.9026 4.09287 17.4263 4.31318 17.9688 4.47679V10.7262C17.9628 12.4684 18.4452 14.1775 19.3612 15.6596C20.2771 17.1417 21.59 18.3375 23.151 19.1114L24.6506 19.8612C24.7591 19.9154 24.8787 19.9437 25 19.9437C25.1213 19.9437 25.2409 19.9154 25.3494 19.8612L26.849 19.1114C28.41 18.3375 29.7229 17.1417 30.6388 15.6596C31.5548 14.1775 32.0372 12.4684 32.0312 10.7262V4.47683C32.5737 4.31321 33.0974 4.09289 33.5938 3.81952V10.7262C33.5937 12.7574 33.0281 14.7485 31.9602 16.4763C30.8923 18.2042 29.3644 19.6006 27.5476 20.509L25 21.7828L22.4524 20.509C20.6356 19.6006 19.1077 18.2042 18.0398 16.4763C16.9719 14.7485 16.4063 12.7574 16.4062 10.7262V3.81952Z" fill="url(#paint6_linear)"/>
<defs>
<linearGradient id="paint0_linear" x1="1.5625" y1="26.5191" x2="20.6997" y2="61.8774" gradientUnits="userSpaceOnUse">
<stop stop-color="#FFF5BA"/>
<stop offset="1" stop-color="#DA6C37"/>
</linearGradient>
<linearGradient id="paint1_linear" x1="14.0625" y1="35.6566" x2="18.6238" y2="42.5938" gradientUnits="userSpaceOnUse">
<stop stop-color="#FFF5BA"/>
<stop offset="1" stop-color="#DA6C37"/>
</linearGradient>
<linearGradient id="paint2_linear" x1="25" y1="43.07" x2="26.5191" y2="44.4734" gradientUnits="userSpaceOnUse">
<stop stop-color="#FFF5BA"/>
<stop offset="1" stop-color="#DA6C37"/>
</linearGradient>
<linearGradient id="paint3_linear" x1="40.625" y1="43.07" x2="42.1441" y2="44.4734" gradientUnits="userSpaceOnUse">
<stop stop-color="#FFF5BA"/>
<stop offset="1" stop-color="#DA6C37"/>
</linearGradient>
<linearGradient id="paint4_linear" x1="39.0625" y1="35.5221" x2="41.0694" y2="38.061" gradientUnits="userSpaceOnUse">
<stop stop-color="#FFF5BA"/>
<stop offset="1" stop-color="#DA6C37"/>
</linearGradient>
<linearGradient id="paint5_linear" x1="30.4687" y1="36.0388" x2="31.7446" y2="38.396" gradientUnits="userSpaceOnUse">
<stop stop-color="#FFF5BA"/>
<stop offset="1" stop-color="#DA6C37"/>
</linearGradient>
<linearGradient id="paint6_linear" x1="14.8437" y1="2.98032" x2="35.9295" y2="21.0682" gradientUnits="userSpaceOnUse">
<stop stop-color="#FFF5BA"/>
<stop offset="1" stop-color="#DA6C37"/>
</linearGradient>
</defs>
</svg>
