<svg width="80" height="82" viewBox="0 0 80 82" fill="none" xmlns="http://www.w3.org/2000/svg">
<g clip-path="url(#clip0)">
<path fill-rule="evenodd" clip-rule="evenodd" d="M26.6639 7.56418C26.7425 9.62265 29.3937 14.6425 29.9603 17.3567C27.7916 14.132 25.0266 8.28706 22.2154 5.65619C21.6299 5.11873 21.3506 4.92525 20.3449 4.69414C15.0344 3.4741 9.71837 2.27556 4.40781 1.04209C3.04425 0.706179 1.37165 0.0746622 -3.86981e-05 -0.000582341C-0.0190147 1.41563 0.355083 2.25944 0.658699 3.49291C2.9331 12.6647 15.994 17.7759 17.3169 19.9285C15.8042 18.91 7.41957 14.5243 5.93131 13.4359C5.27799 12.963 4.09064 11.6946 3.22046 12.705C2.3584 14.7796 6.16986 18.308 7.10511 19.2943C8.89156 21.1754 10.8027 22.5459 12.7437 24.2765C12.7437 24.9376 12.5973 25.1311 12.3018 25.6954C8.45511 33.0291 9.45813 44.1706 17.7561 49.0562C20.1172 50.7733 35.439 58.9562 39.3805 60.7594C40.3917 61.2216 39.5811 61.2323 40.5842 60.7755C44.4688 59.0072 59.8773 50.7787 62.2439 49.0562C70.5418 44.1706 71.5448 33.0291 67.6981 25.6954C67.4026 25.1311 67.2617 24.9376 67.2562 24.2765C69.1972 22.5459 71.1084 21.1834 72.8948 19.2943C73.8301 18.308 77.6415 14.7662 76.7713 12.7157C75.9093 11.7053 74.7219 12.9845 74.0605 13.4467C72.5695 14.5216 64.1876 18.91 62.6749 19.9285C64.0059 17.7786 77.0587 12.6727 79.3331 3.48216C79.6367 2.25944 80.0108 1.41563 79.9891 -0.0113316C78.6201 0.063913 76.9475 0.695429 75.584 1.03134C70.2734 2.2675 64.9574 3.46335 59.6469 4.68339C58.6411 4.9145 58.3619 5.09723 57.7764 5.64544C54.9652 8.27632 52.1974 14.1158 50.0315 17.346C50.598 14.6318 53.2493 9.61191 53.3279 7.55343C48.7628 3.43917 31.1965 3.4741 26.6639 7.56418ZM39.9986 39.3953C35.1191 39.2421 35.6911 47.4572 36.6751 50.4616L39.3073 57.7765C38.6757 57.6985 19.9762 47.4518 19.0518 46.7585C17.6964 45.7346 15.9859 43.9718 15.2566 42.7544C11.1904 36.0362 12.7979 30.4197 15.3786 25.5181C22.107 27.848 32.4055 36.184 35.42 40.747C35.9947 38.917 37.979 37.9737 40.004 37.92C42.0317 37.9737 44.0134 38.917 44.5935 40.747C47.6053 36.1786 57.9011 27.848 64.6321 25.5181C67.2129 30.4197 68.815 36.0308 64.7541 42.7544C64.0195 43.9718 62.3144 45.7346 60.9589 46.7585C60.0372 47.4545 41.3378 57.7012 40.7061 57.7765L43.3384 50.4697C44.3089 47.4626 44.8727 39.2341 39.9986 39.3953ZM38.551 44.8183C38.7435 42.8297 39.348 41.8972 39.9986 41.8622C40.6519 41.8972 41.2564 42.8297 41.4489 44.8183C41.72 47.5701 40.8119 50.7787 39.9986 53.4956C39.1881 50.7895 38.2799 47.5647 38.551 44.8183ZM29.6811 9.25987C31.4459 13.7342 33.0724 18.1307 31.1748 21.7666C29.044 21.5785 24.7636 12.8232 19.8055 7.70123C18.5747 6.43282 6.46264 4.47647 3.54034 3.29943C4.49456 6.13991 8.09186 9.72208 10.1386 11.4258C12.2883 13.2156 14.6006 14.7017 18.2711 17.3379C20.6106 19.0363 21.6407 20.7132 21.2151 23.5187C19.1061 23.6423 9.79428 18.5284 7.61746 16.9267C8.63403 18.3671 16.8344 23.3145 18.3009 23.9648C25.116 27.77 30.3669 30.2289 35.2817 36.5951C36.569 35.5944 38.1622 35.0588 39.798 35.0768C41.5546 35.0597 43.2722 35.5909 44.7074 36.5951C49.6221 30.237 54.8731 27.7781 61.6881 23.9648C63.1628 23.301 71.3605 18.3537 72.3798 16.9133C70.2111 18.5257 60.8912 23.6316 58.7821 23.5053C58.3565 20.7132 59.3839 19.0363 61.7261 17.3245C65.3912 14.6802 67.7035 13.1941 69.8587 11.4124C71.9081 9.70865 75.5027 6.12647 76.4569 3.28599C73.5373 4.47109 61.4252 6.41939 60.1918 7.6878C55.2336 12.8098 50.9532 21.565 48.8062 21.7531C46.9221 18.1253 48.5351 13.7289 50.3107 9.25449C48.4212 5.50302 31.5136 5.64276 29.6811 9.25987Z" fill="url(#paint0_linear)"/>
<path fill-rule="evenodd" clip-rule="evenodd" d="M33.6959 41.3845C33.5929 40.2908 32.7932 39.8151 32.1562 39.3448C31.4866 39.5168 28.5778 42.2713 23.9369 39.2373C20.4127 36.9424 21.2775 32.812 21.8115 31.299C21.2016 30.7616 20.898 30.1919 19.7242 30.1892C18.2929 32.8442 18.7293 36.8241 20.467 39.275C23.8799 44.0906 30.5649 44.2599 33.6959 41.3845Z" fill="url(#paint1_linear)"/>
<path fill-rule="evenodd" clip-rule="evenodd" d="M46.6863 41.3845C46.7921 40.2908 47.5918 39.8151 48.2261 39.3448C48.8957 39.5168 51.8071 42.2713 56.4481 39.2373C59.9722 36.9424 59.1075 32.812 58.5707 31.299C59.1807 30.7616 59.4843 30.1919 60.6608 30.1892C62.0894 32.8442 61.6557 36.8241 59.918 39.275C56.505 44.0906 49.8174 44.2599 46.6863 41.3845Z" fill="url(#paint2_linear)"/>
<path fill-rule="evenodd" clip-rule="evenodd" d="M48.8794 65.3499H45.4068L50.1291 72.7265L44.5474 81.5946H47.9414L51.8857 75.3789L55.7487 81.6H59.121L53.542 72.7883L58.2643 65.3499H54.789L51.7773 70.1386L48.8794 65.3499ZM32.0395 65.3499V76.392C32.0395 79.8586 33.7555 81.6 37.2091 81.6H43.4848V78.6037H37.1685C35.7778 78.6037 35.0838 77.8727 35.0838 76.392V74.6721H43.3736V71.8746H35.0838V68.3489H43.4441V65.3499H32.0395ZM23.9449 65.3499H20.8735V76.392C20.8735 79.8586 22.5976 81.5946 26.0458 81.6H31.0962V78.6037H26.0079C24.6525 78.6037 23.9449 77.8727 23.9449 76.392V65.3499Z" fill="url(#paint3_linear)"/>
</g>
<defs>
<linearGradient id="paint0_linear" x1="-0.000732573" y1="3.95038" x2="58.5541" y2="74.7412" gradientUnits="userSpaceOnUse">
<stop stop-color="#FFF5BA"/>
<stop offset="1" stop-color="#DA6C37"/>
</linearGradient>
<linearGradient id="paint1_linear" x1="18.8665" y1="31.0375" x2="31.6183" y2="44.3845" gradientUnits="userSpaceOnUse">
<stop stop-color="#FFF5BA"/>
<stop offset="1" stop-color="#DA6C37"/>
</linearGradient>
<linearGradient id="paint2_linear" x1="46.6863" y1="31.0375" x2="59.4381" y2="44.3858" gradientUnits="userSpaceOnUse">
<stop stop-color="#FFF5BA"/>
<stop offset="1" stop-color="#DA6C37"/>
</linearGradient>
<linearGradient id="paint3_linear" x1="20.8735" y1="66.4031" x2="32.9061" y2="92.566" gradientUnits="userSpaceOnUse">
<stop stop-color="#FFF5BA"/>
<stop offset="1" stop-color="#DA6C37"/>
</linearGradient>
<clipPath id="clip0">
<rect width="80" height="81.6" fill="white"/>
</clipPath>
</defs>
</svg>
