<svg width="18" height="18" viewBox="0 0 18 18" fill="none" xmlns="http://www.w3.org/2000/svg">
<path d="M13.1963 15.7545H13.1753C10.294 15.6836 7.54447 14.5331 5.47126 12.531C3.4684 10.4597 2.31728 7.71116 2.24618 4.83074C2.24193 4.42724 2.40036 4.03901 2.68576 3.75374L4.72126 1.71974C5.01414 1.42696 5.48889 1.42696 5.78176 1.71974L8.78176 4.71974C9.07455 5.01262 9.07455 5.48737 8.78176 5.78024L7.58476 6.97499C7.80677 7.80443 8.21572 8.57204 8.78026 9.21899C9.42605 9.78374 10.1927 10.193 11.0213 10.4152L12.2213 9.21974C12.5141 8.92696 12.9889 8.92696 13.2818 9.21974L16.2818 12.2197C16.5745 12.5126 16.5745 12.9874 16.2818 13.2802L14.2463 15.315C13.9687 15.5954 13.5908 15.7536 13.1963 15.7545ZM5.25001 3.31124H5.24626L3.74626 4.81424C3.80742 7.30324 4.801 9.67852 6.53026 11.4697C8.32159 13.1984 10.6964 14.1919 13.185 14.2537L14.6903 12.75L12.7463 10.8112L11.7765 11.7802C11.6378 11.9205 11.4488 11.9996 11.2515 12C11.1988 12 11.1463 11.9945 11.0948 11.9835C9.84499 11.707 8.68455 11.1214 7.71976 10.2802C6.8786 9.31545 6.29297 8.15502 6.01651 6.90524C5.96436 6.65682 6.04141 6.39887 6.22126 6.21974L7.19026 5.24999L5.25001 3.31124Z" fill="url(#paint0_linear)"/>
<defs>
<linearGradient id="paint0_linear" x1="2.24609" y1="2.42405" x2="16.1046" y2="15.2274" gradientUnits="userSpaceOnUse">
<stop stop-color="#FFF5BA"/>
<stop offset="1" stop-color="#DA6C37"/>
</linearGradient>
</defs>
</svg>
