<?xml version="1.0" standalone="no"?>
<!DOCTYPE svg PUBLIC "-//W3C//DTD SVG 20010904//EN"
 "http://www.w3.org/TR/2001/REC-SVG-20010904/DTD/svg10.dtd">
<svg version="1.0" xmlns="http://www.w3.org/2000/svg"
 width="656.000000pt" height="656.000000pt" viewBox="0 0 656.000000 656.000000"
 preserveAspectRatio="xMidYMid meet">
<metadata>
Created by potrace 1.11, written by Peter Selinger 2001-2013
</metadata>
<g transform="translate(0.000000,656.000000) scale(0.100000,-0.100000)"
fill="#000000" stroke="none">
<path d="M80 6522 c0 -35 27 -155 66 -288 34 -118 125 -283 224 -406 65 -80
246 -252 351 -334 107 -84 284 -205 519 -356 74 -48 155 -106 180 -129 25 -23
34 -35 20 -27 -91 53 -173 100 -225 128 -33 18 -80 44 -105 58 -25 14 -74 41
-110 60 -36 19 -73 42 -82 50 -10 8 -18 12 -18 8 0 -4 -12 1 -27 12 -16 10
-41 26 -58 34 -66 33 -200 113 -203 120 -2 4 -8 8 -13 8 -5 0 -43 25 -84 55
-60 45 -81 55 -113 55 -52 0 -72 -23 -72 -82 0 -111 83 -232 319 -468 138
-138 173 -170 271 -250 30 -25 60 -49 66 -55 6 -5 34 -30 63 -54 60 -51 61
-63 15 -157 -14 -29 -25 -56 -24 -60 1 -4 -2 -10 -7 -13 -18 -12 -72 -165 -99
-281 -43 -186 -52 -471 -19 -635 2 -11 8 -42 14 -70 12 -60 52 -184 77 -240
10 -22 17 -43 16 -47 -1 -5 2 -8 7 -8 5 0 12 -11 15 -24 3 -13 32 -63 64 -112
86 -130 174 -224 286 -306 28 -21 56 -42 63 -48 7 -5 14 -10 17 -10 3 0 40
-23 83 -51 43 -28 87 -55 98 -60 11 -6 29 -15 40 -22 11 -7 72 -42 135 -77 63
-36 123 -69 132 -75 25 -15 85 -48 153 -85 33 -18 107 -58 165 -90 58 -31 159
-85 225 -120 194 -102 207 -109 221 -121 8 -6 14 -8 14 -4 0 3 15 -3 33 -14
19 -11 140 -74 270 -139 l236 -119 228 114 c125 63 264 134 308 157 228 119
344 181 380 201 22 12 74 40 115 62 71 38 216 118 325 178 269 149 525 308
582 361 16 15 39 36 53 48 105 91 249 307 300 451 4 11 12 32 18 47 13 32 39
128 47 177 3 19 8 37 10 41 10 16 20 167 19 290 -1 136 -7 207 -26 290 -5 25
-12 59 -15 75 -9 56 -65 210 -111 305 -62 128 -62 138 0 192 28 24 59 50 70
60 10 9 37 31 60 50 95 76 140 119 278 257 212 213 296 334 307 438 8 72 -12
103 -66 103 -31 0 -54 -11 -115 -54 -66 -48 -124 -83 -336 -205 -25 -14 -47
-26 -50 -26 -3 0 -21 -10 -41 -23 -20 -12 -41 -22 -48 -22 -6 0 -11 -4 -11
-10 0 -5 -5 -10 -10 -10 -6 0 -61 -29 -123 -64 -61 -35 -137 -77 -167 -93 -30
-17 -77 -42 -105 -57 l-50 -28 50 46 c28 25 59 49 70 52 11 4 22 10 25 13 4 6
78 55 180 121 143 91 355 239 434 303 108 88 262 236 317 306 19 24 40 49 47
56 6 8 12 18 12 24 0 6 4 11 8 11 8 0 66 95 104 169 47 91 116 327 125 430 l5
54 -48 -7 c-27 -3 -105 -22 -174 -42 -69 -19 -134 -37 -145 -39 -19 -4 -73
-17 -85 -20 -11 -3 -76 -16 -90 -18 -8 -2 -21 -6 -28 -11 -7 -4 -16 -6 -19 -3
-3 3 -16 2 -30 -4 -13 -5 -36 -11 -51 -14 -15 -3 -85 -19 -157 -35 -71 -17
-141 -33 -155 -36 -14 -2 -32 -7 -40 -10 -8 -3 -26 -7 -40 -9 -14 -2 -63 -13
-110 -24 -47 -11 -96 -22 -110 -25 -150 -30 -394 -92 -427 -107 -40 -19 -125
-99 -161 -150 -9 -13 -21 -28 -28 -34 -6 -5 -26 -32 -45 -60 -19 -27 -37 -52
-40 -55 -7 -7 -169 -269 -169 -275 0 -3 -16 -29 -35 -59 -19 -30 -35 -60 -35
-66 0 -5 -4 -10 -10 -10 -5 0 -10 -4 -10 -9 0 -7 -34 -67 -93 -166 -36 -59
-57 -88 -57 -79 0 22 74 235 100 289 10 20 91 228 117 300 8 22 17 51 19 65 3
14 7 33 10 42 19 65 2 88 -111 143 -213 103 -567 168 -920 167 -91 0 -335 -11
-362 -16 -10 -2 -47 -7 -83 -11 -36 -4 -74 -9 -85 -11 -11 -3 -36 -7 -55 -10
-180 -29 -415 -117 -483 -180 -30 -28 -30 -28 5 -149 19 -65 107 -299 148
-390 16 -36 31 -78 36 -97 1 -5 3 -10 4 -13 1 -3 3 -8 5 -12 1 -5 4 -15 7 -23
13 -32 28 -83 28 -93 0 -5 -9 2 -20 16 -11 14 -20 28 -20 32 0 4 -8 19 -19 33
-10 15 -28 43 -38 62 -60 105 -200 342 -229 387 -19 28 -34 56 -34 62 0 6 -4
11 -8 11 -5 0 -15 12 -23 28 -8 15 -16 29 -19 32 -3 3 -27 35 -53 72 -62 88
-152 184 -199 214 -33 21 -92 38 -318 89 -36 8 -96 22 -135 31 -38 9 -81 18
-95 20 -14 3 -33 7 -42 10 -9 3 -26 7 -37 9 -12 3 -29 7 -38 9 -170 40 -286
66 -305 70 -13 2 -54 12 -93 21 -38 9 -78 19 -89 21 -59 11 -216 50 -311 76
-60 17 -114 31 -120 32 -5 1 -19 5 -30 9 -11 4 -41 9 -67 11 l-48 5 0 -37z
m400 -262 c41 -12 84 -24 95 -26 11 -2 56 -12 101 -23 44 -11 91 -22 105 -25
13 -2 47 -10 74 -16 28 -7 59 -14 70 -16 22 -3 38 -7 105 -23 25 -7 56 -14 70
-16 14 -3 36 -8 50 -12 34 -9 31 -8 75 -18 22 -5 42 -9 45 -10 3 0 28 -7 56
-14 29 -7 58 -14 65 -15 8 -2 21 -5 29 -8 8 -3 49 -16 90 -28 111 -33 141 -52
215 -132 55 -60 214 -264 287 -368 10 -14 41 -59 70 -100 55 -78 106 -152 123
-179 69 -107 256 -350 278 -359 4 -2 13 -9 20 -16 15 -16 52 -36 65 -36 5 0
19 26 31 58 24 59 28 75 35 133 3 19 5 36 6 39 1 3 1 30 2 60 0 85 -10 151
-47 315 -6 28 -68 205 -100 290 -15 39 -30 80 -32 93 -10 45 69 103 198 147
41 14 88 28 104 31 17 3 46 9 65 14 19 5 62 12 95 16 33 3 69 8 80 10 15 3
210 14 280 16 37 1 274 -13 294 -16 13 -3 49 -8 80 -12 61 -7 218 -45 266 -65
17 -7 33 -13 36 -13 20 -3 110 -69 125 -91 17 -25 17 -29 -1 -78 -10 -29 -21
-56 -25 -62 -9 -11 -94 -269 -109 -330 -6 -22 -13 -58 -16 -80 -4 -22 -9 -51
-11 -65 -13 -64 -5 -229 15 -296 17 -56 43 -114 52 -114 5 0 26 11 47 24 65
41 136 129 323 399 181 262 194 280 273 386 71 96 208 262 246 301 40 40 169
91 290 115 8 2 44 11 80 20 36 9 75 19 87 21 12 2 34 9 48 14 14 5 25 8 25 5
0 -2 15 1 33 6 17 5 45 12 62 15 16 3 126 27 243 55 118 27 224 51 235 53 18
3 119 32 191 53 15 5 17 2 11 -18 -42 -134 -321 -470 -515 -619 -25 -19 -47
-37 -50 -40 -3 -3 -25 -21 -50 -40 -25 -19 -49 -38 -55 -43 -15 -12 -434 -307
-483 -341 -64 -44 -158 -136 -189 -186 -60 -96 -72 -149 -64 -293 1 -27 3 -28
39 -23 60 9 174 49 277 97 28 12 53 22 58 21 4 -1 7 3 7 8 0 6 6 10 13 10 17
0 345 168 375 192 6 6 12 7 12 4 0 -4 6 -2 13 4 15 14 227 140 234 140 3 0 12
8 19 17 7 10 15 15 19 12 8 -9 -133 -118 -260 -202 -55 -37 -104 -70 -110 -74
-22 -17 -362 -219 -426 -253 -161 -84 -445 -244 -451 -254 -4 -6 -8 -8 -8 -4
0 8 -177 -99 -272 -163 -32 -21 -62 -39 -68 -39 -5 0 -10 -5 -10 -10 0 -6 -8
-14 -17 -17 -25 -9 -165 -121 -256 -203 -59 -54 -171 -169 -218 -225 -19 -22
-40 -46 -46 -53 -7 -7 -19 -22 -27 -34 -15 -21 -15 -21 -98 20 -46 23 -95 43
-110 46 -15 3 -32 7 -37 10 -25 16 -200 24 -266 13 -75 -12 -161 -47 -244 -99
-11 -7 -22 -10 -23 -8 -82 112 -340 370 -458 458 -47 35 -92 69 -101 76 -45
37 -467 296 -481 296 -3 0 -43 22 -89 48 -46 27 -124 70 -174 96 -49 27 -145
80 -212 120 -68 39 -137 78 -154 88 -17 9 -38 23 -48 32 -10 9 -21 16 -24 16
-9 0 -117 70 -135 88 -7 6 -20 12 -28 12 -8 0 -14 4 -14 8 0 4 -15 16 -32 27
-46 26 -214 153 -230 173 -10 13 -6 12 17 -3 38 -25 48 -31 170 -103 321 -190
717 -375 831 -389 44 -5 44 -5 45 26 1 17 2 46 3 64 5 97 -45 215 -124 296
-58 59 -107 101 -119 101 -5 0 -11 3 -13 8 -3 7 -47 40 -175 128 -37 26 -70
50 -73 53 -3 3 -12 11 -22 16 -43 26 -143 99 -146 107 -2 4 -8 8 -13 8 -5 0
-60 39 -122 87 -162 126 -412 379 -487 493 -8 12 -19 28 -25 34 -21 25 -81
134 -90 165 -6 20 -4 23 11 18 11 -3 53 -16 94 -27z m1120 -1872 c148 -81 211
-119 228 -135 7 -7 20 -13 28 -13 8 0 14 -4 14 -8 0 -4 15 -16 33 -27 29 -17
210 -143 247 -172 358 -282 578 -486 705 -656 28 -36 53 -66 56 -67 4 0 12 12
18 28 16 37 68 92 116 122 22 14 42 25 45 26 3 0 12 3 20 7 75 29 180 38 265
23 102 -18 225 -104 255 -177 15 -35 25 -37 41 -7 7 13 17 28 23 34 6 6 27 31
46 55 19 24 91 100 160 169 180 181 300 283 516 444 71 53 134 99 139 104 41
30 216 142 224 142 5 0 11 4 13 8 11 27 404 222 448 222 19 0 89 -141 138
-281 83 -236 100 -492 46 -704 -58 -228 -171 -427 -328 -580 -122 -118 -155
-143 -314 -226 -18 -10 -38 -22 -45 -27 -7 -5 -41 -25 -77 -44 -36 -19 -108
-59 -160 -88 -52 -29 -124 -69 -160 -88 -36 -19 -76 -42 -90 -50 -14 -9 -31
-17 -38 -18 -8 -2 -21 -9 -30 -17 -10 -8 -75 -45 -147 -82 -71 -38 -147 -79
-167 -92 -21 -13 -38 -20 -38 -16 0 5 -4 4 -8 -2 -4 -5 -25 -19 -47 -31 -22
-11 -74 -39 -115 -62 -115 -62 -314 -161 -317 -158 -3 3 29 93 162 461 72 198
85 266 90 455 6 256 -38 408 -145 498 -30 25 -86 43 -147 49 -124 11 -222 -46
-279 -162 -27 -55 -30 -68 -49 -165 -11 -60 -13 -311 -2 -370 22 -121 33 -164
68 -262 23 -62 48 -133 56 -158 8 -25 19 -56 25 -70 20 -46 27 -65 58 -155 46
-130 45 -126 24 -118 -11 4 -37 16 -59 28 -22 12 -112 59 -200 105 -88 45
-164 86 -170 90 -5 4 -55 31 -110 60 -55 29 -138 74 -185 100 -47 26 -114 63
-150 82 -162 89 -209 114 -385 213 -104 58 -192 105 -197 105 -4 0 -8 5 -8 10
0 6 -4 10 -10 10 -5 0 -42 19 -81 43 -90 53 -268 227 -332 324 -79 119 -176
349 -192 452 -2 14 -7 46 -11 71 -19 116 -7 325 28 455 5 22 11 47 13 55 11
57 138 350 157 361 12 8 180 -64 288 -123z m1720 -1198 c19 -14 34 -40 51 -92
21 -63 24 -92 24 -213 -1 -90 -7 -168 -18 -220 -9 -44 -18 -91 -21 -105 -3
-14 -14 -59 -25 -100 -12 -41 -26 -94 -32 -117 -6 -24 -15 -43 -19 -43 -4 0
-15 28 -24 63 -10 34 -22 78 -27 97 -5 19 -12 46 -15 60 -3 14 -8 34 -11 45
-3 11 -8 29 -9 40 -2 11 -10 61 -18 110 -19 115 -14 290 9 371 18 64 62 124
90 124 9 0 29 -9 45 -20z"/>
<path d="M1655 4134 c-13 -14 -38 -80 -51 -139 -9 -41 -11 -252 -2 -295 56
-271 233 -473 493 -561 22 -7 42 -14 45 -14 3 -1 21 -5 40 -9 86 -21 226 -22
315 -2 17 3 40 8 52 11 41 7 167 72 199 101 28 25 30 33 23 59 -9 33 -51 83
-92 110 -27 17 -28 17 -95 -18 -95 -50 -180 -70 -272 -64 -116 7 -190 31 -278
89 -24 15 -46 28 -50 28 -4 0 -31 23 -60 52 -44 43 -111 151 -118 192 -1 6 -6
29 -10 51 -16 86 1 279 27 311 10 12 -30 60 -71 85 -37 23 -79 29 -95 13z"/>
<path d="M4869 4136 c-14 -6 -43 -26 -64 -45 l-38 -33 12 -47 c58 -217 15
-413 -119 -540 -59 -55 -183 -122 -273 -146 -51 -13 -205 -14 -257 -2 -14 4
-62 25 -107 47 -82 40 -83 41 -110 23 -41 -27 -66 -55 -85 -96 l-18 -38 30
-29 c52 -50 174 -101 300 -125 33 -7 179 -7 210 -1 14 3 36 7 50 9 176 31 369
156 471 304 125 182 164 435 98 638 -11 33 -23 66 -28 74 -12 18 -39 21 -72 7z"/>
<path d="M1754 1331 c-2 -3 -4 -222 -4 -487 1 -379 4 -493 14 -529 8 -25 12
-45 10 -45 -13 0 50 -102 83 -135 32 -32 100 -72 138 -81 70 -17 137 -21 338
-21 l237 -1 0 119 c0 88 -3 119 -12 120 -7 0 -110 1 -228 1 -178 0 -221 3
-249 17 -42 20 -70 57 -78 102 -4 19 -7 238 -7 487 l-1 452 -30 1 c-117 3
-207 3 -211 0z"/>
<path d="M2645 1330 c-1 -3 -2 -230 -1 -505 1 -379 5 -505 14 -522 7 -13 10
-23 6 -23 -3 0 -2 -6 4 -13 6 -6 11 -15 11 -20 1 -20 35 -77 62 -105 39 -40
107 -80 149 -87 18 -3 40 -9 49 -14 9 -5 151 -8 316 -7 l300 1 0 119 0 119
-272 0 c-247 0 -275 2 -316 19 -59 26 -79 75 -81 199 -1 49 1 90 4 90 3 1 149
3 325 4 176 2 323 3 328 4 4 1 7 50 7 111 l0 110 -332 2 -332 3 0 134 c-1 106
2 135 13 139 8 3 158 6 335 6 l321 1 0 118 0 117 -30 1 c-135 4 -878 3 -880
-1z"/>
<path d="M3753 1332 c-18 -2 -33 -6 -33 -9 0 -3 24 -42 53 -86 30 -45 113
-175 185 -289 l132 -207 -95 -148 c-53 -81 -98 -155 -102 -163 -4 -8 -39 -65
-77 -126 -79 -123 -81 -126 -130 -207 -20 -32 -36 -60 -36 -62 0 -2 60 -3 134
-2 l134 1 33 55 c18 31 38 61 43 68 6 7 61 91 121 187 61 97 113 176 116 176
4 0 26 -33 50 -72 24 -40 47 -74 51 -76 5 -2 8 -7 8 -12 0 -5 45 -81 100 -168
l100 -160 130 0 c72 0 130 3 130 6 0 9 -47 87 -151 249 -55 85 -99 158 -99
164 0 5 -4 9 -10 9 -5 0 -10 6 -10 13 0 8 -9 22 -20 32 -11 10 -20 22 -20 26
0 4 -27 50 -60 102 -33 51 -60 98 -60 105 0 9 108 184 214 347 70 107 151 237
151 242 0 9 -260 7 -273 -1 -6 -4 -19 -22 -28 -41 -9 -19 -20 -35 -25 -35 -5
0 -9 -4 -9 -9 0 -5 -26 -50 -57 -100 -32 -50 -69 -110 -83 -133 -14 -23 -30
-43 -35 -45 -8 -2 -100 135 -114 172 -2 5 -16 28 -30 50 -44 69 -51 79 -68
113 -10 20 -25 32 -37 33 -109 3 -197 3 -223 1z"/>
</g>
</svg>
